<?xml version="1.0" encoding="UTF-8"?>
<svg version="1.1" viewBox="0 0 1600 1338" width="202" height="169" xmlns="http://www.w3.org/2000/svg">
<path transform="translate(0)" d="m0 0h1600v1338h-1600z" fill="#FDFDFD"/>
<path transform="translate(1330,586)" d="m0 0h2l4 30 4 38 1 17v48l-2 26-3 20-2 4-3 27-10 40-10 35-8 23-5 15-4 10-10 24-10 20-6 9-10 17-7 11-5 8-2 6-8 14-5 8h-2v2h-2l-2 5-4 6-2 5-8 12-9 11-9 10-7 8-14 14-7 8-22 22-11 9-10 9-40 30-23 15-24 14-33 17-20 9-31 13-22 8-21 6-18 5-22 5-28 5-16 3-51 6h-88l-15-4-40-5-26-5-32-8-37-12-20-8-26-11-18-8-17-9-12-6-19-11-20-12-17-12-14-10-16-13-10-8-13-11-8-7-22-22v-2l-4-2-9-10-7-8-12-13-7-8-11-13-9-11-4-3v-2l16 4 7 2 21 5 44 8 29 4 24 2 20 1h65l42-3 25-3 40-6 16-3 14-2 6-2 9-2 13-2 16-4h3v-2l24-7 37-11 23-7 16-6 11-5h2v2l15-6 11-5 15-6 16-7 8-4 13-5 13-6 17-8 32-16 15-8 6-4 5-2 13-8 11-6 14-8 20-12 12-8 7-4 23-15 10-7 7-4 10-6 8-7 11-8 18-13 10-8 18-14 13-11 14-12 15-13 14-12 8-7 9-8h2l2-4 8-7 26-26 8-7 8-9 5-1 3 16 10 40 5 19 6 20 5 17v2l5 1v-2h2l3-10 9-11 8-14 3-11-8 3-9 8-7 2-3-6-4-16-2-17-4-20-3-8-7-16-3-6v-5l15-16 12-13 7-8 12-14 9-11 6-8z" fill="#0B4F8D"/>
<path transform="translate(1445,217)" d="m0 0h18v44l-1 63-2 58-2 34-4 46-3 20-2 8-6-4-8-13-10-15-7-10-8-10-14-15-6-6-4 1-5 8-12 20-8 12-14 22-11 15-14 20-12 17-14 18-9 12-9 11-9 10-9 11-11 12-9 11-10 10-7 8-11 12-30 30-8 7-13 12-14 12-15 13-13 11-10 8-11 9-10 8-18 14-14 10-19 14-20 14-20 13-22 14-25 15-22 13-26 14-29 15-26 13-22 10-25 11-12 5-20 8-16 6-10 4-19 7-15 5-17 5-18 6-19 5-13 3-1 1-9 2-8 2-7 1-1 1-23 4-8 3-20 3-7 2-16 2-9 2-5 1-52 4-18 1h-61l-34-2-15-2-21-2-20-3-23-5-24-7-16-5v-2l-7-1-3-2-7-2-12-5-36-18-19-12-16-11-20-16v-2l-4-2-14-14-7-8-7-9v-2h-2l-10-15-10-18-7-15-9-26-3-15-1-9v-27l4-31 6-26 6-17 11-23h2l-3 11-6 21-3 19 1 17 3 18 5 16 7 19 10 19 10 14 11 12 11 11 11 9 18 12 13 8 21 11 12 5 10 4 27 9 28 7 26 5 39 5 27 2h75l38-3 46-6 44-8 37-9 42-12 36-12 35-13 46-19 29-13 33-16 19-10 21-12 22-13 12-7 13-8 14-9 16-10 13-9 17-12 22-16h2v-2l4-1v-2l11-8 14-11 13-11 11-9 14-12 15-13 13-12 15-14 26-26 7-8 24-24 9-11 13-15 11-14 8-9 13-17 13-16 10-14 13-18 13-19 11-17 15-24 8-14 6-10 5-9 2-5-5-2-10-6-18-10-36-16-19-9-5-3v-2l10-5 18-6 25-9 27-9 49-14 40-10 31-6 20-3z" fill="#0B4F8E"/>
<path transform="translate(691,62)" d="m0 0h37l31 3 27 3 23 2 45 9 7 3-1 2-25-3-3 5-6 1-16-6-11-3-10-1-8 7-7 6-6 4-6 13-9 11-4 6 2 6 6 9 1 4-16 8-27 6-12 5-14 10-14 6-8 2-6 2-2 4-7 11-10 13-9 14-6 7-9-3-14-5-8-8-6-10-11-21-2-7 1-10 5-7 11-7 4-7-1-2-4 1-2 4-4-1-3-2-1-10v-20l-4-6-6-3-9-1h-23l-3-4v-4l-8-1-13 5-24 12-18 12h-2l3 3 13 5 19 10 4 4 3 11 4 6 10 6 3 4-2 5-8 7-6 2-5-2v-2h-9l-1 2 7 10-1 5-13 8-4 4-5 1-26-16-5-2h-18v-4l9-8 15-4 12-9h2l2-4 3-4-1-5-11-5-9-1-11 4-6 9-7 11-7 8h-3l2 8-1 5-3 2-16 2-8 2-2-2h-8l-8 6-5 6v3l20 3 8 5 4 8 4-1 6-5 5-10 5-12 9-3 1 1 14 2 7 3 15 13 3 3-1 6-2 3v5l4 2 7-1 5-5 5-6 4 1 6 9 11 27 11 9 7 7 6 8-1 9-2 5-2 11-2 7 2 2 9 2 5 6 4 21-1 4-10-2-4-3-6-2-9-2-16-1-3-2 3-7 7-12 4-2 2-5 2-3v-3h-7l-14 7-15 3-4 5-11 5-6 7-2 6 5 5 7 6 7 1 10-4 6 1-1 5-4 4-22 12-17 9-8 3 1-8 1-4 2-2-14 2-15 8-8 6-4 4h2l1 9-10 4h-6l-10 6-8 8-3 5h-2l-2 5-10 17v16l-5 5-13 11-8 7-9 9-7 11-1 2v26h2v24l-2 9-1 1h-5l-7-13v-3h-2l-1-3-1-14-2-8-4-3v-2l-9-2-8-3h-11l-1 4-5 5-5 1-7-5h-9l-8 4-5 5h-2l-2 5-4 8-4 18-3 10h-2v29l1 9 6 13 5 5 2 4h11l3-1 3-7 3-3 6-10 4-2h15l1 5-4 11-4 16-2 12v8l1 2 15 1 10 5 4 6v13l-2 13-1 1-1 7v8l4 10 5 4 5 5 6 4h5l5-4 8-1 9 7 4 3 7 1 2-6 5-12 11-8 16-8 6-4h3l-2 10-1 9h3l5-3 4-5 6-1 5 5 12 11h7l6-1 8 7 5 1v-2l5-2 5-4 4 2 3 1 6 8 12 10 11 8 10 9 18 18 8 6h8l2-1h8l12 6 12 9 13 12 6 9 5 12v2l-19 5-13 4-15 3-27 6-29 5-34 5-28 3-27 2h-59l-21-1 1-4v-13l-2-5 1-19 2-6 10-19 5-7 1-3v-8l-1-2-2-19-7-15-4-9v-2h-7l-4 1v7l-5 1-17-12-6-4-6-7-2-1-3-12-6-12-2-5-4-4v-2l-5-2-11-7-4-2v-2h-2v-2h-3l-7-8-3-3-1-5-5-2-3-3-12-3-8-6-8-8-10-13-8-14-2-7-1-24-2-13-3-5-4-5-3-16-2-24-1-5v-20l8-40 7-26 8-22 12-27 14-26 16-26 8-12 8-11 14-19 9-11 12-13 9-11 34-34 8-7 13-11 14-11 13-10 11-7 10-4 5-4 4-5 15-8 13-9 20-11 17-10 28-13 21-8 20-6 12-2 12-1 16-6 13-6 15-4 35-6 38-5z" fill="#065168"/>
<path transform="translate(912,114)" d="m0 0 13 1 21 7 26 12 21 11 14 7 18 6 22 13 12 8 20 14 17 14 13 10 28 24 18 18 7 8 9 10 6 8-16 8-27 13-3 4 7 1 19 7 29 13 28 15 15 10 8 7-2 5-13 19-12 17-14 19-10 14-11 14-9 11-12 13-7 8-8 8h-11l7 7-9 12-11 12-7 8-22 22-8 7-13 13-8 7-12 11-6 5h-2l-1 3-11 9-10 9-13 10-14 11-10 8-19 14-13 9-20 14-27 18-19 12-16 10-17 11-9 5-5 3-3-1v-2l-4-2-5-6 1-39 4-5 1-9-5-16-2-15-6-9 2-9 3-8 1-11 1-6 7-18 4-13 10-16 3-10 10-3 8-6 9-13 1-9-5-10v-6l6-12 11-12 5-7 4-14h2l-1-4-6-2-2-4-10-4-7-1-4-4-6-16v-7l3-11-1-10-6-21v-6l1-1h24l17 2h9l4-3v-14l-5-10-11-9-18-10-1-2 1-4-2-1-1 3-1-3 3-2 13-4 22-8 3-9 5-6 5-11 2-4 16-9-1-8-8-9-2-6v-4l2-1h8l8 10 6 8 9 7 9 3 6 1h9l7-3h12l4-3-1-10-3-1-7-10 1-13 2-3v-4l-14-6-9-1-5-10-8-12-4-5-3-1 2 10 6 10 8 6 2 6-3 4v6l7 14-2 6-10 9-4-1-11-12-8-9-4-4v-2l-5-2-7-1-8 4-5-1-8-6-7-6-1-4h-2l-9-15-3-7 1-8 7-8 7-9 1-6-4-13-4-8 1-5 5-5 8-6z" fill="#59AF72"/>
<path transform="translate(317,506)" d="m0 0h1l1 20 3 12 4 5 2 6 7-1 3-6 3-11 7-5 10 1 3 4 9 3v2l15 3 11 3 2 2 7 3 1 2 7 1 5 4 12 5 10 1 12 4 3 2 12 2 5 4 13 5 8 6 9 4 6 3v2l5 2 9 6 2 1v2l7 2-4-7 1-2 9 7 14 5 9 5 14 7 10 7 8 4 5 2 7 3 14 7 9 6 14 5 13 7 9 4 8 2 24 9 5 3 9 3h2l1-2h-2l1-4 4 2 8-1 2 1v2h6l5-2 7 1 1 4 5 2 3 2 7 2v3l2 1 1 1 9-1 4-1 2 5h4l1-2h2v-2l5-3h2v8l6 2 6 17 4 7 6 6-1 18-3 5-17 10-28 15-30 14-8 3-11 5-21 9h-3v2l-10 3-26 10h-3v2l-20 6-6 3-21 6-8 3h-5l-7-16-6-8-13-12-15-10-7-3h-8l-2 1h-8l-11-9-22-22-19-14-11-10-2-5-4-1-3-1-6 5h-4v2h-5l-8-7-13 1-8-8-5-4-4-4-6 1-4 5-5 3-2 3-2-4 1-9 3-10-16 8-14 8-5 4-6 15-2 3h-7l-13-10-8 1-5 4h-5l-10-7-4-5-3-2-4-10v-8l1-7 1-1 2-13v-13l-3-4v-2l-10-4-15-1-2-3v-8l5-25 4-12 1-6h-15l-4 2-6 11-3 1-2 7-4 2-11-1-5-5-4-5-5-12-1-9v-26l1-3h2l2-10 4-18 7-13 10-8 5-2h9l7 5 5-1 3-4h2l1-4 2-1h9l10 4 7 2 5 5 2 8 1 17h2l7 15h5l2-9 1-24h-2l-1-8v-18z" fill="#D7EEFC"/>
<path transform="translate(759 1e3)" d="m0 0 3 1-3 5-5 4-8 7-6 10-6 9-3 3-2 6-1 10 1 16-3 9-2 5-1 13-8 14-3 7-10 3-12 2-13 4-10 5-12 8h-2l1 12-2 3-1 8-3 8-3 7-7 8h-2v2h-6l-6-5h-3v5l4 3v5l-3 3h-8l-1 2-5 3-4 5-6 3h-2l2 7 1 4 4 1 2 12 6 7 10 5 5 1h7l9-4 7-1 8-3 12-5 36-5 44-5 19-1h34l17-1 44-1 27-1 16-2 21-1 1 1 11-2h11l40-7 7-3 16-6 7-3 12-5 6-4 12-5 3-1v-2l12-4h12l-1 3 3-1h3l2 3-11 8-19 12-21 12-29 15-17 8-26 11-29 11-24 7-18 5-22 5-28 5-16 3-51 6h-88l-15-4-40-5-26-5-32-8-37-12-20-8-26-11-18-8-17-9-12-6-19-11-20-12-17-12-14-10-16-13-10-8-13-11-8-7-22-22v-2l-4-2-9-10-7-8-12-13-7-8-11-13-9-11-4-3v-2l16 4 7 2 21 5 44 8 29 4 24 2 20 1h65l42-3 25-3 40-6 16-3 14-2 6-2 9-2 13-2 16-4h3v-2l24-7 37-11 23-7 16-6z" fill="#06213F"/>
<path transform="translate(691,62)" d="m0 0h37l31 3 27 3 23 2 45 9 7 3-1 2-25-3-3 5-6 1-16-6-11-3-10-1-8 7-7 6-6 4-6 13-9 11-4 6 2 6 6 9 1 4-16 8-27 6-12 5-14 10-14 6-8 2-6 2-2 4-7 11-10 13-9 14-6 7-9-3-14-5-8-8-6-10-11-21-2-7 1-10 5-7 11-7 4-7-1-2-4 1-2 4-4-1-3-2-1-10v-20l-4-6-6-3-9-1h-23l-3-4v-4l-8-1-13 5-24 12-18 12h-2l3 3 13 5 19 10 4 4 3 11 4 6 10 6 3 4-2 5-8 7-6 2-5-2v-2h-9l-1 2 7 10-1 5-13 8-4 4-5 1-26-16-5-2h-18v-4l9-8 15-4 12-9h2l2-4 3-4-1-5-11-5-9-1-11 4-6 9-7 11-7 8h-3l2 8-1 5-3 2-16 2-8 2-2-2h-8l-8 6-5 6v3l20 3 8 5 4 8 4-1 6-5 5-10 5-12 9-3 1 1 14 2 7 3 15 13 3 3-1 6-2 3v5l4 2 7-1 5-5 5-6 4 1 6 9 11 27 11 9 7 7 6 8-1 9-2 5-2 11-2 7 2 2 9 2 5 6 4 21-1 4-10-2-4-3-6-2-9-2-16-1-3-2 3-7 7-12 4-2 2-5 2-3v-3h-7l-14 7-15 3-4 5-11 5-6 7-2 6 5 5 7 6 7 1 10-4 6 1-1 5-4 4-22 12-17 9-8 3 1-8 1-4 2-2h-10l2-1-1-2-4-2-7-1-7-2h-6l-6 2-9 2-7 4-3-1-2 1h-9l-2-2v-3l-4-2-2-3h-6l-3-7-4-4-1-2-8-1-2 1-6-5-6-1-9-5-7-2-2-2-9-1-5 1-11-1-5-1-8 1-9-1-5-4-2-1-4-10v-3l-5-1 1-4-3-1-6 1 1-9 4-9-1-3-3-1 11-13 11-12 9-11 34-34 8-7 13-11 14-11 13-10 11-7 10-4 5-4 4-5 15-8 13-9 20-11 17-10 28-13 21-8 20-6 12-2 12-1 16-6 13-6 15-4 35-6 38-5z" fill="#3B9366"/>
<path transform="translate(1250,680)" d="m0 0h3l3 16 10 40 5 19 6 20 5 17v2l5 1v-2h2l3-10 7-8 5-1 3-3-4 16-6 23-4 10-6 17-13 22-12 18-6 10-9 16-4 11-1 3h-2l-2 10-5 22-3 16-3 10-4 9-4 10-8 10-7 8-12 12h-2l-2 4-10 9-9 9-12 18-8 11-15 16-5 6-8 7-8 8-11 9-8 7-13 9-13 6-16 4-13 4-6 2h-9l1-7 7-9 2-7 4-24 4-15 1-10v-34l4-10 2-7 9-17 12-18 3-7 1-9v-34l-2-10-3-9-3-4v-6l-3-1-8-11-6-8 1-9 5-8 2-9 3-1v-8l1-1 1-18 11-9 9-6 19-14 11-9 9-7 13-11 14-12 15-13 14-12 8-7 9-8h2l2-4 8-7 26-26 8-7 8-9z" fill="#043C4C"/>
<path transform="translate(1061,843)" d="m0 0h1v17l-1 1-1 8-2 1-3 11-5 9v6l7 9 7 10 2 1 2 7 3 4 3 10 1 8v34l-2 12-10 16-8 13-6 12-3 10-3 7-1 31-4 7-4 1-12 5-7 3-5 3-5 2-14 3-11 2-10 2-15 4-18 3-21 3-37 3-18 2-15 2-33 2-9 1h-9l-9-1h-29l-25 9-21 8-10 2-5-1 2-4 5-4 2-5 3-9 5-6 4-10 5-8 1-13 4-9 1-5-1-17 1-9 4-9 4-4 7-11 3-5 8-7 6-5 1-5h2v2l15-6 11-5 15-6 16-7 8-4 13-5 13-6 17-8 32-16 15-8 6-4 5-2 13-8 11-6 14-8 20-12 12-8 7-4 23-15 10-7 7-4 10-6z" fill="#4C8DBE"/>
<path transform="translate(409,434)" d="m0 0h12l13 4 7 5 23 11 7 3 6 4 17 8 11 6 7 3 10 6 16 8 23 10 10 6 25 10 21 6 12 5 6 2 24 10 17 4 39 11 14 3 5 2 12 1 5-1h35l5 3 2 3 7 4 1 8 3 6 6 27v18l1 14 4 13 5 19 1 14 1 3v27l-1 14 3 6-1 5-11 7-2-1 1-5 1-16-5-4-4-8-3-7-3-8v-3l-6-2-1-3 1-5-5 3h-2v2h-2l-1 3-5-1-1-5-4 2-10 1-3-6-7-2-7-4-1-4h-7l-5 2-6-1v-2l-10 1-4-3-1 4h2l-2 4-5-3-9-3-5-3-12-4-10-4-12-3-8-5-11-5-13-5-11-7-10-5-7-3-16-8-11-7-26-13-8-3-8-6 3 5v3l-7-2v-2l-6-2-5-4-5-3v-2l-6-2-12-6-9-6-11-4-3-3-13-2-5-3-9-3-10-1-14-6-3-3-7-1-4-4-5-2-3-2-11-2-7-2-6-2v-2l-9-2-5-4-8-1-6 4-4 14-5 5-5-1-3-6v-2l-3-1-2-5-2-9v-22l8-11 14-14 14-11 3-3h2v-18l3-5 1 4-1 11 4-1 2-8 4-1 12-1 9-6 4-2 9-1v-2z" fill="#E8F6FD"/>
<path transform="translate(1007,436)" d="m0 0 9 2 12 4 1 8 3 8 4 7v5l-3 4 1 6 8 5 12 5 7 3 10 5 3 2v2h3v2h3v2l5 2 11 5 5 3 5-2 1-11h2l-1-6 2-3 9 1 5 2 7 2 1 3-7 9-10 11-7 8-22 22-8 7-13 13-8 7-12 11-6 5h-2l-1 3-11 9-10 9-13 10-14 11-10 8-19 14-13 9-20 14-27 18-19 12-16 10-17 11-9 5-5 3-3-1v-2l-4-2-5-6 1-39 4-5 1-9-5-16-2-15-6-9 2-9 3-8 1-11 1-6 7-18 4-13 10-16 3-10 10-3 8-6 9-13 1-9-5-10v-6l6-12 11-12 4-6h2v2l3 1-1 2 3-2 7-1 10-3 5-1 8-2 10-5 8-5 16-7 2-7 23-3z" fill="#227E96"/>
<path transform="translate(317,506)" d="m0 0h1l1 20 2 13 3 15-1 13-4 6h-10l-1 5 2 4 8 6 12 8 14 8 7 7 9 5 2 3 13-4 1-1h5l3 5 4 3-2 5v3 3l5 1 10 6 10 4 7 1h6l1 3h2l1 5-7 2 1 2 17 3 7 3 5 2 5 1 1 2 11 4h5l9 4 6 2 11 7v2l5 1 5 5 8 6 6 5 2 1 3 5v3l6 2 4 3 7 1 2 2 2 6 6 2 3 2v2l9 3v3l10 3 8 3 8 2 4 2 4 4 9 2 6 4 9 3 9 2 2 2 9 3h7l4-1 11 4 14 4 2 2 6 2h12l17 3 3 1 1 5 9 1 1 2-7 4-13 5-18 8h-3v2l-10 3-26 10h-3v2l-20 6-6 3-21 6-8 3h-5l-7-16-6-8-13-12-15-10-7-3h-8l-2 1h-8l-11-9-22-22-19-14-11-10-2-5-4-1-3-1-6 5h-4v2h-5l-8-7-13 1-8-8-5-4-4-4-6 1-4 5-5 3-2 3-2-4 1-9 3-10-16 8-14 8-5 4-6 15-2 3h-7l-13-10-8 1-5 4h-5l-10-7-4-5-3-2-4-10v-8l1-7 1-1 2-13v-13l-3-4v-2l-10-4-15-1-2-3v-8l5-25 4-12 1-6h-15l-4 2-6 11-3 1-2 7-4 2-11-1-5-5-4-5-5-12-1-9v-26l1-3h2l2-10 4-18 7-13 10-8 5-2h9l7 5 5-1 3-4h2l1-4 2-1h9l10 4 7 2 5 5 2 8 1 17h2l7 15h5l2-9 1-24h-2l-1-8v-18z" fill="#C7E7FB"/>
<path transform="translate(1445,217)" d="m0 0h18v44l-1 63-2 58-2 34-4 46-3 20-2 8-6-4-8-13-10-15-7-10-8-10-14-15-6-6-4 1-5 8-12 20-8 12-14 22-8 11-4 1-5 2v5l-6 3-5 5-16 12-3 3-4-1 3-4 3-9 3-7 5-10 1-7 8-17 1-1v-17l-2-2h-5v-9l-1-4 3-3v-2l-4-2-7-1-2-9 2-1-1-3-1-5 2-3-1-3v-7l-2-7 4-2-2-5-4-2 1 1v3l-4 2-2-2h-3l-3 4-4 2-4 4h-3l-2 5-3 5-5 4-4 1 1-4 8-13 5-7 6-11 12-20 4-6 2-5-1-3 4-8 1-3-5-2-10-6-18-10-36-16-19-9-5-3v-2l10-5 18-6 25-9 27-9 49-14 40-10 31-6 20-3z" fill="#072C58"/>
<path transform="translate(1299,341)" d="m0 0 3 1-4 8-17 28-7 12-7 10-3 5v2l5-3 4-4 4-7 5-3 4-4 3-1 2-3 4 1h3l2-2-2-1 1-2 4 1 3 5-2 4-2 1 2 7v7 3l-1 3 2 8-2 1 3 8h8l2 5-2 3h-2l2 4v8h6l1 9v11l-8 16-2 5-1 5-4 9-4 8-3 9-2 3 4-1 9-8 4-2 5-4 5-5 5-2 1-5 7-4 1 2-13 19-12 17-14 18-12 16-9 11-9 10-9 11-11 12-9 11-10 10-7 8-11 12-30 30-8 7-13 12-14 12-15 13-13 11-15 12-6-1-9 4-4 3h-2v2l-3 2-5 1h-7l-4-4 3-6 3-9 6-8 1-2h2l2-11-1-13-2 5-1 5-5-1-1-4-1-8-2-5v-3-7l6-12 3-7 6-11 8-13 11-14v-3l7-9 2-4h2l2-5 4-5 6-8 10-15-14 8-7 6-7 4-2 1 1-4-7 6 2-4 23-23 7-8 24-24 9-11 13-15 11-14 8-9 13-17 13-16 10-14 13-18 13-19 11-17 15-24 8-14 6-10z" fill="#094079"/>
<path transform="translate(251,288)" d="m0 0 2 4-2 1-1 6-2 5v5l7-1 2 4v2l3 1 4 10v3l5 2 4 2 12 1 5-1 9 2h9l3-1 8 1 1 3 9 2 10 5h4l5 5 6-1 5 2 5 5 1 6 7 1 4 5 2 1 2 4h9l4-1h3l8-4 11-2 4-1 9 1 1 1 8 1 4 3v2h-2v2l-10 4-10 6-10 7-1 2h2l1 9-10 4h-6l-10 6-8 8-3 5h-2l-2 5-10 17v16l-5 5-13 11-8 7-9 9-7 11-1 2v26h2v24l-2 9-1 1h-5l-7-13v-3h-2l-1-3-1-14-2-8-4-3v-2l-9-2-8-3h-11l-1 4-5 5-5 1-7-5h-9l-9 4-2-12-3-3-8-2-5-1-6-3-11-4-10-5-2-4h-2l-3-12-5-23-1-20-4-2 3-11 11-28 12-25 12-21 15-24 13-19 13-17z" fill="#2A8166"/>
<path transform="translate(919,284)" d="m0 0 1 2-4 10-5 10 1 3-1 3h1v7h2v2h2v2h-2l-1 5 7-2 5-5 2 6 4 2 5-5 7 3h2v2l5 1 8 4 3-3 4 2 7 3 4-1 3-1v2l6 2 1 4-1 2 6-2 1 2h4v2l5-1h8l10 2v-2h3v2h10l9 3 2 1v3l6 2 4 2 5 2 13 7 9 4 6 1v2l11-1 8 1h4l3 3v2l3 1 2 2 2 4 3 3 3 1 1-7h-2l-4-8-3-14v-10l2-2 5 1 2 3 3 16 3 8 5 3v5l-6-3 1 5 4 4 1 4-3 11-2 3-9 4-3 2 6 15 8 16 3 4v6l-9 4-10 5h-2v10l2 3-5-1-1-7-6 9-1 2v7h2l4-1-5 7v18l-4 4-9-3-10-5-3-2v-2h-3v-2h-3v-2l-5-2-11-6-12-4-11-6-3-4 1-6 2-2-1-7-5-9-2-10 1-2-9-2-9-3-34 3-14 1-1 7-24 12-8 5-5 2-10 1-7 3-8 2-6 1v-2l-3-3 4-15h2l-1-4-6-2-2-4-10-4-7-1-4-4-6-16v-7l3-11-1-10-6-21v-6l1-1h24l17 2h9l4-3v-14l-5-10-11-9-18-10-1-2 1-4-2-1-1 3-1-3 3-2 13-4 22-8 3-9z" fill="#41A689"/>
<path transform="translate(155,521)" d="m0 0h1l2 24 3 16 6 7 2 7 1 9 1 24 2 7 8 14 8 10 9 10 8 6 12 3 8 6 3 6 4 5 4 3v2h3v2h2v2l4 1 16 10 6 7 8 20 1 8 4 2 4 4v2l5 2 16 12 6 1v-7l5-2 7 1 4 9 7 14 2 11 1 11 1 2v8l-3 6-8 13-6 11-2 18v6l2 5v13l-2 4h21l42 1v1h-52l-39-3-27-4-27-6-14-4-8-3-20-8-7-5-6-16-7-25-15-54-4-20-4-16-2-12-3-16-1-8-1-19v-47l3-36 3-14 2-17z" fill="#5CA5D2"/>
<path transform="translate(691,62)" d="m0 0h37l31 3 27 3 23 2 45 9 7 3-1 2-25-3-3 5-6 1-16-6-11-3-10-1-8 7-7 6-6 4-6 13-9 11-4 6 2 6 6 9 1 4-16 8-27 6-12 5-14 10-14 6-8 2-6 2-2 4-7 11-10 13-9 14-6 7-9-3-14-5-8-8-6-10-11-21-2-7 1-10 5-7 11-7 4-7-1-2-4 1-2 4-4-1-3-2-1-10v-20l-4-6-6-3-9-1h-23l-3-4v-4l-8-1-13 5-24 12-18 12h-2l3 3 13 5 19 10 4 4 3 11 4 6 10 6 3 4-2 5-8 7-6 2-5-2v-2h-9l-1 2 7 10-1 5-13 8-4 4-5 1-26-16-5-2h-18v-4l9-8 15-4 12-9h2l2-4 3-4-1-5-11-5-9-1-11 4-4 4-3-4v-6l3-3-1-4h-6l2 4v6l-8 7-4 2h-5v-2h-2l-1-5 4-6 7-8-7 3-6 3-2 5-2 9v2l-10 4-6 4h-5l3-5 2-5 6-4-3-3 13-8 9-6 18-10 17-10 28-13 21-8 20-6 12-2 12-1 16-6 13-6 15-4 35-6 38-5z" fill="#A3D45D"/>
<path transform="translate(1286,832)" d="m0 0h1v5l-13 22-12 18-6 10-9 16-4 11-1 3h-2l-2 10-5 22-3 16-3 10-4 9-4 10-8 10-7 8-12 12h-2l-2 4-10 9-9 9-12 18-8 11-15 16-5 6-8 7-8 8-11 9-8 7-13 9-13 6-16 4-13 4-6 2h-9l1-7 7-9 2-7 4-24 4-15 1-10v-34l4-10 2-7 9-17 12-18 3-7 1-9v-45l5 2 9 17 6 8h8l10-5 5-5 3-1v-2l4-4 7-9 9-4 8 1 7-2 11 1 7-2 7-3 6-3 5-6 12-8 12-4 2-4 5-4 8-11 8-8 11-8 6-5h2l2-5 5-5 8-9 1-2h2v-2h2l2-4 3-1v-2z" fill="#07213F"/>
<path transform="translate(933,231)" d="m0 0h8l8 10 6 8 9 7 9 3 6 1h9l4-1-1 4h-2l-1 3-6 2-8-1-2-1 3 3 5 2v1l10-1 2-1 1 2 3-1 5 5 2 6 2 1v3l4 2 6 4 2 1v2h6l2 2 7 3 7 2h13l2-2 6 1 4 3 14 2 8 3h6l2-2 14-5 9-2 4-2 4 2 4 1 2 6v3l7 1 19 7 29 13 28 15 15 10 8 7-2 5-13 19-12 17-14 19-10 14-11 14-9 11-12 13-7 8-8 8h-11l7 7-3 3-2-2-9-2-7-2h-4l-1 3v5h-2v11l-4 3-2-1 4-4v-18l5-6-3 1-2 2-1-3v-7l5-8 4-4 1 7h2l-1-1v-8l4-4 12-5 5-2v-6l-6-9-5-11-6-15 1-2 4-2 5-2h3l3-10 1-5-1-3-5-5 1-4 6 3-2-6-4-2-4-11-2-13-2-3-5 1v10l3 14 3 6v2h2l1 3-2 6-1-2-5-2-2-5-5-4-2-2-3-1v-2l-7 1-9-1h-5v-2h-6l-9-4-11-6-10-4-4-2-3-2v-3l-13-3-8-1v-2h-3v2h-7l-3-1h-13v-2l-5 1v-3l-6 2-1-6-5-2v-2l-4 3-5-1-6-3h-4l-2 2-15-7-8-3-5 5-5-4-1-4-4 5-7 1 1-5h2v-2h-2v-2h-2l-1-6-2-1 2-4-1-2 3-7 2-1 3-9 2-8 6-13 16-9-1-8-8-9-2-6v-4z" fill="#4BAF7D"/>
<path transform="translate(240,1039)" d="m0 0 16 4 7 2 21 5 44 8 29 4 24 2 20 1 60 1 3 7 9 14 11 22 1 5h2l5 14 2 6 6 17 18 36 8 13v3l-16 3-45 6-10 1-9 3-11-3-13-8-9-5-19-12-11-8-12-9-14-11-11-9-13-11-8-7-22-22v-2l-4-2-9-10-7-8-12-13-7-8-11-13-9-11-4-3z" fill="#0B4F8E"/>
<path transform="translate(317,506)" d="m0 0h1l1 20 2 13 3 15-1 13-4 6h-10l-1 5 2 4 8 6 12 8 14 8 7 7 9 5 2 3 13-4 1-1h5l3 5 4 3-2 5v3 3l5 1 10 6 3 3v4h-5v2h-19l-20-1 1-4 3-2 1-3 4-4-1-2-7 3-10-2-1-1-7 1-7 4v1l7 2 3 4v3h-2v2l-5 1v5l10 5 7 3 11 7 14 6 12 6 5 4 2 5-1 7-3 7h-2v2h2l3 5 5 7-7-1-5 5-6 4-2 3-2-4 1-9 3-10-16 8-14 8-5 4-6 15-2 3h-7l-13-10-8 1-5 4h-5l-10-7-4-5-3-2-4-10v-8l1-7 1-1 2-13v-13l-3-4v-2l-10-4-15-1-2-3v-8l5-25 4-12 1-6h-15l-4 2-6 11-3 1-2 7-4 2-11-1-5-5-4-5-5-12-1-9v-26l1-3h2l2-10 4-18 7-13 10-8 5-2h9l7 5 5-1 3-4h2l1-4 2-1h9l10 4 7 2 5 5 2 8 1 17h2l7 15h5l2-9 1-24h-2l-1-8v-18z" fill="#B8DFFB"/>
<path transform="translate(1061,843)" d="m0 0h1v17l-1 1-1 8-2 1-3 11-5 9v6l7 9 7 10 2 1 2 7 3 9 1 12-5 5-10 2-18 8-4 3-13 6-7 3-14 10-14 11-18 13-20 14-20 13-17 11-21 13-22 13-18 10-17 9-9 3 2-5 10-11 3-3 3-4 1-4-5 1-24 12-11 5v-3l11-8 8-5h2v-2l10-6 16-10 23-14 22-13 11-7 18-13 5-4h2l1-4h-10l-5-1h-30l-9 2h-25l-8 2h-19l-13 4-11 2-16 4-10 3-12 1-3-2-1-8h2v2l15-6 11-5 15-6 16-7 8-4 13-5 13-6 17-8 32-16 15-8 6-4 5-2 13-8 11-6 14-8 20-12 12-8 7-4 23-15 10-7 7-4 10-6z" fill="#8FCAED"/>
<path transform="translate(1065,1180)" d="m0 0h12l-1 3 3-1h3l2 3-11 8-19 12-21 12-29 15-17 8-26 11-29 11-24 7-18 5-22 5-28 5-16 3-51 6h-88l-15-4-11-2-2-3v-5l-15-3-15-4-8-5-7-11-6-6-3-8-1-11-2-6 3 1 2 12 6 7 10 5 5 1h7l9-4 7-1 8-3 12-5 36-5 44-5 19-1h34l17-1 44-1 27-1 16-2 21-1 1 1 11-2h11l40-7 7-3 16-6 7-3 12-5 6-4 12-5 3-1v-2z" fill="#094078"/>
<path transform="translate(1007,436)" d="m0 0 9 2 12 4 1 8 3 8 4 7v5l-3 4 1 6 8 5 12 5 7 3 10 5 3 2v2h3v2h3v2l5 2 11 5 4 2-4 1v2l3 7-6 1h-8l-5 10-5 3-6 5-5 3-1 2-5 2-4 4-5 3-4 3-3 1-1 2-10 2v-2l-9 1-11-5-13-4-6-2h-5l-2 1-10-2-2-2-20 1v-5l-20 4-3-1 1-2-15 5-4-1 3-1v-2l-13 4-10 2h-8l-1-3-3 1 3 4-5 1-1-3 1-2-8 4-9 3 2-6-7 4-7 1-1-6 3-5v-3l4-2 8-6 9-13 1-9-5-10v-6l6-12 11-12 4-6h2v2l3 1-1 2 3-2 7-1 10-3 5-1 8-2 10-5 8-5 16-7 2-7 23-3z" fill="#2F8D8E"/>
<path transform="translate(76,656)" d="m0 0h2l-3 11-6 21-3 19 1 17 3 18 5 16 7 19 10 19 10 14 11 12 11 11 11 9 18 12 13 8 21 11 12 5 10 4 27 9 28 7 26 5 13 3 24 3 25 2 83 1v1l-16 1h-93l-5-1-12-2-8-1-4-2-5 1-5-1h-14l-11-1-18-1-2 1 3 2-2 1 9 6-4 2v2l9 1 5 4 9 3 13 6 3 3 3 6 2 1v5l-3 2h-4l3 3h3v2h-3v3l-10 1-3 2h-35l-2 2-3 1 4 4 21 8 3 2v2h-7l-21-6-16-6-20-9-12-7-11-6-10-6v3l4 3-5-1-12-8-14-10-14-12-2-1v-2l-4-2-14-14-7-8-7-9v-2h-2l-10-15-10-18-7-15-9-26-3-15-1-9v-27l4-31 6-26 6-17z" fill="#0A4179"/>
<path transform="translate(425,142)" d="m0 0h4l-2 4-7 8-1 7h2v2l9-3 7-6v-6l-1-4 6-1 2 4-1 4h-3l2 7 1 4-5 9-8 11-3 3h-3l2 8-1 5-3 2-16 2-8 2-2-2h-8l-8 6-5 6v3l20 3 8 5 4 8 4-1 6-5 5-10 5-12 9-3 1 1 14 2 7 3 15 13 3 3-1 6-2 3v5l4 2 7-1 5-5 5-6 4 1 6 9 11 27 11 9 7 7 6 8-1 9-2 5-2 11-2 7 2 2 9 2 5 6 4 21-1 4-10-2-4-3-6-2-9-2-16-1-3-2 3-7 7-12 4-2 2-5 2-3v-3h-7l-14 7-15 3-4 5-12 5v-2h-17l-4-3 2-4h2v-3l4-3h8l-1-6-3 1-2 1-4-4 1-4-14-3-7-7-7-3v-2l-3-1 1-2h-2v-3l-5-1-7-6-7-4-2-5-1-9 3-12-5-2-5-7-1-3-5-4-10-4-12-2v-3l-5-2-4-2h-9l-9-1h-9l-3-6-4-2 14-11 12-10 15-11 8-5 10-4 5-4 4-5 6-3h5v3l-6 4-3 7-1 1 6-1 6-4 8-2-1-4 2-7 2-5 5-3z" fill="#56A86B"/>
<path transform="translate(155,521)" d="m0 0h1l2 24 3 16 6 7 2 7 1 9 1 24 2 7 8 14 8 10 9 10 8 6 12 3 8 6 3 6 4 5 4 3v2h3v2h2v2l4 1 16 10 6 7 8 20 1 8 4 2 4 4v2l5 2 16 12 6 1v-7l5-2 7 1 4 9 4 16 1 5-2 7-6-1-8-6-5-2h-8l-8 4-10 2-5 4-5 3-7-3-7-1-2-2-7 1-6-1-9-3-10-6-15-14-10-9v-2h-2l-7-8-10-12-3-4v-2h-2l-3-5-6-6v-2h-2l-7-9-2-1v-2h-2l-3-4-4-1-1 3-2-15-1-19v-47l3-36 3-14 2-17z" fill="#8EC9EC"/>
<path transform="translate(1299,341)" d="m0 0 3 1-4 8-17 28-7 12-7 10-3 5v2l5-3 4-4 4-7 5-3 4-4 3-1 2-3 4 1h3l2-2-2-1 1-2 4 1 3 5-2 4-2 1 2 7v7 3l-1 3 2 8-2 1 3 8h8l2 5-2 3h-2l2 4v8h6l1 9v11l-8 16-2 5-1 5-4 9-4 8-3 9-2 3 4-1 9-8 4-2 5-4 5-5 5-2 1-5 7-4 1 2-13 19-12 17-14 18-12 16-9 11-9 10-9 11-11 12-9 11-7 7-6 1 6-8 1-5 3-3-7 4-5 5-5 4-5 2 1-7 7-11 12-17 13-16 1-5 4-10v-5l-1 2h-2l-2-6-3-3v-3l-5-2-4-17-3-5-2-3 1-13 1-7 4-7 3-8-2-1 3-6h2l1-2h-2v-4l-4 1-3 9-3 3-4 5-4 8h-3l-1 5-2 5-4-1-3 8-8-1 2-10 1-3-4 3h-3v2h-2v2l-5 2-3-1v-2h2l2-4 4-5 1-2-2-1 13-17 13-16 10-14 13-18 13-19 11-17 15-24 8-14 6-10z" fill="#08356A"/>
<path transform="translate(341,766)" d="m0 0 29 3v2l16 4 15 7 10 4 9 3 8 1 5 3 8 3 8 4 8 3 4 4v2l6 2 11 8 2 3 8 4 3 4 3 5 11 5h12l14 4 10 1-3 3-13 4-26 6-6 1-12 1-9 2h-18l-6 3-24 5-42 2-40 1h-7l-9 2v-2h-3l-3-18-1-1 1-19 2-6 10-19 5-7 1-3v-8l-1-2v-20z" fill="#064B64"/>
<path transform="translate(1250,680)" d="m0 0h3l3 16 9 36v4l-4 2h-4l1-6 1-2v-14l-5 1-7 8-6 5-2 4-4 4-7 8-6 8v11l-2 7-7 12-7 9-5 5-11 9-15 8-8 6-6 8-5 6-7 10-7 6-3 3-11 9-7 8-14 11-12 12-5 3-10 10h-2l-2 4-2 2-5 2-2 7h-1v-6l-3-1-8-11-6-8 1-9 5-8 2-9 3-1v-8l1-1 1-18 11-9 9-6 19-14 11-9 9-7 13-11 14-12 15-13 14-12 8-7 9-8h2l2-4 8-7 26-26 8-7 8-9z" fill="#065167"/>
<path transform="translate(987,364)" d="m0 0 6 1 6 7 8 12 14 11 10 7 14 9 7 8v8l-3 3-6 2-10 2v4l8 4 5 5 7 5 4 4-1-16-1-3 6-7v-11l-2-4 1-4 4-2 6 1 8 6 11 11 10 14 4 9 3 3v2h5l1-9 4-4v-5l-13-13-4-7 1-4 6-5h7l4 2 4 7 5 13 8 16 3 4v6l-9 4-10 5h-2v10l2 3-5-1-1-7-6 9-1 2v7h2l4-1-5 7v18l-4 4-9-3-10-5-3-2v-2h-3v-2h-3v-2l-5-2-11-6-12-4-11-6-3-4 1-6 2-2-1-7-5-9-2-10 1-2-9-2-9-3-34 3-19 3-10 3-16 10-4 3-7 2h-11l-7-3-4-2v-6h2v-2l2-1h13l10-9 9-9 4-7-1-6-3-5v-7l9-11 8-7-1-10 4-4h8l4 2h5l10-7z" fill="#FAFCFD"/>
<path transform="translate(168,435)" d="m0 0 4 1 1 1 1 20 3 14 4 19v2h2l4 4 8 4 11 4 8 4 9 1 5 3 2 10v5l-4 4h-2l-2 5-4 8-4 18-3 10h-2v29l1 9 6 13 5 5 2 4h11l3-1 3-7 3-3 6-10 4-2h15l1 5-4 11-4 16-2 12v8l1 2 15 1 10 5 4 6v13l-2 13-1 1-1 7v8l4 10 5 4 5 5 7 6h5l5-5h8l5 7 4 3-1 3-4-1-6-4h-5l-4 1v7l-5 1-17-12-6-4-6-7-2-1-3-12-6-12-2-5-4-4v-2l-5-2-11-7-4-2v-2h-2v-2h-3l-7-8-3-3-1-5-5-2-3-3-12-3-8-6-8-8-10-13-8-14-2-7-1-24-2-13-3-5-4-5-3-16-2-24-1-5v-20l8-40 5-20z" fill="#054D59"/>
<path transform="translate(200,367)" d="m0 0h1v8l-2 7 2 9-3 15v10l1 5 2 1v8l11 5v6l-5-1-3-1 1 2 4 2 7 1 10 1 3 2h8l4 2 1 4 7 2h4l5 3 2 1v-2h6l3 3v8l3-9h3l6 4 2 7h7l-1-5h14l5-2 3-3 9-1 6-5 6-1 6-4 1-3h2l1-3 8-1 1-7 4-2h5l2-2v3h2v6l-4 7v16l-5 5-13 11-8 7-9 9-7 11-1 2v26h2v24l-2 9-1 1h-5l-7-13v-3h-2l-1-3-1-14-2-8-4-3v-2l-9-2-8-3h-11l-1 4-5 5-5 1-7-5h-9l-9 4-2-12-3-3-8-2-5-1-6-3-11-4-10-5-2-4h-2l-3-12-5-23-1-20-4-2 3-11 11-28 12-25 5-2z" fill="#1E7F6F"/>
<path transform="translate(912,114)" d="m0 0 13 1 21 7 26 12 21 11 14 7 12 4 9 7 6 2 4 9 3 4 2 7 2 16-2 5-8 2-1 2-4 2h-7l-5 1h-2l-1 3-2-1-1 7h-2l-1 8-3 1v2h-2v2h-3l-1-2 1-13 2-3v-4l-14-6-9-1-5-10-8-12-4-5-3-1 2 10 6 10 8 6 2 6-3 4v6l7 14-2 6-10 9-4-1-11-12-8-9-4-4v-2l-5-2-7-1-8 4-5-1-8-6-7-6-1-4h-2l-9-15-3-7 1-8 7-8 7-9 1-6-4-13-4-8 1-5 5-5 8-6z" fill="#8BC970"/>
<path transform="translate(425,415)" d="m0 0h6l13 3 3 2v2h2l3 3 4 2 9 2 7 4 20 12 21 10 42 21 7 3 16 8 16 5 15 5 17 5 19 6 27 6 11 3 19 6 16 4 10 2 21 2h10l18 4 12 4 10 6 5 5 3 5 1 3 9-2h5l-2 2-6 2h-5v7l6 20 1 13-2 20v17l4 5 3 4 3 19 4 12-1 9-5 7-2-3-1-14-5-19-4-13-1-15v-17l-7-30-2-3-1-8-8-5-3-3-2-1h-35l-10 1-10-2-11-3-30-8-21-6-13-3-16-7-6-3-24-8-19-6-22-9-10-6-21-9-19-10-10-6-10-4-19-10-8-4-5-3-18-8-9-5-8-5-13-3h-13v2l-11 3-10 6-7 2h-10l-2 8-4 1v-13l3-8 4-4 7-1 3-2h11l14-7 13-4z" fill="#F4FBFE"/>
<path transform="translate(1042,1049)" d="m0 0h1l1 16v16l-2 15-5 11-3 12-17 3-5 3-11 4-12 5-20 6-23 4-14 3-34 5-34 4-13 2-37 2h-20l-19-2-40-1-24 1-26 3-12 3-8 1h-10l-1-4v-12l-1-1v-6l19-12 13-5 8-2 13-2 4-1-4 11-1 4-4 5-4 3v2l7-1 9-2 30-11 15-5h28l9 1h9l21-2 21-1 21-3 38-3 17-2 23-3 13-3 21-5 9-1 11-3 7-2 8-3 5-3 14-5 5-3 3-5z" fill="#3970A3"/>
<path transform="translate(1144,315)" d="m0 0h6l25 11 16 8 23 12 15 10 8 7-2 5-13 19-12 17-14 19-10 14-11 14-9 11-12 13-7 8-8 8h-11l7 7-3 3-2-2-9-2-7-2h-4l-1 3v5h-2v11l-4 3-2-1 4-4v-18l5-6-3 1-2 2-1-3v-7l5-8 4-4 1 7h2l-1-1v-8l4-4 12-5 5-2v-6l-6-9-5-11-6-15 1-2 4-2 5-2h3l3-10 1-5-2-4v-3l4-1v-7l-1-3-5-5-2-6v-19l4-1 4-18 4-11z" fill="#2B8D6B"/>
<path transform="translate(888,991)" d="m0 0h30l5 1h10v3l-5 5-18 13-16 10-22 13-26 16-11 7-8 5h-2v2l-16 10-5 5 11-5 26-13 3 1-1 5-4 6-6 5-8 11 2 1-24 12h-2v2l-9 3-9 4h-2v2l-2 1h-6v-7l-7-2h-13v-2l22-12 14-10 20-15 5-5 1-4-15-1-5 1h-50l-5-3-3-8-1-7-1-2 1-4h2v-6l5-7 3-5 8-7 6-5 2-3v6l9 1 13-3 16-4 17-4 10-3h19l9-2h24z" fill="#6CB0DA"/>
<path transform="translate(654,1149)" d="m0 0h1v8l-4 13-1 7-2 2v4l2 1v2l30-3h11l12 1 33-4 23-1 43 1 49-1 31-3 13-3 16-2 2-1 28-4 11-2 22-2 12-3 27-7h10v2h11l3 3v7l-4 3-12 5-9 4-11 4-8 3-24 3-26 4-21 3-11 2-16 2-29 3-128 4-18 2-29 3-46 2-24 3h-12l-3-2 1-6 3-3h3l1-3h8l2-2 1-5-4-2-1-1v-5l4-1 6 5 6 1v-2l6-5 4-6 3-11 1-1 1-8 2-3z" fill="#1C598E"/>
<path transform="translate(1330,586)" d="m0 0h2l4 30 4 38 1 17v48l-2 26-3 20-2 4-5 5h-2l-2 5-6 8-4 2-2-1v-23l-1-13 1-6-6 2-8 7-6 4-5 1-3-6-4-16-2-17-4-20-3-8-7-16-3-6v-5l15-16 12-13 7-8 12-14 9-11 6-8z" fill="#072C45"/>
<path transform="translate(1286,832)" d="m0 0h1v5l-13 22-12 18-6 10-9 16-4 11-1 3h-2l-2 10-5 22-1 8-2-4-6 1-8 7-6 9-3 3-4-2-2 6-3 4h-2v2l-5 3h-2l-1 2-10-2-12 5h-21v-2l-2-1 3-4-6 3-6 4-14 3 3-3v-5h-7l-4 1h-8v-5l-11 1-7-9-3-4-3-19-3-4-1 21h-1l-1-34 5 2 9 17 6 8h8l10-5 5-5 3-1v-2l4-4 7-9 9-4 8 1 7-2 11 1 7-2 7-3 6-3 5-6 12-8 12-4 2-4 5-4 8-11 8-8 11-8 6-5h2l2-5 5-5 8-9 1-2h2v-2h2l2-4 3-1v-2z" fill="#072B44"/>
<path transform="translate(1255,715)" d="m0 0 4 1 1 3v11l-3 8 9-2 5 19 6 20 2 6-1 4-1-7-2 1-2 9-2 3-2 6-11 9-11 8-11 7h-2v2l-10 8h-2v2l-16 11-10 6-14 8-6 5-9 5-9 6-12 7-19 8-11 4-15 9-14 7-9 4-6 4-3 1v7l-2-2v-7l3-3 5-2 17-17 5-3 12-12 14-11 6-7 10-8h2l2-4 4-4h2l2-5 4-5 7-8 7-9 13-8 8-4 11-9 3-1 2-4 8-11 6-10 1-10v-7l6-8 8-9 4-4 3-5 10-9z" fill="#054C58"/>
<path transform="translate(1039,1101)" d="m0 0 1 2-3 17-2 10-3 8-7 10-2 4-14 2-15 4-17 4-12 2-20 2-23 4-9 1-20 4-12 2-30 3-56 1-37-1-33 2-22 3-12-1h-11l-17 2h-13v-2l-3-1 1-5 2-5 2-11 2-5 1 4 1 3h11l11-2 7-2 26-3 24-1 40 1 19 2h26l31-2 28-4 34-4 30-5 20-4 17-4 11-4 10-4 13-5 3-2 14-2h3l2-12z" fill="#2A699D"/>
<path transform="translate(1110,494)" d="m0 0 9 1 5 2 7 2 1 3-7 9-10 11-7 8-22 22-8 7-13 13-8 7-12 11-6 5h-2l-1 3-11 9-10 9-13 10-14 11-10 8-19 14-13 9-20 14-27 18-19 12-16 10-17 11-9 5-5 3-3-1v-2l-4-2-5-6v-10l1-1 1-15 1-1 1-8 3-2 3 3 2 3 16-3 8-5 10-5 3-4 14-6 4-4h2v-2l7-3 4-3 15-5 10-4 13-6 5-3 8-7 7-3 2-4 9-4 7-6 4-1 2-5 8-6 16-16 3-5 6-2 2-4 8-8 5-4 4-2 3-5h3l1-3 6-3 3-3 5-2 4-4h3l2-4 6-2 1-3 5-4h3l2-6 3-4 13-2-4-8 4-1 5 1 3-2 1-11h2l-1-6z" fill="#1B7682"/>
<path transform="translate(251,288)" d="m0 0 2 4-2 1-1 6-2 5v5l7-1 2 4v2l3 1 4 10v3l5 2 4 2 12 1 5-1 9 2h9l3-1 8 1 1 3 9 2 10 5h4l5 5 6-1 5 2 5 5 1 6 7 1 4 5 2 1 2 4h9l4-1h3l8-4 11-2 4-1 9 1 1 1 8 1 4 3v2h-2v2l-10 4-10 6-10 7-1 2h2l1 9-10 4h-6l-10 6-8 8-3 5h-2l-2 5-5 8-1-4h-2l1-6h2v-6l2-5h2l-1-9h2l-1-2-9-1-3 1-7-1h-7l-8-4-7-7-3-4v-2l-6-3v-2l-7-1-6-3-5-4-8-4-1 2-4-2-1-3-13 1-2-1v-2l-8 1-6-6v-2l-9-3-1-4-3-1v-3l-5-2-2-4v-3h-2l-1-6-3-1 2-13 2-7-1-3-2-1 8-10 7-9z" fill="#2A8D6A"/>
<path transform="translate(1030,1214)" d="m0 0 4 1-3 3-27 14-17 8-26 11-29 11-24 7-18 5-22 5-28 5-16 3-51 6h-88l-15-4-11-2-2-3v-5l-15-3-2-1v-2l7-5 19-4v-1l7 1 4 1h6l1 3 10 1 4 1 15-2 50-3 22-2 3-2 30-3 17-2 7-2 3-3 5 2 9-1 4-2 1-1h10l6 1v-2l8 1 4-3h6l1 2h3l5-1-2-2 16-2 3-1 6-1 13-1 6-2 4-2 14-5 16-4 5-2 10-1 14-4h2l3-1v2l4-2h3v-2z" fill="#08356A"/>
<path transform="translate(1068,925)" d="m0 0 3 2 3 10 1 8v34l-2 12-10 16-8 13-5 6-3 4v-4l-7 2-9 4-12 4-11 4-16 5-25 5-18 4-21 4-11 1-10 2h-10l-6 1-3-5 24-15 17-11 30-20 17-12 12-9 18-14 12-8 11-4 9-5 14-7 7-3 10-2 2-3-1-12z" fill="#5CA5D2"/>
<path transform="translate(1308,746)" d="m0 0h5v10l1 9v18l-1 5 5-1 6-8 3-5 6-5v10l-2 17-10 40-10 35-8 23-5 15-4 10-10 24-7 14-5 1-14 11-12 11-6 3-3 5h-2l-2 4-8 8-5 1v-4l5-9 8-32 3-19 4-20h2l2-10 10-19 6-9 10-16 9-14 8-14 8-24 3-8 8-31-2 3h-4l2-5 7-12 3-11-5 1z" fill="#5CA5D2"/>
<path transform="translate(317,506)" d="m0 0h1l1 20 2 13 3 15-1 13-4 6h-10l-1 5 2 4 8 6 12 8 14 8 7 7 9 5 2 3 13-4 1-1h5l3 5 4 3-2 5v3 3l5 1 10 6 3 3v4h-5v2h-19l-20-1 1-4 3-2 1-3 4-4-1-2-7 3-10-2-1-1-7 1-7 4 1 3h-5l-2-2v-9h-12l-9-4-10-6-10-1-8-4-2-6-4-6-10-7-9-3-10-2-8-4-7-1-12 2-3-3-3-6 3-11 2-5 2-14h2l2 7 10-3 6-5 15-4 19 1 7 3 8 6 2 4 8 6 1-1v-8l-1-2v-21l2 3 1 17h2l7 15h5l2-9 1-24h-2l-1-8v-18z" fill="#C6E7FB"/>
<path transform="translate(1238,924)" d="m0 0 1 4-4 20-2 13-3 11-5 18-5 8v2l6-2 8-8 1-2h2l2-5 5-3 11-9 9-8 9-7h3l-1 5-10 16-7 12-7 11-5 8-2 6-8 14-5 8h-2v2h-2l-2 5-4 6-2 5-8 12-9 11-9 10-7 8-9 9h-4l-2 4-9 7-6 3-10 2-11 8-7 1h-22l-3-2-1-4 10-10 7-8 8-8 5-4 7-8 10-11 7-10 10-15 9-10 10-10 8-7 16-16 8-11 4-8 4-11 3-7 3-12 3-17z" fill="#2A6A9E"/>
<path transform="translate(470,749)" d="m0 0 4 1 16 12 10 9 18 18 8 6h8l2-1h8l12 6 12 9 13 12 6 9 5 12v2l-19 5-13 4-15 3-27 6-29 5-34 5-28 3-27 2h-59l-21-1 2-9h1v6h3v2l9-3h15l34-1 40-2 15-3 12-3 3-2h18l9-2 16-1 14-4 22-5 6-3-12-2-10-3h-12l-12-6-3-5-5-5-6-3-1-3 6 2 8 5-10-8v-2h-3l-1-3 5 2 9 6-1-1-7-6-2-1v-2l-2-1 4 1 6 2-6-5 3-1 8 4 1-2-5-2-12-12 1-2 5 2h3l-2-5v-3h-2l-2-3v-5h-2l-2-4 2-4-4-8-1-7-5-6z" fill="#074C6E"/>
<path transform="translate(1445,217)" d="m0 0h18v44l-1 63-2 58-1 20-3 16v3h-3l-1 2-1-6-5 8h-3l-1-3-1-20-1-12-1-14v-42l1-18v-10l-1-9v-50l-3-5-7-3h-15l-24 2-9 2-20 2-16 3-13 2-16 2-16 3-8 2h-8l2-4 33-10 49-13 38-8 26-4z" fill="#062452"/>
<path transform="translate(150,690)" d="m0 0 5 1 2 4h2v2l3 1 6 7v2h2l7 8 2 2v3h2l8 11 11 12 1 3h2l7 8 8 7 11 10 13 7 9 1 6 1 4-1 3 3h5l8 3 9-7 12-3 6-3h8l8 4 5 4 6 2 1-11-2-6-2-9 2 1 6 14 2 19 1 2v8l-3 6-8 13-6 11-2 6-1 11-1 4v3l-7 1-9-6-9-5-1-3-4-2-11-9-4-4v-2l-4-2-10-9-12-12-14-11-5-6-24-24-7-8-11-13-4-6-6-5-4-3-4-1-5-2h-4l-2 6h-1l-3-14-2-12-1-4z" fill="#6CB0DA"/>
<path transform="translate(599,127)" d="m0 0 13 3 5 1h4v3l7-2 4-1 2 5 6 1 6 3 3 4v2l5 2 4 2v2h2l1 4 6 1 2 2 6 1 1 5-10 10-1 4 2 1-6 2-2 4-7 11-10 13-9 14-6 7-9-3-14-5-8-8-6-10-11-21-2-7 1-10 5-7 11-7 4-7-3-4 4-1 1-4-1-2 2-4h-2z" fill="#8AC970"/>
<path transform="translate(1106,408)" d="m0 0h7l4 2 4 7 5 13 8 16 3 4v6l-9 4-10 5h-2v10l2 3-5-1-1-7-6 9-1 2v7h2l4-1-5 7v18l-4 4-9-3-10-5-3-2v-2h-3v-2h-3v-2l-5-2-11-6-12-4-11-6-3-4 1-6 2-2-1-7-5-9-2-10 5-4 8 1 5 4 5 5 7 6-1-16-1-3 6-7v-11l-2-4 1-4 4-2 6 1 8 6 11 11 10 14 4 9 3 3v2h5l1-9 4-4v-5l-13-13-4-7 1-4z" fill="#FBFDFD"/>
<path transform="translate(322,210)" d="m0 0h5l3 6h10l11 1h6l9 5v3l13 1 10 5 5 4 5 9 5 3-1 9-1 7 2 8 4 4 5 3 6 5 4 1v3h2v2l2 1v2l7 2 7 7 12 3 2 1v4l3 2 1 1 4-2 2 3-1 5h-8l-4 2v3l-4 4 4 2v3l-1 2h-2l-2 4-10 5-9-3-5-5-6-3-4-4-2-1v-2l-9-3-4-5-4-2 1-5-5-6-1-6v-3l-7-6v-3l-3-1-1-12 1-6h2l1-2 3-3 3-5-1-7-4-5-4-8-10-7-5 1-10 5-8 8-1 4-7 3-6-3 1 4 4 2 1 5-1-2-10-2-5-3-4 4-6 1-2-1-2 2-3-5-3-3v2l-5 1v2l-5 3-5 5-4 1-2-1-1 2 1-5 18-18v-3l-5 1-15 15v-3l34-34 8-7z" fill="#479869"/>
<path transform="translate(537,92)" d="m0 0h11l-4 3-5 3-9-1-13 5-24 12-18 12h-2l3 3 13 5 19 10 4 4 3 11 4 6 10 6 3 4-2 5-8 7-6 2-5-2v-2h-9l-1 2 7 10-1 5-13 8-4 4-5 1-26-16-5-2h-18v-4l9-8 15-4 12-9h2l2-4 3-4-1-5-11-5-9-1-11 4-4 4-3-4v-6l3-3-1-4h-6l2 4v6l-8 7-4 2h-5v-2h-2l-1-5 4-6 7-8-7 3-6 3-2 5-2 9v2l-10 4-6 4h-5l3-5 2-5 6-4-3-3 13-8 9-6 18-10 17-10 28-13 21-8 20-6z" fill="#8AC970"/>
<path transform="translate(355,504)" d="m0 0 6 2h8l4 4 8 3 5 3h11l2 1v3h12l3 2v2h2v2l8-1 2 1v2l4 1 3 3 6 7 6 4 8 5 14 7v2l4 1v2l10 3 15 8 4 3 6 2 11 6 8 3 8 6v2l6 2 12 6 5 2 6 5 9 3 11 8 9 4 15 7 14 7v2l4 1 16 6 12 6 7 2 5 3 6 2 5 3 12 3 12 5 9 4 3 2-1 4h2l-2 4-5-3-9-3-5-3-12-4-10-4-12-3-8-5-11-5-13-5-11-7-10-5-7-3-16-8-11-7-26-13-8-3-8-6 3 5v3l-7-2v-2l-6-2-5-4-5-3v-2l-6-2-12-6-9-6-11-4-3-3-13-2-5-3-9-3-10-1-14-6-3-3-7-1-4-4-5-2-3-2-11-2-7-2-6-2v-2l-9-2-5-4-8-1-6 4-4 14-5 5-5-1-3-6v-2l-3-1-2-5v-5l5 1 6-11 12-12 8-3z" fill="#DFF5FF"/>
<path transform="translate(1119,298)" d="m0 0 5 1 5 2 2 6v3l7 1 9 3-3 2h-2l-1 6-4 13-3 10-4 1 1 19 3 8 4 3 1 3v7l-5 1-1 3-3-4 1-4 6 3-2-6-4-2-4-11-2-13-2-3-5 1v10l3 14 3 6v2h2l1 3-2 6-1-2-5-2-2-5-5-4-2-2-3-1v-2l-7 1-9-1h-5v-2h-6l-9-4-11-6-10-4-2-1-1-7-9-6-5-3 1-3 10 2v-2l5-1v-2h-2l-3-4v-2l-3-1 13 1-1-3-5-5h5v-2l3-2-3-5 5-2-3-6h11l12 2 8 3h6l2-2 14-5 9-2z" fill="#4BA473"/>
<path transform="translate(737,1031)" d="m0 0 1 4h-2v5l1 1 3 15 5 2h50l9-1 11 1 1 4-4 5-20 15-19 13-18 10h-2v2l8-1 9 1 3 2v7l3 1-20 9-8 2v2l-37 14-10 2-5-1 2-4 5-4 2-5 3-9 5-6 4-10 5-8 1-13 4-9 1-5-1-17 1-9 4-9 4-4z" fill="#5CA5D2"/>
<path transform="translate(1144,315)" d="m0 0h6l25 11 24 12-2 1 2 4 9 6 7 9-1 7-3 10-9 8-5 2-14 9-5 4-6 3-6-2-3 2-9-1-5-3-2-1-1-6h-2v-2l-6-1v-8l-1-3-5-5-2-6v-19l4-1 4-18 4-11z" fill="#3B9366"/>
<path transform="translate(425,142)" d="m0 0h4l-2 4-7 8-1 7h2v2l9-3 7-6v-6l-1-4 6-1 2 4-1 4h-3l2 7 1 4-5 9-8 11-3 3h-3l2 8-1 5-3 2-16 2-8 2-2-2h-8l-8 6-5 6v3l20 3 8 5 4 8 4-1 6-5 5-10 5-12 9-3 1 1 10 1v1l-10 1-9 8-8 14-4 5-2 4v5l2 3v5l-6 9-5 5-4-1 1-7 2-9-5-2-5-7-1-3-5-4-10-4-12-2v-3l-5-2-4-2h-9l-9-1h-9l-3-6-4-2 14-11 12-10 15-11 8-5 10-4 5-4 4-5 6-3h5v3l-6 4-3 7-1 1 6-1 6-4 8-2-1-4 2-7 2-5 5-3z" fill="#56A86B"/>
<path transform="translate(1372,267)" d="m0 0 5 1v2l2 1v9l2 5 1 13 1 9v3l-4 1 1 11-1 2h2l3 5-6 2-3 3-5 13-3 2-3 12 1 5 1 3 5-1 5 4 3-2h3l3 4v2l5 2-2 5-1 4-5 5-3 2h-3l-1 4-10 10v6l-6 10h-2l-1 3-2-2-4 6-1 7h-1l-1-7-3 2 1-9 1-6-3-6-2-1-3-9v-14l-1-7-1-2h3v-3l-4 2v-6h4v-2l-2-1 1-2h-2l1-7 3-5 2-9 1-4 3-9 5-18 2-9v-10l3-6 3 6 3 1-1-18 2-1v2l4 1 2 3 1-7-1-3 1-6z" fill="#073055"/>
<path transform="translate(1007,436)" d="m0 0 9 2 12 4 1 8 3 8 4 7v5l-4 4v-3l-6-1-2-7v-2l-6-1-6-4v5l5-1-3 3-1 7-2 7 1 2 2-1 1 3-1 6-12 1 2-5-1 1-5 1-3 3-4 2-4 1-5-1v-3l-4 1h-6v-2l-14 2-3 1 1-3 2-1-5 1-5 3h-3-2v-3h3l-1-2-4 1-4 3-4-1-4 1v-3l-5-2h-6l-6 3v-4l-3-1-1-3-2-1v-3l-3-1v-2l10-3 5-1 8-2 10-5 8-5 16-7 2-7 23-3z" fill="#399686"/>
<path transform="translate(526,1201)" d="m0 0 5 5 7 8 1 3 10 10 12 13 9 11 7 5 10 3v1h-9l-7-1 19 10 4 4 9 3 5 2-4 1-32-8-37-12-20-8-26-11-18-8-17-9-12-6-4-4 8 2 9-3 26-3 42-6h3z" fill="#083569"/>
<path transform="translate(1051,1023)" d="m0 0 2 1-4 8-3 10-3 7h-2l-1 6-8 1h-7l-21 7-23 6-19 3-13 3-31 5-8 2-14 1-11 2h-15l-23 3h-8l-8 3-4 1v-2l16-8 23-12 20-12h3l2 3 6-1h13l7-2 18-2 18-4 19-4 20-4 16-5 11-4 18-6 5-3h5l1 2z" fill="#549ACA"/>
<path transform="translate(1050,900)" d="m0 0 6 4 8 11 2 1 2 7 3 9 1 12-5 5-10 2-18 8-4 3-13 6-7 3-14 10-14 11-18 13-20 14-12 8-6 1 5-5 6-12 2-7-6 1-7 3h-5l2-4 11-8 24-16 34-24 14-11 10-8 14-11 7-6 8-10-1-9z" fill="#A5D5F4"/>
<path transform="translate(1068,925)" d="m0 0 3 2 3 10v31l-1 15-4 4-12 3-7 2-16 8-19 9-10 3-10 5-27 9-12 2-6 2-15 2h-6l5-4 25-17 17-12 12-9 18-14 12-8 11-4 9-5 14-7 7-3 10-2 2-3-1-12z" fill="#6CB0DA"/>
<path transform="translate(1250,680)" d="m0 0h3l3 16 9 36v4l-4 2h-4l1-6 1-2v-14l-5 1-7 8-6 5-2 4-4 4-7 8-6 8v11l-2 7-7 12-7 9-5 5-11 9-15 8-8 6-6 8-5 6-7 10-7 6-3 3-11 9-7 8-14 11-12 12-5 3-10 10h-2l-2 4-2 2-5 2-2 7h-1v-6l-3-1-2-5 5-3 15-13 9-9 9-11 11-12 9-10 14-14 4-2 1-2h2v-2h2v-2h2l2-4 20-20 7-8 8-10 6-8 1-2h2l1-5 5-4 2-4h2v-2l5-2 2-5 8-7 6-7h2l2-5 6-7 5-10 1-5-5-1 4-7 6-7 1-2h2l2-4 2-2 1-5-6-1 4-5z" fill="#065168"/>
<path transform="translate(285,669)" d="m0 0 7 7 1 7 14 1 12-2 6 3 20 4 12 6 6 5 6 3 2 8 7-1 4-4h6l1 3 4 2 5 3 2 4-6 3-5 5-3 2-2 3-2-4 1-9 3-10-16 8-14 8-5 4-6 15-2 3h-7l-13-10-8 1-5 4h-5l-10-7-4-5-3-2-4-10v-8l1-7 1-1 2-13v-13l-3-4z" fill="#A5D5F4"/>
<path transform="translate(1220,833)" d="m0 0 2 1-9 8h-2l-2 4-13 12-7 7-11 9-5 4-4 1-2 5-5 4-9 6-6 6 1 2-7 4-3 1-4 4-5 3h-2v2l-7 6 7-4 3 1-11 8 7-3 4 1-5 3h-2v2l7-1-6 7 8-2-6 8-4 6h-2v2l-8 7-10 5h-8l-8-10-8-16-3-1-2 2-3-10-2-6 1-4 8-4 4-3 15-6 20-12 11-4 25-11 14-9 7-5 7-4 10-7 13-7 12-8z" fill="#063C54"/>
<path transform="translate(1298,268)" d="m0 0h5l7 2 2 2 3-1-2 10 3 1 3 9 1 4 4-1 1 4v4l6 1v14l-4 6-2-1-4-3-5-2v12h-2l1 5h-2l-2 2-5-5 2-5-6-1-2 1-10-6-18-10-36-16-19-9-5-3v-2l10-5 9-3 3 1-1 2 11-2 15-2 4-1 14-1h16z" fill="#08356A"/>
<path transform="translate(1166,786)" d="m0 0h1v6l-5 9-5 10h-2l-2 6-12 13-15 16-13 13-7 8-13 15-9 10-7 7-11 9-2 2-5-1-10-13 1-9 5-8 2-9 3-1 1-7 7-2 7-3 5-6 6-4 5-4 4-4h2v-2l9-7 5-4 5-1 10-10 4-3h2l2-4 9-10 6-5 8-4 5-2h3z" fill="#064B64"/>
<path transform="translate(347,1125)" d="m0 0h15l14 3 9 3 11 3 15 5 30 8 23 5 9 2 2 1 16 1 10 3 5 5 3 9-6 2-8-1-6-3v-2l-8 1-2 2h-4l-2 4-5 5-1 5-2 2-5 1h-8l-11-4-9-4-11-8-8-4-13-8-30-15-11-8-7-5-2-4z" fill="#1C598D"/>
<path transform="translate(339,785)" d="m0 0 3 4 1 2v20l-1 12 1 7 2 5 9 3 12 1 9 1 4 3-1 2 7 1 2 2 20 4 13 1 26 5 8 1v3l-6 3-24 5-42 2-40 1h-7l-9 2v-2h-3l-3-18-1-1 1-19 2-6 10-19 5-7 1-3z" fill="#063C54"/>
<path transform="translate(149,961)" d="m0 0 13 5 10 6 18 10 8 4 11 4 6 3 14 5 15 6 20 7 25 7 36 7 39 5 40 2 68 1 2 1v6l-8 1-19 1h-50l-29-1-28-2-12-2-7-1v-2l-11-1-28-5-30-8-15-5-11-3-9-4-22-12-13-8-15-10-11-7-7-7z" fill="#07305F"/>
<path transform="translate(849,212)" d="m0 0 10 10 3 1 2-1h6l1 3-4 4 1 5 12 14 9 10 8 6 10 4 2 2v19l-4 3-35 6h-5l1-8v-9l-3-10 1-4h2v-11l-8-6-3 7-1 19-4 4-7 3h-11l-3-2-3-17 1-9 6-6 3-1h10l5 4 3 3-3-10h-2l-5-9v-2h-2v-10l5-10z" fill="#4CAF7D"/>
<path transform="translate(1238,924)" d="m0 0 1 4-4 20-2 13-3 11-5 18-5 8v2l6-2 8-8 1-2h2l2-5 5-3 11-9 9-8 9-7h3l-1 5-2 2v-2l-11 7-3 3h-2v2l-8 7-3 5-6 5-7 8-5 6-5 4-2 5h-2l-2 9-6 10-4 5-7 10-3 2-4 8-3 3-2 6h2l1 3-4 6-3 5-4 5-5 2v2l-4 1v2l-5 3h-3v-3h-10l-10 1-6 3-5-1 2-5 7-7 7-8 8-11 10-15 9-10 10-10 8-7 16-16 8-11 4-8 4-11 3-7 3-12 3-17z" fill="#3970A3"/>
<path transform="translate(1308,746)" d="m0 0h5v10l1 9v18l-1 5 5-1 6-8 3-5 6-5v10l-2 17-10 40-10 35-2-2-7 4-1-2-3-1-2-4v-3l-4-1-4-4v-2h-2l-1-9v-9l4-9 6-18 3-8 8-31-2 3h-4l2-5 7-12 3-11-5 1z" fill="#6CAFDA"/>
<path transform="translate(902,1260)" d="m0 0 5 1v3l-9 2-1 3h5l-4 3-15 4-31 6-15 3-45 6-19 2h-88l-15-4-11-2-2-3v-5l-2-1 10 1 12 2 28 1 44-1 42-2 14-1 10-3 24-3 27-4 33-7z" fill="#082D59"/>
<path transform="translate(759 1e3)" d="m0 0 3 1-3 5-5 4-7 6-40 10-33 10-12 4-20 5-19 5-23 6-24 5-19 5-19 3-8 2-20 2-26 1-6 1h-13l-4-6v-4l5-1 42-3 25-3 40-6 16-3 14-2 6-2 9-2 13-2 16-4h3v-2l24-7 37-11 23-7 16-6z" fill="#071A47"/>
<path transform="translate(458,152)" d="m0 0 9 1 12 6 1 5-6 8-8 6-6 4-15 4-9 8v2h18l12 6 1 2-8-1v3l-1 2-11-3-10-1-2-1-7 2-5 12-5 10-8 7-4-1-5-9-6-3-20-3-1-4 9-10 5-3h8l4 2 10-3 12-1 3-2-1-12 5-3 10-14 6-10 6-4z" fill="#FAFCFD"/>
<path transform="translate(942,667)" d="m0 0m-2 1h2v3l-19 13-30 20-15 9-17 11-16 10-12 7-3-1v-2l-4-2-5-6v-10l1-1 1-15 1-1 1-8 3-2 3 3 2 3 8-1 8 1h5v2l15-9 7-2 7-1-1 2 10-1 10-6v3h2l2-4 7 1 1-3 7-3h3v-2l7-3 2-3 5-1z" fill="#1E5B8F"/>
<path transform="translate(1295,630)" d="m0 0 2 1-2 5-2 6 4 1 1 13-2 16-1 27v17l-4 9-4 6v11l3 7 4 4 1 5-7 2-3-6-4-16-2-17-4-20-3-8-7-16-3-6v-5l15-16 12-13z" fill="#065168"/>
<path transform="translate(1316,605)" d="m0 0 2 1-2 6v6l1 7-4 12-1 16-3 16-1 21-1 46 1 7 4 1v2l-7 3-7 7-4 1-2-5-4-4-2-6v-11l6-9 2-7v-18l1-25 2-17v-12l-4-1 1-6 2-5 2-4 9-11z" fill="#043C4C"/>
<path transform="translate(268,518)" d="m0 0h9l6 5 1 2h9l7 6v22l1 2v8l-3 2-8-7-3-5-9-6-4-1-19-1-15 4-8 6-8 1-3-7v-9l17-17h8l7 3 2 3 5 1 4-2v-5z" fill="#D7EEFC"/>
<path transform="translate(1250,680)" d="m0 0h3l3 16 9 36v4l-4 2h-4l1-6 1-2v-14l-5 1-7 8-6 5-2 4-4 4-7 8-5 6-5 4-7 8-10 11-9 11-8 10h-2l-2 4-11 13-1 2h-2l-2 4-3 4h-2l-2 4-18 18-10 7h-5l3-6h2l2-4 5-5 2-3h2v-2h2v-2h2l2-4 20-20 7-8 8-10 6-8 1-2h2l1-5 5-4 2-4h2v-2l5-2 2-5 8-7 6-7h2l2-5 6-7 5-10 1-5-5-1 4-7 6-7 1-2h2l2-4 2-2 1-5-6-1 4-5z" fill="#1A7681"/>
<path transform="translate(1174,752)" d="m0 0 1 2-9 11h-2v2l-5 5-9 11-14 18-8 9h-2l-2 4-3 1-2 5-10 9-10 8h-2v2l-4 2-5 5-6 5-5 5-5 4-10 2-1 5h-1v-6l1-1 1-18 11-9 9-6 19-14 11-9 9-7 13-11 14-12 15-13z" fill="#084D6E"/>
<path transform="translate(1e3 355)" d="m0 0h4l3 6 6 7 8 7 12 11 2 1v2l5 2 13 8 10 5 6 1v2l-2 1v2l-8 1-1 4 2 4v11l-6 8 1 2v16l-4-2v-2l-4-2-4-3v-2l-4-2-9-5v-4l3-2 10-2 5-2 1-1v-8l-7-8-13-8-13-9-2-5-10-10-2-4h-2l-6-10 2-5z" fill="#42A687"/>
<path transform="translate(1106,408)" d="m0 0h7l4 2 4 7 5 13 8 16 3 4v6l-9 4-10 5h-2v10l2 3-5-1-1-7-6 9-1 2v7h2l4-1-5 7v18l-4 4-3-1 4-2 1-2v-7l-3-10-9-5-10-8-9-7v-3l9-3 26-3 4-1-1-5-5-3 2-1 3-1 2-10 3-2v-5l-13-13-4-7 1-4z" fill="#F9FCFD"/>
<path transform="translate(1271,961)" d="m0 0h2l-1 4-14 24-7 11-9 15-4 2-4 4h-2l-1 7-4 5-14 21-7 8-4 2-8 2h-6l1-6 4-4 4-8 5-5 7-10 5-7 5-13h2l2-6h2l1-3h2l2-4 8-8 6-7 3-2 3-5h2l2-4 3-1v-2l12-9z" fill="#062344"/>
<path transform="translate(588,835)" d="m0 0 2 2 2 7-19 5-13 4-15 3-27 6-29 5-34 5-28 3-27 2h-59l-21-1 2-9h1v6h3v2l9-3h15l34-1 40-2 15-3 12-3 3-2h18l9-2 16-1 14-4 22-5 16-1 17-2 13-3 8-5z" fill="#0E467E"/>
<path transform="translate(182,401)" d="m0 0 2 1-1 6-2 7-4 16-1 10-1 2 2 1 1 6 1 8 2 7-1 2h2l3 9 5 10 8 3 5 4 4 2 9 1v2l9 1 9 3 11 2 3 3v2l6-2 18 6-1 3-5 1-1 4-5 5-5 1-7-5h-9l-9 4-2-12-3-3-8-2-5-1-6-3-11-4-10-5-2-4h-2l-3-12-5-23-1-20-4-2 3-11 7-18 3-1z" fill="#066575"/>
<path transform="translate(729,1065)" d="m0 0 3 1 2 8v12l5 3 11-2h17l1 3-6 7-9 5-10 6-14 7-3 2 1 8 5 1v5l-2 3h5l-3 2-21 8-10 2-5-1 2-4 5-4 2-5 3-9 5-6 4-10 5-8 1-13 4-9z" fill="#5398C8"/>
<path transform="translate(1048,174)" d="m0 0 5 1 19 13 13 10 15 12 14 11 10 9 11 9 20 20 4 10 5 9-3 1-1-1-1 2-5 2-2 2h-5l1-7 3-3v-5l-7-8-11-6-5-5-4-2-4-4-11-6-2-4-6-5-3-5-6-4-6-7-3-3v-2l-5-2-3-3v-2l-5-2-2-4-5-4v-2l-5-2v-2h-2l-3-3v-2l-3-1-3-2z" fill="#57A96B"/>
<path transform="translate(196,828)" d="m0 0 7 4h3l11 7 15 5 16 6 17 5 4 2 3 3 15 5 2 2-7 3v2h-10l-26-5-22-6-8-3-20-8-7-5v-7l-1-5 2-1 2-3 3 1z" fill="#559BCA"/>
<path transform="translate(1238,928)" d="m0 0 2 2v9l3 2h17l10 4 6-1 8-7 1 4-8 16-5 1-14 11-12 11-6 3-3 5h-2l-2 4-8 8-5 1v-4l5-9 8-32 3-19z" fill="#4C8DBE"/>
<path transform="translate(1142,316)" d="m0 0 7 6 5 2v2l6 2 1 3 10 3 3 4v5l-1 4 4 1 2 9-4 8-12-3-1 4-4-1-3-1-1 2-4-1-1-3-8 1-6-2-3 1-2 3v-19l4-1 4-18z" fill="#479869"/>
<path transform="translate(1251,894)" d="m0 0 1 2-4 10-1 5h2v2l13-5 2-1h9l8 9 3 2 9-1v5l-5 12-3 4-5 3-6 5-5-1-9-3h-17l-4-3v-19l1-3h2l2-10z" fill="#5399C9"/>
<path transform="translate(1413,421)" d="m0 0 6 2 3 5 6 5 2 5 7 1 6-5 7 1v6h2l2 5v16l-3 20-2 8-6-4-8-13-10-15-7-10-8-10-10-11 1-3 9 1 3-1z" fill="#062250"/>
<path transform="translate(63,818)" d="m0 0 3 1 6 8 4 8 10 9 11 16 4 6v2h2l9 11 10 9 2 5 3 3v2l-2 2 1 5h-2l1 7 1 4-3-1v-2l-4-2-14-14-7-8-7-9v-2h-2l-10-15-10-18-5-10v-5h2l-3-9z" fill="#093669"/>
<path transform="translate(866,244)" d="m0 0 7 3 5-1 12 13 9 6 9 4 1 1v19l-4 3-35 6h-5l2-18h2v-2l8-4 3-6-1-4-3 1v3l-4 1-4-2v-12l-2-7z" fill="#59AF72"/>
<path transform="translate(214,884)" d="m0 0 12 1 28 7 39 7 33 2 22 2 13 3 2 1 27 2h7l-3-2-10-2 1-2 3-1 22-1h27l22 1 6 2 2 1 11 1v1l-31 3-16 1h-75l-35-3-31-4-31-6-30-8-15-5z" fill="#F0F9FE"/>
<path transform="translate(1061,843)" d="m0 0h1v17l-1 1-1 8-2 1-3 11-4 6-2 1-3-5 5-10h-7l-2-4-8 4-5 3-9 9-25 14-12 6-9 1-6-1-6 2 3-3 12-7 10-6 12-8 7-4 23-15 10-7 7-4 10-6z" fill="#A7D6F5"/>
<path transform="translate(1122,917)" d="m0 0 2 1-3 4 6-4 3 1-11 8 7-3 4 1-5 3h-2v2l7-1-6 7 8-2-6 8-4 6h-2v2l-8 7-10 5h-8l-8-10-8-16-3-1-2 2v-8l4-1 15 3 8-1 11-6 7-5z" fill="#073155"/>
<path transform="translate(1452,255)" d="m0 0h3l1 6h1v31l-1 5v31l1 22 1 10 1 2v9l-3 5 1 22-4-1-7-10-1-8v-9h-2v-3h2l-1-5 1-2h-2l2-16 1-27 1-18 1-22 1-10 2-10z" fill="#06203F"/>
<path transform="translate(708,1120)" d="m0 0 2 1-2 5-2 6-2 5-7 6v2l11-1-3 2-37 13-9 3-4-1-1-12-1-1v-6l19-12 13-5 8-2 13-2z" fill="#4A8BBC"/>
<path transform="translate(1050,900)" d="m0 0 6 4 8 11 2 1 1 11-11 7-10 9-11 9-3 3-9 1-7 3-9 3h-3l2-6 6-5 8-10 7-7 4-5 11-9 8-10-1-9z" fill="#B8DFFB"/>
<path transform="translate(1202,796)" d="m0 0v3l-6 7-11 8-6 5h-2l-2 4-4 6-7 8-6 9-7 9-7 7-1 4-14 11-4 4-7 4-12 8-11 8-12 7-5 5-6 4-3 1v7l-2-2v-7l3-3 5-2 17-17 5-3 12-12 14-11 6-7 10-8h2l2-4 4-4h2l2-5 4-5 7-8 7-9 13-8 8-4 11-9z" fill="#064B64"/>
<path transform="translate(532,306)" d="m0 0h2v8l-2 7 2 2 9 2 5 6 4 21-1 4-10-2-4-3-6-2-9-2-16-1-3-2 3-7 7-12 4-2 2-5 2-3v-3l-3-2 7-2 3 2 3 3-1-4z" fill="#4CAF7E"/>
<path transform="translate(502,1235)" d="m0 0 9 3 31 11 11 3h3l-2-7 2-3h6l10 11 5 3 10 3v1h-9l-7-1 19 10 4 4 9 3 5 2-4 1-32-8-37-12-35-14-1-5z" fill="#092958"/>
<path transform="translate(76,656)" d="m0 0h2l-3 11-6 21-3 19 1 17 3 18 3 11v5l-2-2h-3l-2 9-4 4h-4l-3-3-2-14-2-2v-15l4-22 5-20 7-19 8-16z" fill="#0A396D"/>
<path transform="translate(655,1278)" d="m0 0 10 1 12 2 44 2 72 4 8 1-1 2-27 3h-88l-15-4-11-2-2-3v-5z" fill="#092958"/>
<path transform="translate(426,195)" d="m0 0 1 3-1 5h5l-4 4-4 10-5 10-8 7-4-1-5-9-6-3-20-3-1-4 9-10 5-3h8l4 2 10-3 12-1z" fill="#E6F5FD"/>
<path transform="translate(423,285)" d="m0 0 5 2v3l7 1 6 5 1 4 11 1 2-1 6 2h7l3 3v2l3-2 4-1 1 3 7-1v-2h6l-1 3h-2l1 3 2 1 1-5h2l2 6h12v3l-9 4-15 3-4 5-12 5v-2h-17l-4-3 2-4h2v-3l4-3h8l-1-6-3 1-2 1-4-4 1-4-14-3-7-7-7-3v-2l-3-1 1-2h-2z" fill="#4BA473"/>
<path transform="translate(1111,1112)" d="m0 0 2 1-10 10 1 4 7 1h24l-3 4h-3v2l-10 4-7 1 1 2-8 3-3 2-3 3-24 6-4 2h-11v-2h2l2-4 5-5 4-6 13-7 14-11z" fill="#1C598D"/>
<path transform="translate(523,1203)" d="m0 0 2 1-5 4-2 7-8 4-1 2-12 2h-5l-5-1-1 2h-15v3h2v2l-6-1-6-3-5-1-14-7-4-4 8 2 9-3 26-3z" fill="#094079"/>
<path transform="translate(1182,796)" d="m0 0h2l-2 4-3 5h-2l-2 4-7 8-12 13-8 8-1 2h-2l-2 4-20 20h-2v2h-2l-2 4-12 11-7 8-18 18h-2l-2 4-2 2-5 2-2 7h-1v-6l-3-1-2-5 5-3 15-13 9-9 9-11 11-12 9-10 14-14v3l-4 5h-2l-2 5 5-1 6-4 10-9 12-12 1-2h2l2-4 3-4h2l2-4 9-11z" fill="#066474"/>
<path transform="translate(159,571)" d="m0 0 5 1 2 3 1 6v8l-4 4v6l1 2v6h-2l1 4 1-1h6l10 17 2 8 3 3v3h2v2h2v2h2l3 4-1 3-6-1-8-4-5-3-3-3-5-8-6-11-1-3-6-2-2-3 1-5 3-9 1-4 2-24z" fill="#A4D4F3"/>
<path transform="translate(1334,649)" d="m0 0h4l3 22v48l-1 15-6 4-4-1-2-7v-16l2-46 2-15z" fill="#092644"/>
<path transform="translate(1298,629)" d="m0 0 1 4h2v2h2l1 2v10l-1 4v11l-1 21-1 24v15l-2 15-2 13v2l3 1-4 4h-2l-2-5-4-4-2-6v-11l6-9 2-7v-18l1-25 2-17v-12l-4-1 1-6z" fill="#054C58"/>
<path transform="translate(357,1030)" d="m0 0 24 1 23 1 68 1 2 1v6l-8 1-19 1h-50l-29-1-28-2-12-2-7-1v-1h8l3 1 1-2 10 1v2h39l11-2-1-1-30-2-5-1z" fill="#6FB2DC"/>
<path transform="translate(609,1256)" d="m0 0 4 2 5 5 3 5 12 5 14 3 10 3 1 5 2 2-1 1-14-1-25-4-12-3-10-3-6-4-7-5-14-7-1-2 8 1 28 7h5l-2-1-1-3-3-3z" fill="#041442"/>
<path transform="translate(1277,657)" d="m0 0h8v8l-1 7v22l2 11-2 9-1 11 1 12 2 7 2 10 1 3 4 2-5 1-3-6-4-16-2-17-4-20-3-8-7-16-3-6v-5l4-4 4-1h3 2z" fill="#066575"/>
<path transform="translate(505,257)" d="m0 0 3 1v2l5 1 4 6 9 7 7 7 6 8-1 9-2 5-1 7-1-4h-2l-1 7-8-4h-3l-2-5 1-5 3-7-2-4h-2l-2-4-5-2-4-4-4-2-2-7 1-4-1-3z" fill="#59AF72"/>
<path transform="translate(1244,686)" d="m0 0 6 1v5l-5 6h-2l-2 5-7 8-1 2 4 2v5l-7 13-6 7-5 5-5 6h-2l-2 4-8 8h-2v2h-2l-2 5-3 3h-2l-1 5h-2l-2 5-10 12-7 9h-2l-2 4-20 20-1 2h-2v2h-2v2h-2l-2 4-2-1 7-8 7-7 7-8 8-8 7-8 15-20 3-1 2-5 13-14 5-7h2l2-4 3-4h2l2-5 1-1v-5l-2-2 1-6 11-14h2l2-6h-3l-4 1-2-1 7-7 8-7z" fill="#066475"/>
<path transform="translate(285,669)" d="m0 0 5 5 1 3v33l2 10 4 5 2 1h10l5-1h8l9 4h6l4 4v7h4l-1 4-1 2h-7l-13-10-8 1-5 4h-5l-10-7-4-5-3-2-4-10v-8l1-7 1-1 2-13v-13l-3-4z" fill="#8EC9EC"/>
<path transform="translate(155,521)" d="m0 0h1l2 24 3 16 6 7 2 7 1 9 1 28-1-2-8 2v-5h2l-2-8v-6l3-4h2l-2-14-2-3h-4l-2 24-3 12-5 6-2 13h-1v-15l3-36 3-14 2-17z" fill="#8FCAED"/>
<path transform="translate(836,248)" d="m0 0h10l5 4 2 5 1 19-4 4-7 3h-11l-3-2-3-17 1-9 6-6z" fill="#4BAE7D"/>
<path transform="translate(942,216)" d="m0 0h21l11 3 7 12 1 5-4 6-8 7-4-1-11-12-8-9-4-4v-2l-5-2-2-2z" fill="#70C97F"/>
<path transform="translate(454,861)" d="m0 0 7 1-3 3-2 1 1 5-9 2-48 4h-59l-21-1 2-9h1v6h3v2l9-3h15l34-1 40-2 15-3 12-3z" fill="#114277"/>
<path transform="translate(1128,459)" d="m0 0 2 1-5 11h-2l5 10 4 3 9 2v3l-4 2h-9l7 7-3 3-2-2-9-2-7-2h-4l-1 3v5h-2v11l-4 3-2-1 4-4v-18l5-6-3 1-2 2-1-3v-7l5-8 4-4 1 7h2l-1-1v-8l4-4z" fill="#40A488"/>
<path transform="translate(784,173)" d="m0 0 8 1 5 3 2 3-1 6-5 5-8 4-4 1h-9l-4-2-5-5-6-7-1-6 5-2h21z" fill="#87C972"/>
<path transform="translate(1115,464)" d="m0 0 3 1h-2v10l2 3-5-1-1-7-6 9-1 2v7h2l4-1-5 7v18l-4 4-3-1 4-2 1-2v-7l-3-10-9-5-10-8-9-7v-3l9-3z" fill="#C7E7FB"/>
<path transform="translate(1008,355)" d="m0 0 7 2 12 10 17 12 14 10 9 6 5 8v2h-7l-19-10-9-6v-2l-4-2-15-14-6-5-6-8v-2z" fill="#FAFCFE"/>
<path transform="translate(1067,923)" d="m0 0 2 4 2 5 1 12-5 5-10 2-18 8-4 3-13 6-7 3-7 5-2-1 13-11 9-7 15-13 13-11 9-6h2z" fill="#8EC9EC"/>
<path transform="translate(172,575)" d="m0 0 4 1 1 1 1 7v29h2l5 10v2l4 2 7 5 7 8 7 10 5 6h-9l-8-6-8-8-10-13-8-14-2-7v-15z" fill="#043D4E"/>
<path transform="translate(275,709)" d="m0 0h8l4 13 2 5 5 4 5 5 7 6h5l5-5h8l5 7 4 3-1 3-4-1-6-4h-5l-4 1v7l-5 1-17-12-6-4-6-7-2-1-3-12v-8z" fill="#072744"/>
<path transform="translate(435,202)" d="m0 0 2 1 10 1v1l-10 1-9 8-8 14-4 5-2 4v5l2 3v5l-6 9-5 5-4-1 1-7 5-11-4-2-4-9v-3h-2l-2-3-12-4-9-2-3-2 1-5 2-1 1 3 20 3 8 5 4 8 4-1 6-5 5-10 5-12z" fill="#71CA7F"/>
<path transform="translate(472,172)" d="m0 0 2 1-1 2h-2l-3 10 2 4-2 1 2 3-2 1 9 6 7 3 2 5h2l1 4 3 1-4 2-4-1-17-10-10-6-8-1h-13v-4l9-8 15-4 8-6z" fill="#6FC87E"/>
<path transform="translate(893,263)" d="m0 0 9 3 6 3 1 1v19l-4 3-35 6h-5l1-8 2-9 3 1v2l2 1v1l9 2v-2l3-2h4l-1-5 2-2 9-1v-7l-4-1z" fill="#4DB07E"/>
<path transform="translate(404,901)" d="m0 0h33l22 1 6 2 2 1 11 1v1l-31 3-16 1h-35l1-3-13-3 1-2 3-1z" fill="#F2FAFE"/>
<path transform="translate(172,437)" d="m0 0h1l1 20 3 14 4 19v2h2l4 4 8 4 11 4 8 4 9 1 5 3 2 10v5l-2-4-4-6v-2h-8l-8-1h-8l-17-9-7-8-1-9-1-12-3-10-1-8 1-17z" fill="#065168"/>
<path transform="translate(415,732)" d="m0 0 3 2h7l6-1 8 7 5 1v-2l5-2 5-4 4 2 3 1 4 7h-2l-1 4-6 2-4 1 3 2-9 2-6-2-12-2-6-3-4-5-3-7z" fill="#0B4F73"/>
<path transform="translate(308,1023)" d="m0 0 11 1 36 5 7 2 30 2 5 1-4 2-11 2h-35l-4-1v-2h-10l-4 1-32-5v-1h16l-3-3v-2h-2z" fill="#124C84"/>
<path transform="translate(149,961)" d="m0 0 13 5 10 6 18 10 8 4 11 4 6 3 14 5 15 6 11 4v1l-9 1-10-4v-2h-7l-16-6v-3l-3 1-10-5-4-1 1 4-3 1-17-10-13-9-9-6-6-6z" fill="#135790"/>
<path transform="translate(300,593)" d="m0 0h13l10 5 10 6v2l5 2 7 5v2l3 1v2l5 2 8 6v1l-15 2h-5l-2-11-4-1-8-6-10-6-10-3-17-1 2-4 4-3z" fill="#09304B"/>
<path transform="translate(1e3 355)" d="m0 0h4l3 6 6 7 8 7 2 5 6 6v5l-3 1 2 8-5-1-7-5-2-5-10-10-2-4h-2l-6-10 2-5z" fill="#2C8F6B"/>
<path transform="translate(298,591)" d="m0 0h11l3 2-16 2-5 4-1 2h17l12 4 11 7 6 5 3 1 2 4v7l10-1-4 2h-3v2l-9-1-4-1v-9l-5-2-9-6-4-2h-8l-5-3h-17l-1-3 2-5 9-7z" fill="#B8DFFB"/>
<path transform="translate(1445,217)" d="m0 0h18v11l-27-3-26 2-12 2-6 2-18 3h-5l-1-4 38-8 26-4z" fill="#081D44"/>
<path transform="translate(1271,961)" d="m0 0h2l-1 4-14 24-7 11-9 15-4 2-4 4h-2l-1 7-4 5-14 21-7 8-4 2-4-1 6-4 6-8h2l2-6 6-7 3-6 2-2 3-7 1-2h2l2-4 8-9 5-7 2-5 2-2 3-7 2-5v-3l-11 9-11 12-5 4 2-4 8-8 6-7 3-2 3-5h2l2-4 3-1v-2l12-9z" fill="#062A59"/>
<path transform="translate(437,205)" d="m0 0h14l4 2h-3v4h-2v3l-11 6-2 5-7 3-6 11-6 9-3 6-2-1 2-3-1-7-1-1v-5l6-9 9-15z" fill="#58AF72"/>
<path transform="translate(242,684)" d="m0 0 4 1 16 10 6 7 8 20 1 8 4 2 4 4v2l5 2 16 12 6 1v-7l5-2 7 1 3 6-1 2-1-4-7-1-2 10-2 2-7-1-12-5-8-6-7-7-7-11-2-10-7-17-2-4h-2v-2l-4-2-10-7z" fill="#6AAFD9"/>
<path transform="translate(1306,771)" d="m0 0 1 2-10 37-2 5-2-4h-2l-4 8-4-4-2-5v-15l-1-6 2 3v2l5 1v-2h2l3-10 7-8 5-1z" fill="#08526B"/>
<path transform="translate(375,631)" d="m0 0h7l9 3 10 6 3 3v4h-5v2h-19l-20-1 1-4 7-5 3-1z" fill="#1B7782"/>
<path transform="translate(1110,494)" d="m0 0 9 1 5 2 7 2 1 3-7 9-10 11-3 3v-2l-4 1-6-2-1-5 5-3 1-11h2l-1-6z" fill="#2B8D6D"/>
<path transform="translate(397,718)" d="m0 0 5 1 5 5 6 5-2 1h-5l1 9-1 1-9 1-1 1h-7l-1 1-9-1 1-8 1-11 2 4h3l5-3 4-5z" fill="#076375"/>
<path transform="translate(253,609)" d="m0 0h15l1 5-4 11-2 3v-2l-7 3-3 5-6 3-4-2-1-4-5 1 2-6 4-5 6-10z" fill="#065369"/>
<path transform="translate(736,1020)" d="m0 0h8l-2 5-8 12-3 3-2 6-1-3 1-4-5 2h-18v-2h-2l2-4 3-3h2l2-4 5-3 11-3z" fill="#072D5A"/>
<path transform="translate(502,1235)" d="m0 0 9 3 23 8 1 5 5 1 6 5 9 3v3l-5 1-17-6-16-6-17-7-1-5z" fill="#09305C"/>
<path transform="translate(1310,294)" d="m0 0h5v2h-5l-1 9 4-3 4 2-1 3h-2l-3 10h-3l-5-3-9-2-11-5-12-9 3-2 3-1 8 1 7 2 5 1 4-2 2 4h2l2-5z" fill="#072C58"/>
<path transform="translate(76,656)" d="m0 0h2l-3 11-6 21-3 19 1 17 3 18-1 4-5-2v-15l-1-9-3-5-4-1-1 3 1-9 6-21 7-17z" fill="#0D3C70"/>
<path transform="translate(1052,420)" d="m0 0 1 4h2l2 4h2l2-5h1v7l-6 8 1 2v16l-4-2v-2l-4-2-4-3v-2l-4-2-9-5v-4l3-2 10-2 5-2 1-1z" fill="#44A78D"/>
<path transform="translate(313,1023)" d="m0 0h19l22 4 17 1h27l38 1 28 2 7 1v1h-67l-40-2-39-5-12-2z" fill="#EBF7FE"/>
<path transform="translate(1014,204)" d="m0 0h6l10 2 4-2 4 1 2 2-5 1-1 2-4 2h-7l-5 1h-2l-1 3-2-1-1 7h-2l-1 8-3 1v2h-2v2h-3l-1-2 1-13 2-3v-4l-9-4v-1l8-2z" fill="#71CA7F"/>
<path transform="translate(1125,794)" d="m0 0 1 2-3 9-9 4-2 3h-2l-2 4-9 7-7 5-18 9-2 6h-2l-1 2-3 3h-2l-1 11h-1v-17l11-9 9-6 19-14 11-9 9-7z" fill="#0C4579"/>
<path transform="translate(1119,349)" d="m0 0 5 1 2 3 3 16 3 8 5 3v5l-6-3 1 5 3 7-4 3-4-4-1-7v-3h-2l-4-8-3-14v-10z" fill="#E1F3FD"/>
<path transform="translate(1273,956)" d="m0 0h3l-1 5-2 2v-2l-11 7-3 3h-2v2l-8 7-3 5-6 5-7 8-5 6-5 4-2 5h-2l-2 9-6 10-4 5-6 9-1-4 6-8 1-7 2-6h2l1-4 2-1 1-3h2l1-5 3-4h2l2-5 9-9 1-2h2l2-5 5-3 11-9 9-8z" fill="#27669A"/>
<path transform="translate(500,315)" d="m0 0 5 1-2 2-13 3-5 1-4 5-12 5v-2h-17l-4-3 2-4h2v-3l4-3 10 1 7 2 10-2 10-1z" fill="#4AAE7E"/>
<path transform="translate(849,212)" d="m0 0 10 10 3 1 2-1h6l1 3-4 4 1 5 9 11-2 2-3 1-5-3-3-7-1-3-3-2v-2l-9-2-5-1-1 2-3 1v-7l5-10z" fill="#70C97E"/>
<path transform="translate(357,1030)" d="m0 0 24 1 23 1 4 1 58 1-1 2h-13l-18 1h-17l-19 2h-58l-12-2-7-1v-1h8l3 1 1-2 10 1v2h39l11-2-1-1-30-2-5-1z" fill="#5091C1"/>
<path transform="translate(156,486)" d="m0 0h1v24l3 13 2 21 3 7 5 11 1 16v15h-1l-2-18-3-8-5-6-3-16-2-24-1-5v-20z" fill="#065A6E"/>
<path transform="translate(672,1130)" d="m0 0 3 1-3 2 8 1 3 4-3 5-17 9-7 2-1 2-1-7-1-1v-6z" fill="#3870A3"/>
<path transform="translate(338,776)" d="m0 0 4 4 3 9 1 6v12l-1 10v7l1 4 2 1-1 2 5 1h11l3-1 7 3 1 3h2v3l5-3-2 5-10-2h-8l-11-2-5-3-3-5-1-7 1-12v-20l-2-3-2 4z" fill="#054C58"/>
<path transform="translate(397,156)" d="m0 0h5v3l-6 4-3 7-1 1 2 2-3 4-1 3-7 1v2l-6 3-5 2-4 1-1-2 1-3 4-2 4-6 1-3h-5l4-2 10-6 5-6z" fill="#58AF72"/>
<path transform="translate(425,142)" d="m0 0h4l-2 4-7 8-1 7h2v2l9-3 7-6v-6l-1-4 6-1 2 4-1 4h-3l2 7 1 4-3 6-2-2-2-4-9 4h-10l-13 1 3-2 5-1-1-4 2-7 2-5 5-3z" fill="#5BB273"/>
<path transform="translate(1023,211)" d="m0 0 9 2 4 2-6 2h-2l2 4-5 1-2 3-5 1v3h-2l-1 7-3 3-1 5-4-1-5-8h2v-2h2v-2l2-1 3-11 2-4h2l3-3z" fill="#4BAF7D"/>
<path transform="translate(1428,460)" d="m0 0 7 3 10-1 7 3v10l-3 15-6-4-8-13-7-11z" fill="#061945"/>
<path transform="translate(1253,979)" d="m0 0h2l1 5-4 6-2 5-2 2h-3v2l-4 3h-2l-2 5-9 10h-6l-1-2 4-10 6-4 9-9 5-6z" fill="#03123F"/>
<path transform="translate(1238,924)" d="m0 0 1 4-4 20-2 13-3 11-5 18-6 9-7 10-2 3h-2l-2 5-2 1v3l-3 5-3 1-5-2-3 3-2-1 21-21 8-11 4-8 4-11 3-7 3-12 3-17z" fill="#217293"/>
<path transform="translate(310,533)" d="m0 0h5l2 6 1 14-2 12-4 2-3-7v-2h-2l-2-4v-17l2-3z" fill="#066575"/>
<path transform="translate(1059,910)" d="m0 0h2l3 5 2 1 1 10-10 3-6 4-5-2-2-3 1-9 6-5z" fill="#C7E7FB"/>
<path transform="translate(297,906)" d="m0 0 14 1 16 2 25 2 83 1v1l-16 1h-93l-5-1-12-2-8-1-4-2z" fill="#0B447E"/>
<path transform="translate(285,669)" d="m0 0 5 5v17l-2 24 2 6 7 9 9 4h8l10-1 8 6 5 3h6l2-2-1 4-1 2h-7l-13-10-8 1-5 4h-5l-10-7-4-5-3-2-4-10v-8l1-7 1-1 2-13v-13l-3-4z" fill="#5CA1CE"/>
<path transform="translate(494,228)" d="m0 0 4 1 6 9 2 7-3 6-5-2-5-1-1-2h-10l-2 1-4-2 1-4 7-2 5-5z" fill="#59B073"/>
<path transform="translate(385,203)" d="m0 0 7 1 3 2 7 1v-2l9 2 1 4-3 7-5 3-6-3-5-3-10-1-2-3 1-4 1-3z" fill="#F3FBFE"/>
<path transform="translate(1266,662)" d="m0 0 2 1 1 9 7 19 6 20 1 14 1 12 2 7 2 10 1 3 4 2-5 1-3-6-4-16-2-17-4-20-3-8-7-16-3-6v-5z" fill="#227C88"/>
<path transform="translate(820,729)" d="m0 0 3 3 1 5 3 4-1 5-11 9-15 9-21 10-20 8-3-1 33-17 17-10 16-9 1-5-3-6z" fill="#F3FBFE"/>
<path transform="translate(394,191)" d="m0 0 6 1 4 2v2l7 1 5-5h2v2l3 1v2l3-1 2-3-1 5-3 2-16 2-8 2-2-2h-8l-9 6v-5h2l2-4 3-4h2v-2z" fill="#59B073"/>
<path transform="translate(300,593)" d="m0 0h13l10 5 10 6-4 1h-4l2 5-5-2-8-4-7-2-17-1 2-4 4-3z" fill="#0A5663"/>
<path transform="translate(1244,1010)" d="m0 0 1 3-11 18-3 5h-2v2h-2l-2 5-4 6-2 5-7 6-5 3-5 5-6 1-1-2h-5l4-2 11-3 8-9 5-8 10-15 2-2 2-7 8-7z" fill="#115591"/>
<path transform="translate(207,574)" d="m0 0h1l1 27 1 9 3 7 1 7-4-2-5-12-5-8-1-5v-9l5-12z" fill="#064153"/>
<path transform="translate(276,522)" d="m0 0 5 1 5 2h7l5 5v8l-2 2h-7l-9-5-7-6-1-4z" fill="#DFF5FF"/>
<path transform="translate(196,990)" d="m0 0 6 1 9 4h2v2l-4 1 8 2 3 5 13 5 5 3 17 3 7 4v2l-10-2-15-5-11-3-9-4-22-12v-2h2z" fill="#114A82"/>
<path transform="translate(491,353)" d="m0 0 6 1-1 5-4 4-18 10h-5l-5-5 5-5 3-2h7l6-4 3-3z" fill="#2D8F6D"/>
<path transform="translate(1313,747)" d="m0 0 1 3h3l1 5 2 5 4 2-1 4-3 1v3h-2v2h2v2h2l3 5-6 8-4 2-2-1v-23l-1-13z" fill="#072A43"/>
<path transform="translate(322,867)" d="m0 0h1v6h3v2l9-3h45l7 3v2h-46l-21-1z" fill="#083E77"/>
<path transform="translate(1329,588)" d="m0 0 1 4h2v17l-3 12h-4l-4-12-4-3 2-5 4-5z" fill="#072445"/>
<path transform="translate(316,737)" d="m0 0h8l5 7 4 3-1 3-4-1-6-4h-5l-4 1v7l-5 1-17-12-1-2 7 2 5 1 2-2 7 1z" fill="#06344B"/>
<path transform="translate(1258,407)" d="m0 0 2 1-2 5-8 11h-2l-1 5-12 17-9 12-7 10-5 5-10 14-4 2v-3l10-13 12-15 10-14 13-18z" fill="#114A83"/>
<path transform="translate(1251,996)" d="m0 0 1 2-10 17-4 2-4 4h-2l-1 7-4 5-14 21-7 8-4 2-4-1 6-4 6-8h2l2-6 6-7 3-6 2-2 3-7 1-2h2l2-4 8-9 8-11z" fill="#08366B"/>
<path transform="translate(543,791)" d="m0 0 12 3 12 7 10 9 5 4 4 7v4h-3l-7-8-10-9-15-10-8-4z" fill="#CDE9FA"/>
<path transform="translate(208,997)" d="m0 0 7 1 14 5h8l-1 3 5 1 5 2h9l3 3v3l-3 1h-7l-13-3-5-3-11-5-2-5-8-1z" fill="#072E5D"/>
<path transform="translate(430,143)" d="m0 0 5 2 3 3v6l-8 7-4 2h-5v-2h-2l-1-5 4-6z" fill="#F8FCFD"/>
<path transform="translate(295,238)" d="m0 0 5 1-1 4-23 23h-2v2l-9 5v-3l9-12 13-12z" fill="#2B8266"/>
<path transform="translate(370,217)" d="m0 0 1 3 12 3 12 4 2 4h2l5 12 3 2-1 4-2 2v-4l-5-2-5-7-1-3-5-4-10-4-11-2 1-5z" fill="#4BAF7D"/>
<path transform="translate(650,1160)" d="m0 0h1v5l-3 8h-3-3l-2 4-3 2-11 1-3-2 1-5 11-7 9-2h6z" fill="#062B57"/>
<path transform="translate(345,632)" d="m0 0h5l8 3 5-1 6-2 1 3-5 5-5 3h-8l-7 1-3-3-7-2 5-5z" fill="#D8EFFD"/>
<path transform="translate(1316,605)" d="m0 0 2 1-3 10-3 4h-3l2 10-2 6h-2l-2 8h-1l-1-9h-2v-2h-2l-1-3-2 1 2-4 9-11z" fill="#073D56"/>
<path transform="translate(414,145)" d="m0 0 3 2-3 4-1 7-1 6-10 4-6 4h-5l3-5 2-5 6-4-3-3 13-8z" fill="#71CA7E"/>
<path transform="translate(322,857)" d="m0 0 9 3 10 4 3 2-1 5-14 4h-3v-2h-3l-1-6z" fill="#063055"/>
<path transform="translate(998,395)" d="m0 0 5 3 3 5 2 9v12l-4-2-4-1-6-15 1-5z" fill="#2F9076"/>
<path transform="translate(814,637)" d="m0 0 4 5 3 4 3 19 4 12-1 9-2 3-3-1v-10l-4-18-6-17 1-4z" fill="#F8FBFD"/>
<path transform="translate(1109,361)" d="m0 0h2l4 7 2 1v-8h1l3 14 3 6v2h2l1 3-2 6-1-2-5-2-2-5-5-4-2-2-2-4-1-10z" fill="#4AAE7D"/>
<path transform="translate(155,521)" d="m0 0h1l2 24 3 16 6 7 2 7 1 9 1 28-2-3v-2h-2v-28l-2-8-3-3-7-2z" fill="#5CA0CE"/>
<path transform="translate(1380,419)" d="m0 0 4 1-8 15-13 20-7 11-2-1 1-7 8-14h2l8-16 6-8z" fill="#0B3A6E"/>
<path transform="translate(347,1039)" d="m0 0 21 1 29 1h67l-4 2-31 1h-50l-31-3z" fill="#D3ECFB"/>
<path transform="translate(1205,1042)" d="m0 0 5 1 1 4-8 12-6 4-3 3h-6l1-6 4-4 4-8 5-2 1-2h2z" fill="#03113F"/>
<path transform="translate(432,193)" d="m0 0 4 1v2h18l12 6 1 2-8-1v3l-1 2-11-3-10-1-5-1 2-1-1-5-2-1z" fill="#DAF1FE"/>
<path transform="translate(960,178)" d="m0 0 4 1 8 11 7 11 1 4 9 1v1l-9 2-2 3-2-1 1-3-2-4-8-6-6-10-1-2z" fill="#F5FAFD"/>
<path transform="translate(454,861)" d="m0 0 7 1-3 3-2 1 1 5-9 2h-20l-5-1 1-3 15-3 12-3z" fill="#0B386C"/>
<path transform="translate(1021,443)" d="m0 0h5l3 7 3 8 4 7v5l-4 4v-3l-6-1-2-7v-2l-3-16z" fill="#308E8D"/>
<path transform="translate(382,706)" d="m0 0h6l1 3 4 2 5 3 2 4-6 3-5 5-3 2-2 3-2-4 1-9 3-10-11 6-3-1 9-5z" fill="#91C8EB"/>
<path transform="translate(893,192)" d="m0 0 5 4v2l3 1 6 7 14 6 5 2 1 2 4 2-8 4-5-1-8-6-7-6-1-4h-2l-7-11z" fill="#6CC582"/>
<path transform="translate(316,526)" d="m0 0h1v8h2v24l-2 9-1 1h-5l-7-13v-3h-2l-1-3-1-14-1-6h2l2 6-1-6 5-1v2l8-1zm-6 7-4 2-1 2v17l2 4h2l2 8h4l2-4 1-15-2-13-1-1z" fill="#1D7A82"/>
<path transform="translate(1332,776)" d="m0 0 1 3-2 17-5 20-4-2-1-5v-11l3-9 4-3-1-2 2-2z" fill="#90CAED"/>
<path transform="translate(219,540)" d="m0 0 1 4-2 16-5 14-1 1v27l1 15-2-2-2-5-1-9v-26l1-3h2l2-10 4-18z" fill="#72B2D8"/>
<path transform="translate(367,225)" d="m0 0 12 1 10 5 5 4 5 9 5 3v2l-5-1-7-4v-2l-4-2v-2l-4-1-9-6-5-3z" fill="#56A86B"/>
<path transform="translate(1163,792)" d="m0 0h3l-2 5-4 7-3 7h-2l-2 6-3 3-4 1-2-1 1-5 6-11 8-9z" fill="#054C58"/>
<path transform="translate(502,770)" d="m0 0 5 2 16 14 4 4 9 1 2 2-4 3h-8l-11-9-13-13z" fill="#C8E6F9"/>
<path transform="translate(298,591)" d="m0 0h11l3 2-16 2-5 4-1 2h17l12 4 11 7 6 5 3 1 2 4v7l10-1-4 2-6 1-2-2-2-7-5-6-15-8-12-5h-18l2-7 6-4z" fill="#5DA1CF"/>
<path transform="translate(268,516)" d="m0 0h9l10 4 7 2 5 5-1 4-1-3-4-2h-9l-5-6-2-1h-9l-3 4-1 5-5 3-5-2-1-3-4-1-3-1h-12l2-2 3-1h9l7 5 5-1 3-4h2l1-4z" fill="#82BDE1"/>
<path transform="translate(284,1021)" d="m0 0h10l3 1 11 1v2h2l4 6-22-1-5-1v-4l-5-2z" fill="#062655"/>
<path transform="translate(451,1007)" d="m0 0h37v1l-31 2h-61l-20-1v-1z" fill="#4B8CBC"/>
<path transform="translate(56,714)" d="m0 0 5 1 3 5v9l-2 11-4-1-2-4-2-6v-12h2z" fill="#082D5A"/>
<path transform="translate(1194,736)" d="m0 0 2 2-1 4-6 4-2 4-4 2-3 5h-2v2l-7 6-4-2 7-9 3-5 8-7 5-4z" fill="#084C64"/>
<path transform="translate(149,961)" d="m0 0 13 5 10 6 9 5 1 7-4-2-5-2-1-3-5-1-7-2-11-10z" fill="#5296C5"/>
<path transform="translate(285,689)" d="m0 0h1v13l-2 12h-1v-5l-8 1-2 2-2-6 1-5 9-7z" fill="#043D4D"/>
<path transform="translate(317,506)" d="m0 0h1l1 20 2 13v24l-3 8-9-1-6-12v-6l2 3 6 12h5l2-9 1-24h-2l-1-8v-18z" fill="#90C7E9"/>
<path transform="translate(1187,1028)" d="m0 0h2l-1 7-6 7h-2l-1 3-6 5-4 4-5 1 1-5 11-12 9-9z" fill="#498ABB"/>
<path transform="translate(1273,956)" d="m0 0h3l-1 5-2 2v-2l-11 7-3 3h-2v2l-8 7-3 5-11 9-7 6-3-1 9-9 1-2h2l2-5 5-3 11-9 9-8z" fill="#316B9F"/>
<path transform="translate(166,941)" d="m0 0 5 2 12 7 18 10v3l-3 1-20-10-10-6v-2l-3-3z" fill="#125390"/>
<path transform="translate(556,1242)" d="m0 0h6l10 11 6 4-3 1-11-1-9-3 1-2-2-7z" fill="#072C58"/>
<path transform="translate(1312,774)" d="m0 0h1v11l-3 13-4 5-6 1 1-8 4-13h4z" fill="#8EC9EC"/>
<path transform="translate(460,341)" d="m0 0h2l1 6 8 7 5 3 10-1-4 4h-2l-1 2h-13l-4-2v-2h-2l-1-6 2-2-2-4-1-3h2z" fill="#4CA775"/>
<path transform="translate(253,609)" d="m0 0h15l1 5-2 2v-5l-4 2-3 6-5 1-6-3-1 2h-2l-2 5-5 5v-3l4-5 6-10z" fill="#0F6C7D"/>
<path transform="translate(1238,924)" d="m0 0 1 4-4 20-2 13-3 11-5 18-5 8h-4l2-4 7-18 3-7 3-12 3-17z" fill="#2A669A"/>
<path transform="translate(156,522)" d="m0 0h1l2 16 3 12 6 12 3 16v15h-1l-2-18-3-8-5-6-3-16-1-10z" fill="#1E7588"/>
<path transform="translate(456,320)" d="m0 0h11l7 5-2 4h-18l-6-2 2-4z" fill="#E0F3FD"/>
<path transform="translate(214,994)" d="m0 0 8 1 12 5 14 5 7 3v1l-9 1-10-4v-2h-7l-16-6z" fill="#155182"/>
<path transform="translate(230,666)" d="m0 0 4 1 7 4v2h2v2l5 2 2 7h-8v-2h-2v-2h-3l-7-8-1-5z" fill="#084256"/>
<path transform="translate(1112,469)" d="m0 0h1l1 7 6 3v4h-5l-2 4-6 2-2 2-1-3v-7l5-8z" fill="#73CA82"/>
<path transform="translate(761,174)" d="m0 0h6v2h13l-4 7-10 2-5-3-5-2 1-5z" fill="#A1D45F"/>
<path transform="translate(182,401)" d="m0 0 2 1-1 6-2 7-1 3-2 2-5 17-5-2 3-11 7-18 3-1z" fill="#0E5B68"/>
<path transform="translate(410,243)" d="m0 0 4 2 1 1-1 7-4 6-5 5-4-1 1-7 5-10z" fill="#F7FBFE"/>
<path transform="translate(655,1278)" d="m0 0 10 1 12 2 18 1v1l-16 1-7 2 2 3-12-1-3-2-2-2v-5z" fill="#082856"/>
<path transform="translate(255,1009)" d="m0 0 9 2 25 7 19 4v1h-11l-9-1-2-2-14-1-14-5-1-4z" fill="#134D84"/>
<path transform="translate(286,600)" d="m0 0 2 1-1 2 18-1 16 7 11 6 6 7 1 7h-2l-3-7v-3l-4-1-15-8-12-5h-17z" fill="#9ACFF0"/>
<path transform="translate(1150,292)" d="m0 0h6l-3 3-3 1-1 3-16 8h-3l-1-8h2v-2l5 1 1-3 10-2 3 1z" fill="#57A96C"/>
<path transform="translate(355,621)" d="m0 0 5 1 1 2 15 4 10 3-4 1h-7l-4 7-6 3v-3l3-2h3l1-6-3-1-2 1h-23l3-2h4v-2l9-1z" fill="#A8D6F5"/>
<path transform="translate(458,152)" d="m0 0 9 1 12 6 1 5-2 2-3-6-6-1h-4l1 4h-2l-2 5h-3l1-4v-8h-8l-6 2 3-3z" fill="#D1ECFC"/>
<path transform="translate(727,1046)" d="m0 0h1v10l1 16-2 7-1-3v-5l-4-3-1-9v-6z" fill="#0E3A69"/>
<path transform="translate(76,656)" d="m0 0h2l-3 11-6 21-1 5h-3-2v-9l7-16z" fill="#3272A5"/>
<path transform="translate(370,1032)" d="m0 0 22 1 5 1-4 2-11 2h-35v-1l14-1 10-2z" fill="#3970A3"/>
<path transform="translate(1085,948)" d="m0 0 12 8h7l4-3 8-1-1 3-10 6-3 1h-8l-8-10z" fill="#072C58"/>
<path transform="translate(1244,1010)" d="m0 0 1 3-11 18-3 5h-2v2h-2l-1 3-3-2 2-4 4-6 3-8 8-7z" fill="#276DA3"/>
<path transform="translate(522,311)" d="m0 0 5 2 1 1v9l-3 3-3 5-2 2h-3l-1-4 2-4 1-7z" fill="#4BA473"/>
<path transform="translate(1255,710)" d="m0 0 5 1 4 19 1 6-4 2h-4l1-6 1-2v-14l-5 1-7 8-3 2 2-4z" fill="#146478"/>
<path transform="translate(1040,435)" d="m0 0 13 1-1 12-1 2-5-2-1-3-8-4 2-5z" fill="#2C8E6E"/>
<path transform="translate(285,669)" d="m0 0 5 5v17l-2 24 3 10 5 6-1 3-4-5-3-2-4-10v-8l1-7 1-1 2-13v-13l-3-4z" fill="#5097C3"/>
<path transform="translate(256,1043)" d="m0 0 13 1 26 6 12 3 9 1 10 2v2l-10-1-42-8-17-4z" fill="#EDF8FE"/>
<path transform="translate(1308,746)" d="m0 0h5v19h-2v7l-1 2-4 1v-3l-2 3h-4l2-5 7-12 3-11-5 1z" fill="#61A6D2"/>
<path transform="translate(537,92)" d="m0 0h11l-4 3-5 3-9-1-13 5-8 4h-4v-2l7-3 3-3h2v-2z" fill="#99D264"/>
<path transform="translate(300,593)" d="m0 0h13l3 2h-8l2 5 1 2-21-1 2-4 4-3z" fill="#0A6877"/>
<path transform="translate(304,227)" d="m0 0 5 1 1 4-4 5-6 4-1-2-5 1-15 15v-3z" fill="#3C9468"/>
<path transform="translate(514,97)" d="m0 0 3 1h-2l-2 4-8 2v2l2 1-6 3h-2v-2l-8 3-3-1 1-1-2-2 15-6z" fill="#72CA7E"/>
<path transform="translate(1078,900)" d="m0 0 4 1-3 5h-2l-2 4-7 6-1 6h-1v-6l-3-1-2-5 6-2z" fill="#1D7487"/>
<path transform="translate(1250,680)" d="m0 0h3l3 16 1 7-2 2-7-1-2-2 1-5 5-7-1-4-2-1-1-4z" fill="#27819A"/>
<path transform="translate(417,1036)" d="m0 0h20v2l-15 2h-67v-1l43-1z" fill="#5CA3D1"/>
<path transform="translate(1324,760)" d="m0 0 4 1 2 7h2l-2 5-3 1-2 4-3-2v-2h-2v-2h-2v-2h2l-1-3 2-2h2z" fill="#072140"/>
<path transform="translate(328,1058)" d="m0 0h12l17 2 39 3v2h-15l-32-3-21-3z" fill="#EBF8FE"/>
<path transform="translate(322,867)" d="m0 0h1v6h3v2l9-3h32v1l-12 2-11 1h-24z" fill="#08366C"/>
<path transform="translate(242,684)" d="m0 0 4 1 16 10 6 7 8 20-1 4-4-10-1-3h-2l-4-10-2-4h-2v-2l-4-2-10-7z" fill="#61A6D2"/>
<path transform="translate(1313,747)" d="m0 0 2 3 2 19 1 5 2 4-2 4h-2l1 7-4-1v-23l-1-13z" fill="#0E4067"/>
<path transform="translate(933,231)" d="m0 0h8l3 4 1 6-3 1-6-1v2l-3-1-2-6v-4z" fill="#38986F"/>
<path transform="translate(426,195)" d="m0 0 1 3-1 5h5l-4 4-4 10-3 6-1-2 2-6-1-5-2-7-8-2v-1l12-1z" fill="#C8E8FC"/>
<path transform="translate(318,735)" d="m0 0 7 1 8 9 4 2 1 3-2 5-4-1-2-1-1 2-2-7 5 1-1-3-5-4-2-4h-8l-5 5-7-1-3-4 4 2h5l5-4z" fill="#064C65"/>
<path transform="translate(408,722)" d="m0 0 5 1 6 4 1 1 9 2v3l-4 2h-7l-9-9z" fill="#CBE8F9"/>
<path transform="translate(278,730)" d="m0 0 7 6v2l5 2 16 12 6 1v-7l5-2 7 1v1l-9 2-1 7-5 1-10-6-2-2-8-3-6-6-3-5z" fill="#2B7E9A"/>
<path transform="translate(588,835)" d="m0 0 2 2 2 7-19 5-5 2h-5l1-2 3-3 12-3 8-5z" fill="#144F87"/>
<path transform="translate(1131,377)" d="m0 0 5 2 1 1v5l-6-3 1 5 3 7-4 3-4-4-1-7v-3h-2l-1-5 5 4 2 1z" fill="#C8E8FC"/>
<path transform="translate(408,1033)" d="m0 0h64l1 4h-35v-1l19-1-49-1z" fill="#6AAED9"/>
<path transform="translate(1294,781)" d="m0 0 1 2-4 10-1 11-2 3-4-1-2-5-2-8 1-4 1 5 5 1v-2h2l3-10z" fill="#28838E"/>
<path transform="translate(1251,996)" d="m0 0 1 2-10 17-4 2-4 4h-2l-1 7-4 3 2-6 3-7 9-10 8-11z" fill="#08396F"/>
<path transform="translate(388,201)" d="m0 0h8l4 2 6-2h9l-2 4v7l-2-4-9-3v2h-7l-3-2-6-2z" fill="#DAF1FE"/>
<path transform="translate(716,1106)" d="m0 0 1 3-4 10-5 2h-9l6-7 5-4h2v-2z" fill="#051C48"/>
<path transform="translate(571,1252)" d="m0 0 24 8 16 4 1 3-11-1-19-5 2-2-9-3z" fill="#052351"/>
<path transform="translate(1168,277)" d="m0 0 5 2 4 6-16 8-2-2 6-7 1-5h2z" fill="#4DB07C"/>
<path transform="translate(425,142)" d="m0 0h4l-2 4-7 8-4 5h-2v2h-2l1-10 4-5z" fill="#54A86D"/>
<path transform="translate(606,1249)" d="m0 0 4 2 9 9 10 6 1 5 6 2-3 1-12-5-7-10-7-8z" fill="#073164"/>
<path transform="translate(1050,900)" d="m0 0 6 4 4 6-6 4-6 3-4 4-2-1 8-10-1-9z" fill="#A4D4F4"/>
<path transform="translate(474,735)" d="m0 0h3v2l3 1v3l-7 2v2l-2 1-1 2-7-7-2-4h9z" fill="#63A9D5"/>
<path transform="translate(349,1029)" d="m0 0h6l7 2 10 2-1 2-10 2h-18l1-2 8 1v-5h-3z" fill="#145692"/>
<path transform="translate(381,723)" d="m0 0 2 4h3l5-2-3 3-1 14-5 1-3-1 1-8z" fill="#258092"/>
<path transform="translate(1245,997)" d="m0 0h2l-1 6-12 14-4 4 1-8 8-11 4-3h2z" fill="#052450"/>
<path transform="translate(271,1025)" d="m0 0 7 1 26 5 17 3v1h-19l-11-3-14-3-6-3z" fill="#8EC3E4"/>
<path transform="translate(313,1023)" d="m0 0h19l30 5v2l-15-1-34-5z" fill="#EEF9FE"/>
<path transform="translate(1311,765)" d="m0 0h3v18h-1l-1-8-3 8h-4l-4 17-2 3 1-8 6-20 4-1z" fill="#64A8D4"/>
<path transform="translate(1283,720)" d="m0 0h1l1 12 2 10 3 7 4 4 1 5h-6l-3-6-2-11-2-10v-10z" fill="#054D65"/>
<path transform="translate(327,604)" d="m0 0 8 2 8 6-3 1h-2l-1 5-8-6-3-3-1-4z" fill="#084958"/>
<path transform="translate(877,263)" d="m0 0 4 2-1 6-4 5-7 2-1 2 1-13 5 1 2-2-1-2z" fill="#4BAF7D"/>
<path transform="translate(1221,284)" d="m0 0 11 4 7 1 8 4 1 4-3 1-26-12z" fill="#124B83"/>
<path transform="translate(944,236)" d="m0 0 3 2 1 7-1 2h-3l2 7h-4l-3-5-4-4 1-4h9z" fill="#45A987"/>
<path transform="translate(397,156)" d="m0 0h5v3l-6 4-3 7-6 2 1-10 5-4z" fill="#55AA6F"/>
<path transform="translate(63,686)" d="m0 0 1 4-1 3 4-3-1 17-5-2v-2l-3 1 1-8z" fill="#175995"/>
<path transform="translate(257,605)" d="m0 0h10l4 2v6l-2 1-1-4h-15l-4 2-2 4-1-2 1-7z" fill="#77B5DC"/>
<path transform="translate(443,142)" d="m0 0 6 2 1 6-4 1v2l5 1-5 4-3 3-3-4v-6l3-3-1-5z" fill="#71CA7F"/>
<path transform="translate(385,710)" d="m0 0h1l2 10 3 1 2-4 6-1 1 2-6 3-5 5-3 2-2 3-2-4 1-9z" fill="#61A6D2"/>
<path transform="translate(621,1184)" d="m0 0 4 1 5 4 6 1-5 5-5 4-2-1 1-5-4-2-1-1v-5z" fill="#0A4985"/>
<path transform="translate(1158,1061)" d="m0 0 3 1-1 6h-2l-2 4-8 8-4 2-7 8-4 2 6-7 10-11 7-10z" fill="#1F5E94"/>
<path transform="translate(1073,833)" d="m0 0 2 1-3 9h-2l-1 2-3 3h-2l-1 11h-1v-17z" fill="#12548D"/>
<path transform="translate(433,732)" d="m0 0 5 1 6 1 3-2 4 1-1 4-2 2h-4v2h-5l-7-6z" fill="#C8E6F8"/>
<path transform="translate(454,733)" d="m0 0 4 2 3 1 4 7h-2l-1 4-1 1-7-1-1-3 5-5-2-2-4 1-2-2z" fill="#0C6779"/>
<path transform="translate(277,730)" d="m0 0 5 5 4 6 5 4 7 3 9 6 6 1 1-7 2-1-1 9-1 1h-7l-5-2v-2l-5-1-11-8-9-10z" fill="#579ECC"/>
<path transform="translate(1271,961)" d="m0 0h2l-1 4-9 16-1-4 1-5h-6l5-5z" fill="#093D74"/>
<path transform="translate(1123,363)" d="m0 0 4 5 4 9-1 6-5-2-1-3h-2l-1-2v-6l3-2z" fill="#E5F5FD"/>
<path transform="translate(1306,771)" d="m0 0 1 2-6 22h-1l-1-13-4-1 2-4 2-2 5-1z" fill="#1D5E8E"/>
<path transform="translate(1220,755)" d="m0 0 2 2v8l-2 7-6 11-1-4 4-17 1-5z" fill="#064B64"/>
<path transform="translate(180,629)" d="m0 0 5 5 9 11 7 7 7 4 10 2 1 2-8-1-7-2-12-11-3-1v-2h-2v-2h-2l-3-5-2-3z" fill="#5B9FCC"/>
<path transform="translate(457,341)" d="m0 0h3v2h-2l4 6-1 3h-2l1 6-4-3v-2l-4-2v-6z" fill="#479869"/>
<path transform="translate(417,156)" d="m0 0 2 3v2h2v2l8-1-2 4h-10l-13 1 3-2 5-1-1-4 3 1v-2h2z" fill="#5EB777"/>
<path transform="translate(835,80)" d="m0 0 17 2 6 1v1l-5 1-15 1-4 2h-7l6-4z" fill="#F2FAFE"/>
<path transform="translate(486,1114)" d="m0 0 2 3 4 11 2 6 6 17 2 5-3-1-3-5-6-17-4-15z" fill="#083A6E"/>
<path transform="translate(286,525)" d="m0 0h7l5 5v5l-4 1-5-3-3-3z" fill="#E8F6FE"/>
<path transform="translate(1071,470)" d="m0 0 4 1h-2l3 5 8 6 9 7-2 1-14-5-2-5-2-4-3-3z" fill="#E5F5FE"/>
<path transform="translate(212,660)" d="m0 0h8l2 2 2 9-2 1-10-7-3-4z" fill="#A2D3F3"/>
<path transform="translate(425,193)" d="m0 0 1 4-4 3-16 2-8 2-2-2-8-1 2-2h11l13-1 10-2z" fill="#71CA7F"/>
<path transform="translate(318,737)" d="m0 0h6l5 7 4 3-1 3-4-1-6-4v-2h-5l-1-4z" fill="#062541"/>
<path transform="translate(369,629)" d="m0 0 4 2-2 6h-2l-1-4-7 3-10-2v-4h16z" fill="#C7E7FB"/>
<path transform="translate(319,543)" d="m0 0h1v17l-1 9-1 2-9-1-6-12v-6l2 3 6 12h5l2-9z" fill="#6EAFD9"/>
<path transform="translate(270,517)" d="m0 0h9l15 5 5 5-1 4-1-3-4-2h-9l-5-6-9-2z" fill="#9ACCEC"/>
<path transform="translate(1129,367)" d="m0 0 1 2h2l3 5 3 2 1 3v7l-5 1-1 3-3-4 1-4 6 3-2-6-4-2-3-9z" fill="#54B37D"/>
<path transform="translate(1033,461)" d="m0 0 3 4v5l-4 4v-3l-6-1-2-7 5-1h3z" fill="#3B9A86"/>
<path transform="translate(1456,371)" d="m0 0h4l-1 31h-1l-3-21z" fill="#174169"/>
<path transform="translate(451,198)" d="m0 0 10 1 6 4-3 1-5-1v3l-1 2-9-3v-2l-2-1z" fill="#E4F4FD"/>
<path transform="translate(947,658)" d="m0 0h7l1 3-12 9-2-4 1-5z" fill="#247997"/>
<path transform="translate(156,535)" d="m0 0h1l3 22 3 7 3 4-9-3-1-3z" fill="#4E91C2"/>
<path transform="translate(332,1034)" d="m0 0 11 1v2l37 1v1h-40l-12-2-7-1v-1h8l3 1z" fill="#4D8FBF"/>
<path transform="translate(65,714)" d="m0 0h1l3 23 1 9-6-2z" fill="#1C568C"/>
<path transform="translate(313,605)" d="m0 0 11 3 11 8 4 2 2 4v7l10-1-4 2-6 1-2-2-2-7-5-6-15-8-4-2z" fill="#5BA1CA"/>
<path transform="translate(863,253)" d="m0 0 6 2v19l-2 7-2-2-2-8 1-4h2v-11z" fill="#71C982"/>
<path transform="translate(469,158)" d="m0 0 6 1 3 5-1 4-3 2-6-4 1-6h-3l-1 2v-3z" fill="#F2FBFE"/>
<path transform="translate(838,1279)" d="m0 0h9v4l-10 2h-12l2-1v-2z" fill="#092857"/>
<path transform="translate(360,648)" d="m0 0h20l16 1-3 2-2 1h-11l-20-3z" fill="#83BEE4"/>
<path transform="translate(1061,843)" d="m0 0h1v17l-1 1-1 8h-1v-8h-2v2l-4 1v-4h3v-3l4-1-2-7v-3z" fill="#8CC7EB"/>
<path transform="translate(1128,459)" d="m0 0 2 1-5 11h-2l-1 3-3-3v-8z" fill="#3A9788"/>
<path transform="translate(1238,924)" d="m0 0 1 4-4 20-2 13-2 9-3 1 3-14 3-17z" fill="#276499"/>
<path transform="translate(286,600)" d="m0 0 2 1-1 2 18-1 9 4v2l5 2-2 1-14-6h-17z" fill="#9DD1F1"/>
<path transform="translate(832,250)" d="m0 0h1v7l-2 4v10l-3 2-2-9 1-9z" fill="#71CA7F"/>
<path transform="translate(431,1034)" d="m0 0h35l-1 2h-13l-18 1h-11v-1l7-1z" fill="#5399C9"/>
<path transform="translate(477,742)" d="m0 0h5l3 5-1 5-10-1-4-5 3-1v-2h2v6l3-1z" fill="#C8E6F9"/>
<path transform="translate(1155,261)" d="m0 0 7 6 9 10-1 2h-2-4l-6-10-2-5z" fill="#4EA673"/>
<path transform="translate(410,243)" d="m0 0 4 2 1 1-1 7h-1v-6h-3v2l-3 2-3 10 2 2-3 1-2-1 1-7 5-10z" fill="#DBF0FD"/>
<path transform="translate(1032,1140)" d="m0 0h2l1 7-6 5h-4v-6z" fill="#03123F"/>
<path transform="translate(516,270)" d="m0 0 7 1 9 9-1 2-5-1h-2l-4-5-4-4z" fill="#57AA6D"/>
<path transform="translate(457,330)" d="m0 0h12l-1 4-5 4h-3v-2l-4-1z" fill="#2A8C6A"/>
<path transform="translate(855,253)" d="m0 0h1l1 7 2 1-1 13-1 2h-3v-19z" fill="#F1FAFE"/>
<path transform="translate(604,1203)" d="m0 0h5l-2 5-5 4h-5l-1-4 3-3z" fill="#031340"/>
<path transform="translate(1214,715)" d="m0 0v3l-5 5-3 5-9 9-6 1 3-4h2l2-4 8-7z" fill="#145670"/>
<path transform="translate(661,1279)" d="m0 0 16 2 18 1v1l-16 1-7 2-2 1-6-6z" fill="#072C58"/>
<path transform="translate(450,375)" d="m0 0 3 1 2 3v4l-9 4h-1l1-8z" fill="#2C8C6D"/>
<path transform="translate(445,185)" d="m0 0 5 1 2 2-1 5h-7l-2 2h-5l6-7z" fill="#8ACA70"/>
<path transform="translate(397,718)" d="m0 0 5 1 3 3-7-1-5 5-1 4h-2l-2 13-2-1 1-14 4-4 4-5z" fill="#1A7682"/>
<path transform="translate(454,367)" d="m0 0 4 2-1 3-6 3-2 3h-2v-3l2-2h-10l2-2 9-2z" fill="#49A895"/>
<path transform="translate(419,154)" d="m0 0 4 2h6v2l4 1-7 4h-5v-2h-2l-1-5z" fill="#F0FAFE"/>
<path transform="translate(485,755)" d="m0 0 4 1 4 3v2l4 1 4 6-1 3-7-6-5-4z" fill="#BADEF4"/>
<path transform="translate(1259,727)" d="m0 0 1 3-3 8 9-2-1 4-4 1-4 2-3-3-1-4 3-6z" fill="#094F67"/>
<path transform="translate(470,322)" d="m0 0 8 2v2l3 1-12 5v-2h-17v-3l6 1h14l1-3z" fill="#41A689"/>
<path transform="translate(969,187)" d="m0 0 3 3 7 11 1 4 9 1v1l-9 2-2 3-2-1 1-3-2-4-3-3 4 1-2-5-2-1z" fill="#DDF1FD"/>
<path transform="translate(471,1160)" d="m0 0h12l5 2v3l-7 1-9-2z" fill="#0B4F8E"/>
<path transform="translate(302,1023)" d="m0 0h6v2h2l4 6-22-1v-1l12-1z" fill="#08386F"/>
<path transform="translate(858,362)" d="m0 0h26l18 1 7 1-2 2h-10l-16-2-23-1z" fill="#DAF0FD"/>
<path transform="translate(456,320)" d="m0 0h11l7 5-2 4h-18l-1-2 13-1 1-4-11-1z" fill="#BCE1F8"/>
<path transform="translate(743,1017)" d="m0 0 3 1-2 2-11 2-12 3-7 3-2 2-3-1 3-4 26-7z" fill="#062145"/>
<path transform="translate(377,733)" d="m0 0h2l1 9 5 3-3 3-4-1-3-3v-9z" fill="#054B63"/>
<path transform="translate(1316,605)" d="m0 0 2 1-3 10-3 4h-3l-1 2v-7z" fill="#09335A"/>
<path transform="translate(955,249)" d="m0 0h4l4 5 10 3 17 2-2 2h-9l-12-3-6-3-6-5z" fill="#EEF9FE"/>
<path transform="translate(402,224)" d="m0 0 10 3h5l-4 5-3 2-4-1-4-8z" fill="#C8E8FC"/>
<path transform="translate(1317,771)" d="m0 0 3 1v2h2l3 5-6 8-2 1-2-7h3l1-4-2-2z" fill="#072E5B"/>
<path transform="translate(1273,956)" d="m0 0h3l-1 5-2 2v-2l-11 7-3 3h-2v2l-3 1 2-4 8-7z" fill="#336FA2"/>
<path transform="translate(76,656)" d="m0 0h2l-3 11-3 9-5 1 1-5z" fill="#4A8ABA"/>
<path transform="translate(1089,517)" d="m0 0 7 2 3 6-13 1 3-6z" fill="#2A8D6A"/>
<path transform="translate(846,239)" d="m0 0 3 4v2h2l3 6v4l-3-1v-2l-4-2-1-1-8-1v-1l7-1z" fill="#E6F5FD"/>
<path transform="translate(1162,762)" d="m0 0v3l-6 6h-2l-2 4-5 5-5 2-4 2 4-5 11-9z" fill="#1E6781"/>
<path transform="translate(240,1014)" d="m0 0h6l11 3 5 3v2l-10-2-12-4z" fill="#0C427A"/>
<path transform="translate(399,650)" d="m0 0h6l1 4-5 2h-8l-2-1v-2z" fill="#D8EFFD"/>
<path transform="translate(375,631)" d="m0 0h7l9 3 5 4-12-2-2-1h-6l-4 3 2-6z" fill="#3D93A7"/>
<path transform="translate(156,486)" d="m0 0h1v16l-1 11v8h-1l-1-5v-20z" fill="#256F89"/>
<path transform="translate(654,1149)" d="m0 0h1v8l-4 13-1 7-4 2 3-13 1-1 1-8 2-3z" fill="#124E85"/>
<path transform="translate(237 1e3)" d="m0 0 7 1 11 4v1l-9 1-10-4z" fill="#134E85"/>
<path transform="translate(78,770)" d="m0 0 3 4 8 17v2l-4-2-3-6-5-11z" fill="#1E5A70"/>
<path transform="translate(275,709)" d="m0 0h8v5l-4 2h-3v6l-2-4v-8z" fill="#062D45"/>
<path transform="translate(318,534)" d="m0 0h1v24l-2 9-1 1h-5l-4-8v-2h2l3 8 3-1 2-12z" fill="#2F8894"/>
<path transform="translate(584,139)" d="m0 0 9 2 2 2-3 3-1 3-4-1-3-2z" fill="#E0F3FD"/>
<path transform="translate(825,695)" d="m0 0h2v2l3 1-2 9-2 4h-3v-7l1-1z" fill="#0B4F8E"/>
<path transform="translate(300,593)" d="m0 0h13v1l-15 2-4 4h14l3 2-21-1 2-4 4-3z" fill="#257F8E"/>
<path transform="translate(232,524)" d="m0 0h4l-2 4-11 11-1-2 2-6z" fill="#C3E5FA"/>
<path transform="translate(1023,376)" d="m0 0 8 6 6 5v4l-5 1-3-7-2-4-4-2z" fill="#3C9B8A"/>
<path transform="translate(1229,1021)" d="m0 0h2l-2 6-4 9-4 6-6 3 1-3 4-4 3-6 2-2 3-7z" fill="#073569"/>
<path transform="translate(1095,876)" d="m0 0h2l-2 4-12 13-13 12-2-1 9-9 8-7 9-10z" fill="#065168"/>
<path transform="translate(391,640)" d="m0 0 9 2v2l4 1v1l-11 1-4-3v-3z" fill="#055D6C"/>
<path transform="translate(426,193)" d="m0 0 5 1v2l3 1v5h-2l-1 2-5-1z" fill="#EDF9FE"/>
<path transform="translate(457,1191)" d="m0 0h14l2 1v4h-7l-10-3z" fill="#1D5A8E"/>
<path transform="translate(276,1015)" d="m0 0 18 4 14 3v1h-11l-9-1-2-2-6-1z" fill="#306C9F"/>
<path transform="translate(208,997)" d="m0 0 7 1 14 5-3 1v3l-6-1-3-4v-2l-8-1z" fill="#08356A"/>
<path transform="translate(1280,785)" d="m0 0 5 3 6-1 1-2-1 4-2 4h-2v2l-5-1-2-5z" fill="#CDE8F8"/>
<path transform="translate(154,545)" d="m0 0h1l1 21 7 2-4 2-4 1-2-3v-14z" fill="#76B7DF"/>
<path transform="translate(995,380)" d="m0 0 3 1 2 6v9l-2-1v-5l-8-5z" fill="#A5D6DF"/>
<path transform="translate(155,521)" d="m0 0h1l1 41 1 3 6 2-2 1-7-2z" fill="#5EA6D2"/>
<path transform="translate(972,190)" d="m0 0 5 3 5 6 2 6 2 1h-6l-5-10-3-4z" fill="#71CA7F"/>
<path transform="translate(290,723)" d="m0 0 5 4 4 4 7 3 8 1-3 2h-9l-2-2-4-1-4-7z" fill="#69AED9"/>
<path transform="translate(1255,710)" d="m0 0 4 1v5l-5 1-7 8-3 2 2-4z" fill="#065B6E"/>
<path transform="translate(222,662)" d="m0 0 4 2 3 6 4 5 4 3v2h3v2h2v2l-5-2-11-11-4-7z" fill="#4687B7"/>
<path transform="translate(1174,519)" d="m0 0 1 2-4 5-3 2-3 6-5 3-4 3 2-4 8-9 6-7z" fill="#14548F"/>
<path transform="translate(1197,1048)" d="m0 0 2 1-6 12 3 4-2 1h-6l1-6 4-4z" fill="#082F52"/>
<path transform="translate(452,155)" d="m0 0h8l1 4-1 5-4-3-8-3z" fill="#F4FBFE"/>
<path transform="translate(256,1043)" d="m0 0 13 1 11 3v2l-10-1-13-3z" fill="#E7F5FD"/>
<path transform="translate(640,1037)" d="m0 0h10l-3 2-16 4-7 1 2-1v-2l8-3z" fill="#95C0DB"/>
<path transform="translate(1253,887)" d="m0 0 1 3-9 17-2-1 2-5 3-9z" fill="#062541"/>
<path transform="translate(305,746)" d="m0 0 4 1 1 3h2l1-2v5l-5 1-7-5z" fill="#044455"/>
<path transform="translate(1281,732)" d="m0 0h1v5h2l2 7 2 10 1 3 4 2-5 1-3-6-4-16z" fill="#3F8EA7"/>
<path transform="translate(1128,386)" d="m0 0 4 1 3 7-4 3-4-4z" fill="#E4F4FD"/>
<path transform="translate(822,652)" d="m0 0 3 3 2 7v7l-2 2-3-10z" fill="#3778AA"/>
<path transform="translate(298,591)" d="m0 0h11l3 2-16 2-7 5 1-5z" fill="#7CBBE2"/>
<path transform="translate(155,510)" d="m0 0h2l3 13 1 11-2 1-3-13z" fill="#065269"/>
<path transform="translate(1103,499)" d="m0 0h1l1 5v7l-2 3h-7l-5-2 3-1h6z" fill="#EEF9FE"/>
<path transform="translate(474,735)" d="m0 0 3 1-3 3-5 1 1 4-5-1-4-6h9z" fill="#8DC6EA"/>
<path transform="translate(594,143)" d="m0 0 4 1 1 3-5 7-1-4h-5l3-1 1-4z" fill="#EAF7FE"/>
<path transform="translate(296,734)" d="m0 0h5l1 3 16-2-3 2-5 4h-5l-9-6z" fill="#4E94C2"/>
<path transform="translate(1283,720)" d="m0 0h1l1 12 2 10v10h-1l-2-11-2-10v-10z" fill="#066575"/>
<path transform="translate(259,661)" d="m0 0 17 1 3 1v2l6 2v2l-10-4-15-1z" fill="#65A6D1"/>
<path transform="translate(147,597)" d="m0 0h1l1 7 2 4-3 9-1 10h-1v-15z" fill="#A6D6F5"/>
<path transform="translate(387,164)" d="m0 0 2 1-2 6-6 3h-3v-2l-2-1 10-6z" fill="#71CA7F"/>
<path transform="translate(149,961)" d="m0 0 13 5 1 5-5-2-6-3-3-2z" fill="#66ABD7"/>
<path transform="translate(299,529)" d="m0 0h2l2 6 1 8v9h-2l-1-3-1-14z" fill="#4AA0A9"/>
<path transform="translate(1119,351)" d="m0 0 5 1-1 10-4-2-2-4z" fill="#FCFDFE"/>
<path transform="translate(388,201)" d="m0 0h8l2 4 4-1v3h-7l-3-2-6-2z" fill="#E0F3FD"/>
<path transform="translate(326,1073)" d="m0 0h6l2 2-5 3-10 1 4-5z" fill="#1D5A8E"/>
<path transform="translate(1212,473)" d="m0 0v3l-9 12h-4l4-6 4-5z" fill="#0E467F"/>
<path transform="translate(849,243)" d="m0 0 5 3 4 4-3 7-1 11h-1l-1-11v-3l2 1-3-10h-2z" fill="#71C97E"/>
<path transform="translate(1060,912)" d="m0 0 3 1 3 3 1 9-4-1-2-6-2-2z" fill="#CEEAFB"/>
<path transform="translate(214,884)" d="m0 0 12 1 5 2v2l9 2-4 1-22-7z" fill="#E8F6FE"/>
<path transform="translate(316,737)" d="m0 0 2 1-1 5h5v1l-9 2-8-2 1-2h5z" fill="#05465C"/>
<path transform="translate(383,711)" d="m0 0h1v7l-6 2-4-1 2-4z" fill="#074D65"/>
<path transform="translate(825,690)" d="m0 0 1 2-1 11-1 1-1 15h-1v-24z" fill="#306EA2"/>
<path transform="translate(370,1032)" d="m0 0h9v3l-7 2h-11l3-2 7-1z" fill="#2C6A9E"/>
<path transform="translate(1271,961)" d="m0 0h2l-1 4-3 5-1-2-5 1-3 3-3-1 12-9z" fill="#10528F"/>
<path transform="translate(335,642)" d="m0 0 6 1 2 4-1 1h-9l1-5z" fill="#529AC4"/>
<path transform="translate(1150,476)" d="m0 0h2l-2 4-5 5-5-2 4-5z" fill="#218273"/>
<path transform="translate(1052,418)" d="m0 0 9 4-2 7-4-2v-3h-2z" fill="#2A8D6A"/>
<path transform="translate(522,313)" d="m0 0 1 2h2l1 4-3 5-4 1-1-5z" fill="#3C9568"/>
<path transform="translate(240,1039)" d="m0 0 16 4v1h-5l-2 5-5-5-4-3z" fill="#4485B6"/>
<path transform="translate(674,1029)" d="m0 0 4 1-7 3-7 2h-6v2h-8l4-2z" fill="#4C8AB9"/>
<path transform="translate(224,1007)" d="m0 0 9 3 5 3 2 2-11-2-9-4z" fill="#1B5991"/>
<path transform="translate(1251,987)" d="m0 0h2l-2 7-3 3h-3v2l-5 2 1-4h2v-2l5-2 2-4z" fill="#07213F"/>
<path transform="translate(318,735)" d="m0 0 7 1 2 3-3-1h-8l-5 5-7-1-3-4 4 2h5l5-4z" fill="#1D6B89"/>
<path transform="translate(158,546)" d="m0 0 2 2 3 11 3 6-1 2-5-6-2-11z" fill="#376FA2"/>
<path transform="translate(364,177)" d="m0 0 2 1-2 4-3 2h-3l-1 3-4 2-4-1z" fill="#59B275"/>
<path transform="translate(1213,1044)" d="m0 0 2 1-3 6-5 5-4 5-5 3-2-1 5-4h2l2-5 5-6h2z" fill="#062247"/>
<path transform="translate(456,736)" d="m0 0 3 3-3 4-8-1 2-5z" fill="#06334D"/>
<path transform="translate(264,699)" d="m0 0 4 3 8 20-1 4-4-10-4-9-2-5z" fill="#4F95C2"/>
<path transform="translate(59,703)" d="m0 0h2v2l4-1v11l-7-7-1-4z" fill="#0C447D"/>
<path transform="translate(180,629)" d="m0 0 5 5 6 8v3h-2v-2h-2v-2h-2l-3-5-2-3z" fill="#73B0D9"/>
<path transform="translate(566,1249)" d="m0 0 4 2 8 6-3 1-10-2 2-2z" fill="#08356A"/>
<path transform="translate(1193,1084)" d="m0 0v3l-7 8-6 6-3-1h2v-2h2v-2h2v-2h2l1-4h2l2-4z" fill="#195C97"/>
<path transform="translate(466,1034)" d="m0 0h5v2l-3 1h-30v-1l19-1h8z" fill="#5DA6D3"/>
<path transform="translate(759 1e3)" d="m0 0 3 1-3 5-3 3h-2v-2l-4-3z" fill="#0E406E"/>
<path transform="translate(171,973)" d="m0 0 5 1 5 4 1 6-4-2-5-2v-2l4 1v-2l-5-2z" fill="#3D77A9"/>
<path transform="translate(166,970)" d="m0 0 6 2 1 3 4 2v2h-5v-2l-5-1-3-3h2z" fill="#4D8FC0"/>
<path transform="translate(182,401)" d="m0 0 2 1-1 6-2 7-2 3-1-4v-8l3-1z" fill="#066373"/>
<path transform="translate(1e3 257)" d="m0 0 5 1 1 4-2 2-6-1-2-4z" fill="#4DAE7B"/>
<path transform="translate(971,193)" d="m0 0 1 3 3 1 1 5-7-2-3-5z" fill="#EEF9FE"/>
<path transform="translate(537,92)" d="m0 0h11l-4 3-5 3-4-2 1-1-6-1v-1z" fill="#71CA7F"/>
<path transform="translate(420,647)" d="m0 0 7 1 1 5-1 1h-5l-2-2z" fill="#5691BF"/>
<path transform="translate(1130,490)" d="m0 0h7v4l-3 3-6-4v-2z" fill="#C8E8FC"/>
<path transform="translate(1052,444)" d="m0 0 1 3 4 1v8l-4-2v-2l-3-1z" fill="#399693"/>
<path transform="translate(1014,367)" d="m0 0h7l6 10 2 3-4-2-8-8z" fill="#F2FAFE"/>
<path transform="translate(1251,996)" d="m0 0 1 2-10 17-1-3 4-9 4-6z" fill="#0D4F85"/>
<path transform="translate(1217,997)" d="m0 0h2l-4 8-7 5-2-1 9-11z" fill="#1F6692"/>
<path transform="translate(1243,906)" d="m0 0 1 4-2 7h-2v3h-2v-7l4-6z" fill="#092C4B"/>
<path transform="translate(1282,801)" d="m0 0 2 4 2 7 3 2-2 5-4-4-2-5z" fill="#054D5A"/>
<path transform="translate(1332,769)" d="m0 0 1 3-5 9h-2l-1 3-3-2 5-8z" fill="#2F73A4"/>
<path transform="translate(368,715)" d="m0 0 2 1-14 8-5 3 2-5 7-4z" fill="#6EAFD9"/>
<path transform="translate(1135,397)" d="m0 0 1 2-2 7-2 3-6 1 3-5 2-3h2l1-4z" fill="#399686"/>
<path transform="translate(1247,682)" d="m0 0h2v3h4l-1 7h-3l1-5-6-1z" fill="#20738C"/>
<path transform="translate(303,552)" d="m0 0 2 3 5 10v4l4 1h-5l-6-12z" fill="#89C3E7"/>
<path transform="translate(299,532)" d="m0 0 2 3 1 14 1 6-2-1v-3h-2z" fill="#B8DFF9"/>
<path transform="translate(999,374)" d="m0 0 5 5 2 4-5 2-2 2-3-8 6 2-3-3z" fill="#D9F1FD"/>
<path transform="translate(1139,375)" d="m0 0 3 1 3 5-5 5h-1l-1-10z" fill="#489B6C"/>
<path transform="translate(462,373)" d="m0 0h6v3l-12 6 1-4h2l1-3h2z" fill="#43A786"/>
<path transform="translate(535,346)" d="m0 0 5 1 5 3 1 2-6 1-3-2v-2l-3-1z" fill="#3EA284"/>
<path transform="translate(273,659)" d="m0 0 6 1 4 3v3l-4-1v-2l-12-1 4-2z" fill="#A3D4F4"/>
<path transform="translate(239,521)" d="m0 0h9l7 5-2 1-7-3h-12l2-2z" fill="#5EA5C8"/>
<path transform="translate(362,442)" d="m0 0 1 4-2 16h-1l-1-15z" fill="#C3E3F6"/>
<path transform="translate(698,1022)" d="m0 0 4 1-16 6h-8l3-2z" fill="#3E7AAB"/>
<path transform="translate(384,734)" d="m0 0 2 1v8l-6-1 1-5z" fill="#5B9FCD"/>
<path transform="translate(262,695)" d="m0 0 3 1 5 7 1 6h2l1 8-2-3-4-8-2-5-4-4z" fill="#1C6F86"/>
<path transform="translate(1330,586)" d="m0 0h2l2 16v7h-2v-17h-2l-1 2z" fill="#1F5D8C"/>
<path transform="translate(630,1038)" d="m0 0h2v2l-6 1v2l-8 2h-3l1-3z" fill="#E8F5FC"/>
<path transform="translate(1315,750)" d="m0 0h2l1 5 2 5h2l-1 3h-4l-2-5z" fill="#07213F"/>
<path transform="translate(1114,494)" d="m0 0h10l10 4-1 3-3-2-9-2-7-2z" fill="#37948A"/>
<path transform="translate(1125,353)" d="m0 0h1l3 16 2 8-3-3-4-9v-3h2l-1-2z" fill="#C6E7FB"/>
<path transform="translate(442,187)" d="m0 0 2 1-6 6h11l-4 2-1 1h-8v-4z" fill="#7BCA79"/>
<path transform="translate(1046,1041)" d="m0 0 2 2-1 11-3 1 1-13z" fill="#031340"/>
<path transform="translate(1176,1038)" d="m0 0h3v2h-2v2h-2l-2 4-6 4 2-5z" fill="#4F94C4"/>
<path transform="translate(1232,949)" d="m0 0h1l1 9-3 12-3 1 3-14z" fill="#225E94"/>
<path transform="translate(322,857)" d="m0 0h1l2 11 3 1-1 4h-4l-1-6z" fill="#072945"/>
<path transform="translate(1291,804)" d="m0 0 3 3 2-1-1 9-2-4h-2l-2 2v-6z" fill="#064C64"/>
<path transform="translate(1314,766)" d="m0 0h1l1 16 1 7-4-1z" fill="#114E86"/>
<path transform="translate(1077,485)" d="m0 0 9 2 11 4v1h-7l-12-5z" fill="#F3FBFE"/>
<path transform="translate(315,747)" d="m0 0 1 2-1 7-1 1h-7l-5-2v-2h-2l-1-3 10 5h4l1-7z" fill="#5093C3"/>
<path transform="translate(899,457)" d="m0 0 5 1 2 3-7 2-3-1 2-4z" fill="#339091"/>
<path transform="translate(1217,1015)" d="m0 0 1 4-5 10-4 4 2-6h2l1-7z" fill="#104A82"/>
<path transform="translate(227,1006)" d="m0 0 10 3 2 3 3 2-7-1-5-3-4-3z" fill="#08356A"/>
<path transform="translate(1237,991)" d="m0 0 2 1-10 10-4 5h-2l2-4 5-6z" fill="#0E4B85"/>
<path transform="translate(1157,983)" d="m0 0 6 2-1 2-4 2h-5v-5z" fill="#07213F"/>
<path transform="translate(1061,843)" d="m0 0h1v17h-1l-2-10-2-3z" fill="#6BACD6"/>
<path transform="translate(1306,771)" d="m0 0 1 2-2 4-8 4h-2l2-4 2-2 5-1z" fill="#2D7C9F"/>
<path transform="translate(325,739)" d="m0 0 4 5 4 3-1 3-4-1-4-4h2z" fill="#053248"/>
<path transform="translate(169,595)" d="m0 0h1l1 17-2-3v-2h-2v-8z" fill="#3E88AC"/>
<path transform="translate(194,371)" d="m0 0h2l-3 9-5 9h-2l2-6z" fill="#27727D"/>
<path transform="translate(472,356)" d="m0 0 9 1 5-1-4 4h-2l-1 2-6-1z" fill="#43A788"/>
<path transform="translate(1020,157)" d="m0 0 5 1 10 6-4 1-6-3z" fill="#5BB375"/>
<path transform="translate(481,121)" d="m0 0 2 1-3 3 1 6-7-2-1-3z" fill="#EAF7FE"/>
<path transform="translate(601,1262)" d="m0 0 10 2 1 3-11-1-4-2h4z" fill="#05214C"/>
<path transform="translate(1233,933)" d="m0 0 2 1-2 11-2 1-1-2v-7z" fill="#07213F"/>
<path transform="translate(454,733)" d="m0 0 4 2 3 1 1 4-4-1-2-2-4 1-2-2z" fill="#104A7B"/>
<path transform="translate(1230,623)" d="m0 0 2 2-6 7-5 1 2-4z" fill="#0E4076"/>
<path transform="translate(454,367)" d="m0 0 4 2-1 3-5 2-3-4z" fill="#4BA574"/>
<path transform="translate(512,306)" d="m0 0 5 1v4l-7 3-1-5h2z" fill="#58AE79"/>
<path transform="translate(908,281)" d="m0 0 2 4v5l4-1-1 4h-12l4-2 3-2z" fill="#D7EEFC"/>
<path transform="translate(661,1137)" d="m0 0h4v2l-6 4-5 2 1-4z" fill="#4382B5"/>
<path transform="translate(1308,765)" d="m0 0 2 1-2 6h-2l-2 3h-4l2-5 4-1z" fill="#5093C3"/>
<path transform="translate(1334,609)" d="m0 0h1l2 15v6l-4-5 1-8z" fill="#236571"/>
<path transform="translate(872,525)" d="m0 0v3l-4 7-4 4-2-1zm-12 14 2 1-4 2z" fill="#3387A6"/>
<path transform="translate(299,521)" d="m0 0 5 1 1 5-2 2-5-5z" fill="#066575"/>
<path transform="translate(1138,381)" d="m0 0h1v5l-5 1-1 3-3-4 1-4 4 2 3 1z" fill="#4EA998"/>
<path transform="translate(960,186)" d="m0 0 3 4 6 10-4-2-5-5z" fill="#6EC784"/>
<path transform="translate(900,122)" d="m0 0 3 1-3 7-4 1 1-5z" fill="#71CA7F"/>
<path transform="translate(905,1264)" d="m0 0m-5 1h5l1 5h-9l-1-2h2v-2z" fill="#0D3C70"/>
<path transform="translate(326,739)" d="m0 0 7 6 3 2-1 3-4 2-2-2 3-1-1-3-5-4z" fill="#05485A"/>
<path transform="translate(824,725)" d="m0 0 4 3 2 4-3-1-1 3-3-1v-2l2-1-3-1v-3z" fill="#0A4E8C"/>
<path transform="translate(359,721)" d="m0 0 2 1-11 11-1-3 5-5z" fill="#11687B"/>
<path transform="translate(219,627)" d="m0 0 4 3v2h14l-2 2-8 1-6-3z" fill="#438EB3"/>
<path transform="translate(352,620)" d="m0 0 7 4 2 3h-10l3-5h-2z" fill="#0B5264"/>
<path transform="translate(213,617)" d="m0 0 4 1 3 6v3l-4-2-3-6z" fill="#80BCE2"/>
<path transform="translate(1123,369)" d="m0 0 3 1 3 9h-4l-2-4z" fill="#FBFDFE"/>
<path transform="translate(447,325)" d="m0 0 1 2 4 2v3l-5 1-2-4z" fill="#4AA474"/>
<path transform="translate(1217,277)" d="m0 0h2v5 3l-6-2-1-3z" fill="#124A7C"/>
<path transform="translate(462,159)" d="m0 0h3l1 4h-2l-2 5h-3l1-7z" fill="#CAE9FC"/>
<path transform="translate(271,1024)" d="m0 0h10l6 2v2l-9-1-7-2z" fill="#0C4781"/>
<path transform="translate(1251,894)" d="m0 0 1 2-5 12-3 2 1-5z" fill="#397BAF"/>
<path transform="translate(253,609)" d="m0 0h15v1l-14 2-5 1-1 2 1-4z" fill="#207D8B"/>
<path transform="translate(322,597)" d="m0 0 9 3 6 5v2l-4-1v-2l-5-2-6-4z" fill="#6BAED5"/>
<path transform="translate(1117,437)" d="m0 0 2 2v5l-5 3-1 9-2-2 2-10 3-2z" fill="#D5EEF9"/>
<path transform="translate(177,408)" d="m0 0h2v10l-2 1-2-1v2h-2l3-9z" fill="#196768"/>
<path transform="translate(418,156)" d="m0 0 10 4v2l-7 1v-2h-2z" fill="#DCF1FD"/>
<path transform="translate(727,1084)" d="m0 0 2 1v4h-2v4h-2l-1 2v-8z" fill="#5DA6D3"/>
<path transform="translate(267,1069)" d="m0 0 8 6 3 5v3l-7-7-4-5z" fill="#0C4071"/>
<path transform="translate(288,1021)" d="m0 0 9 1 5 1 1 4 2 1-4 1v-4l-13-3z" fill="#072C58"/>
<path transform="translate(163,974)" d="m0 0 4 1 5 2 2 3 4 2-2 2-13-9z" fill="#25659D"/>
<path transform="translate(1257,972)" d="m0 0h6l-1 10h-1l-2-8-5 3-2 1 2-4z" fill="#073465"/>
<path transform="translate(248,864)" d="m0 0 10 1 1 2-9 1-4-2h2z" fill="#62A8D5"/>
<path transform="translate(833,735)" d="m0 0 4 1v3l-6 2-1-3h-2v-2z" fill="#1A5D97"/>
<path transform="translate(397,718)" d="m0 0 5 1 3 3-7-1-5 4v-4z" fill="#257C93"/>
<path transform="translate(372,714)" d="m0 0 3 1h-2l-1 3h-2v2l-5 1-4-1z" fill="#127081"/>
<path transform="translate(193,642)" d="m0 0 5 2 4 5-3 2-5-5z" fill="#093452"/>
<path transform="translate(1072,475)" d="m0 0 4 3 1 7-4-1-2-5z" fill="#F5FCFF"/>
<path transform="translate(1258,407)" d="m0 0 2 1-2 5-5 5-2 1 2-5z" fill="#154E86"/>
<path transform="translate(1060,404)" d="m0 0 11 1v2l-2 1v2l-5-1z" fill="#52AE78"/>
<path transform="translate(456,317)" d="m0 0 10 1v2l-10 1-4 1v-2z" fill="#5DB677"/>
<path transform="translate(501,189)" d="m0 0 4 4 3 4-1 5-3 1-1-9z" fill="#65BD81"/>
<path transform="translate(1208,1031)" d="m0 0 1 3-8 12-1-4 6-8z" fill="#266599"/>
<path transform="translate(322,867)" d="m0 0h1v6h3v2l5-1-1 2h-10z" fill="#083568"/>
<path transform="translate(536,794)" d="m0 0h8l7 3-2 2h-5l-1-4-5 1z" fill="#195A95"/>
<path transform="translate(1143,780)" d="m0 0h2l-2 4-9 7v-3z" fill="#0A4C89"/>
<path transform="translate(821,695)" d="m0 0h1v24h-1l-1-9-1-4h2z" fill="#C5E5F8"/>
<path transform="translate(1263,665)" d="m0 0 3 2 1 8-2 2-3-6v-5z" fill="#2D849F"/>
<path transform="translate(232,624)" d="m0 0 4 2-3 4h-5l1-5z" fill="#C8E8FC"/>
<path transform="translate(188,387)" d="m0 0h2l-2 6-3 4-2 1 1-6 2-3h2z" fill="#0F6269"/>
<path transform="translate(1302,324)" d="m0 0 6 1v4l-1 2h-2v-3l-4-1z" fill="#0D3559"/>
<path transform="translate(1364,231)" d="m0 0h5l-1 3-5 1-7-1 4-2z" fill="#12334F"/>
<path transform="translate(864,222)" d="m0 0h6l1 3-1 2-7-1z" fill="#5EB170"/>
<path transform="translate(1219,1042)" d="m0 0v3l-6 9h-1l1-7 3-3z" fill="#083D76"/>
<path transform="translate(271,1025)" d="m0 0 7 1 14 3v1l-15-1-6-3z" fill="#6CACD5"/>
<path transform="translate(1338,740)" d="m0 0h1l-1 11-1 7h-1v-5l-2-1z" fill="#185072"/>
<path transform="translate(820,694)" d="m0 0h1v12l-3-1v-8z" fill="#F7FCFE"/>
<path transform="translate(1250,680)" d="m0 0h3l1 3v9h-1l-1-6-3-1-1-4z" fill="#3F90AE"/>
<path transform="translate(1092,513)" d="m0 0 7 1 1 2-5 1 1 2-5-1-1-3h2z" fill="#278388"/>
<path transform="translate(1123,378)" d="m0 0 5 4h3l-1 4h-2l-1 5h-1v-8h-2z" fill="#C4E6FA"/>
<path transform="translate(1118,368)" d="m0 0 2 2 2 6 2 7h2l-1 2-2-1v-2h-2l-2-5z" fill="#47AA87"/>
<path transform="translate(297,1103)" d="m0 0 4 2 8 9-1 2-5-5v-2l-4-2z" fill="#246271"/>
<path transform="translate(1055,905)" d="m0 0 3 1 2 4-6 4-2-1 2-2z" fill="#B3DCF8"/>
<path transform="translate(1284,806)" d="m0 0 5 1v6l-3 1-2-3z" fill="#06596D"/>
<path transform="translate(78,770)" d="m0 0 3 4 2 7-2 1-4-8z" fill="#1B5873"/>
<path transform="translate(317,744)" d="m0 0 7 1v1l-9 2-1 7h-1l-1-9z" fill="#2E7E9F"/>
<path transform="translate(383,708)" d="m0 0h3l-1 8-2-4-4 2-4-1z" fill="#1C6A92"/>
<path transform="translate(368,639)" d="m0 0 2 1-6 7 2 1h-6l1-4z" fill="#4597AC"/>
<path transform="translate(268,265)" d="m0 0h3v2l3 1-9 5v-3l3-4z" fill="#2B8C69"/>
<path transform="translate(977,204)" d="m0 0 12 2v1l-9 2-2 3-2-1 1-3z" fill="#E7F6FE"/>
<path transform="translate(425,193)" d="m0 0 1 4-4 3h-8l1-2 9-2z" fill="#6EC87E"/>
<path transform="translate(426,162)" d="m0 0 3 1-2 3h-9l-1-2z" fill="#63BB77"/>
<path transform="translate(472,157)" d="m0 0 6 1 2 2-1 6-2-2-2-4-3-1z" fill="#D6EEFD"/>
<path transform="translate(326,1132)" d="m0 0 4 2 8 7-2 2-10-9z" fill="#235E6D"/>
<path transform="translate(1216,1055)" d="m0 0 1 2-6 9-3-3 4-4h2z" fill="#5597C6"/>
<path transform="translate(1225 1e3)" d="m0 0h2l-4 8-5 2 2-5 3-1z" fill="#296C9C"/>
<path transform="translate(230,674)" d="m0 0 5 2 2 4h3v2h2v2l-5-2-7-7z" fill="#5EA2CF"/>
<path transform="translate(355,621)" d="m0 0 5 1 3 4v2h-12v-1l9-1z" fill="#66A9D5"/>
<path transform="translate(1325,593)" d="m0 0 3 1v7l-5-3z" fill="#061B46"/>
<path transform="translate(1332,417)" d="m0 0 5 1 3 4-1 2-5-2-2-2z" fill="#073155"/>
<path transform="translate(1e3 271)" d="m0 0 4 1 3 3-5 1h-3z" fill="#4BAF7D"/>
<path transform="translate(585,142)" d="m0 0 5 2 1 5-4-1-3-2z" fill="#77CB87"/>
<path transform="translate(1156,1059)" d="m0 0h2l-1 5-3 4-2-1 2-7z" fill="#03133F"/>
<path transform="translate(1062,926)" d="m0 0h5l-5 4-8 6-2-1 9-7z" fill="#A8D7F5"/>
<path transform="translate(1280,789)" d="m0 0 2 3v2l5 1 1-2-1 6-4-2-3-4z" fill="#4BA59F"/>
<path transform="translate(1299,783)" d="m0 0h3l1 4-2 8h-1z" fill="#0D6B7C"/>
<path transform="translate(470,749)" d="m0 0 4 1 5 4v2l-6-2z" fill="#0A4D6F"/>
<path transform="translate(317,746)" d="m0 0h7l3 5-1 2-1-4-7-1-3 4 1-5z" fill="#5FA3D0"/>
<path transform="translate(475,743)" d="m0 0 4 1-1 5h-4z" fill="#DEF4FE"/>
<path transform="translate(336,610)" d="m0 0 6 1 1 2h-5l-1 5-2-1-1-5z" fill="#093E54"/>
<path transform="translate(249,606)" d="m0 0h13v1l-14 2-1 2v-4z" fill="#99CFF0"/>
<path transform="translate(211,559)" d="m0 0h1v10h-3l-1-4z" fill="#094857"/>
<path transform="translate(500,315)" d="m0 0 5 1-2 2-3 1h-7l3-3z" fill="#4FB27D"/>
<path transform="translate(862,271)" d="m0 0 2 1 2 9-6-2v-2h2z" fill="#E4F4FD"/>
<path transform="translate(397,156)" d="m0 0h5v3l-2 2-4-1-1-3z" fill="#58B075"/>
<path transform="translate(414,153)" d="m0 0 5 1v2l-3 3h-2v2h-2l1-6z" fill="#57AC6F"/>
<path transform="translate(789,76)" d="m0 0 13 2-4 2-9-1-2-2z" fill="#F0FAFE"/>
<path transform="translate(1287,752)" d="m0 0h4l1 5 3 1h-6z" fill="#075B6E"/>
<path transform="translate(348,733)" d="m0 0h1v7l-5 6v-3z" fill="#187384"/>
<path transform="translate(320,733)" d="m0 0 6 1 4 4-7-2-9-1v-1z" fill="#66ABD7"/>
<path transform="translate(232,524)" d="m0 0 2 1-9 10h-2l1-4z" fill="#72B3DA"/>
<path transform="translate(1029,394)" d="m0 0 6 9-6-1-1-4z" fill="#379584"/>
<path transform="translate(390,170)" d="m0 0 4 2-4 2h-5l-2 1-2-2z" fill="#4BAF7D"/>
</svg>
