<?xml version="1.0" encoding="UTF-8"?>
<svg version="1.1" viewBox="0 0 1600 560" width="1010" height="354" xmlns="http://www.w3.org/2000/svg">
<path transform="translate(0)" d="m0 0h1600v560h-1600z" fill="#FBFCFC"/>
<path transform="translate(510,290)" d="m0 0h1l7 31 4 12 1 2 6-5h2l-1 8-5 16-11 17-6 11-4 17-2 9 10-1 4-6 3 1 1-3 1 2-12 22-15 22-9 11-8 8-7 8-13 11-12 9-15 10-25 13-23 9-18 5-19 4-22 3h-40l-31-5-24-7-16-6-25-12-16-9-14-10-13-11-8-7-10-10-7-8-10-12-2-4 11 2 25 5 17 2h40l29-3 26-5 24-6 35-11-2 4-8 9-2 3v13l-2 4-1 8-3 1-1 6-5 3-5 4-8 4v3l5-1 37-14 18-8 24-1 18-2 14-1 31-6h2v-12l6-12 5-8 1-10v-12l-1-7h-2l-4-7-2-3 1-4 3-8 1-9 8-7 14-10 28-24 15-14z" fill="#29558D"/>
<path transform="translate(581,106)" d="m0 0h14v28l-1 36-3 37-2 8h-2l-11-18-10-11h-2l-12 20-12 17-10 14-11 13-9 11-16 17-18 18-8 7-11 9-17 14-17 12-18 12-21 13-28 15-22 10-24 10-31 10-34 8-22 4-16 2h-56l-15-2-16-4-19-6-18-8-16-10-13-12-7-7-7-10-7-14-3-10-1-7v-17l4-18 6-15 2-1-4 16v14l3 12 8 16 8 10 10 8 17 10 15 6 23 6 23 3h47l18-2 23-4 31-8 31-11 21-9 25-12 25-14 25-16 16-12 13-10 15-13 10-9 7-6 7-8 16-16 8-10 9-11 13-17 16-24 10-17 2-3-5-2-25-12-7-3 1-3 24-9 27-8 22-5z" fill="#2A568D"/>
<path transform="translate(374,65)" d="m0 0 9 1 15 6 15 8 9 3 14 9 14 11 11 9 10 9 9 11v2l-15 7h-3v2l9 2 23 11 9 7 1 3-10 14-13 18-9 10-10 12-7 8-25 25-8 7-16 13-15 11-20 14-21 13-6 4-5-2-1-2v-15l1-2-1-9-1-8-1-1v-7l2-11 3-8 3-5 3-7 8-5 3-5-1-11 8-11 1-7-3-3-7-2-3-7 1-11-2-7 1-5 21 1-2-10-7-6-6-3 1-3h5v-3l9-1 1-5 3-4 3-5 6-2-3-5-2-3 1-4 4 1 4 4h3l-6-5-3-4v-2l-5 3-6-2-7-8-2-5 1-5 4-4v-7l-2-5v-3z" fill="#78AF73"/>
<path transform="translate(220,56)" d="m0 0 3 1-16 8-6 4h-2v2l6 1 10 6 1 6 7 4-3 5-5 2-5-3 3 5-2 4-5-1 2 4-4 1-10-5-3-2h-7l2-4 3-2 6-2 5-5 1-2-2-1-10-1-2 4-5 7-3 2 2 4-5 2-5 1-3 1-1-2-5 3-2 2 12 4 2 3 6-8-4 2v-3l3-2h13l7 6 2 2-2 5 5-1 3-3 3 1 5 10v4l5 2 6 9-3 6 2 1-2 4 5 2 2 6v6l-5-1-12-2-2-1 2-6 5-7-9 3-6 1v2l-5 1-3 4 2 5 7 2 1-3h2l1 5-17 9h-4l2-4h-3l-8 3-4 3v5l-10 4-5 5-4 8-1 7-9 8h-2l-2 4-4 5v9l1 6v9l-4 2-3-5-3-13-6-2-5-1-3 4-11-1-6 7-3 12v12l3 9 2 2 5-1 5-8h9l-1 5-2 5-2 12h8l5 5-1 7v10l3 5 3 2 8-1 6 4h2l3-7 7-5 5-2h3l-1 4-1 2 3-1 1-2 5 2 4 4 7 1 4 2 3-2 5 1 1 3 11 8 11 11 12 2 11 8 4 7 1 4-9 3-22 5-25 4-24 2h-29v-7l-1-5 2-9 3-5 3-4-1-14-5-8-2 1-2 4-8-6-6-5-4-12-6-5-8-6-5-6-7-2-8-9-5-9v-10l-1-10-1-2-1 5h-2l-1-30 5-23 5-13 8-16 8-14 13-18 9-10 7-8 14-13 14-11 6-3 4-1-1-2 19-11 14-8 21-8z" fill="#639B68"/>
<path transform="translate(313,419)" d="m0 0v3l-9 10-2 3v13l-2 4-1 8-3 1-1 6-2 1-12 2-9 5-2 13-6 7-6-1 2 4-6 2h-2v5l-5-1v2l5 2v8l1 2h2l4 7 11 5 13 1 9-1 20-5 34-3h21l9 2-1 2-19 5-33 5h-40l-31-5-24-7-16-6-25-12-16-9-14-10-13-11-8-7-10-10-7-8-10-12-2-4 11 2 25 5 17 2h40l29-3 26-5 24-6z" fill="#0C2146"/>
<path transform="translate(946,300)" d="m0 0h22l13 4 11 6 11 10 7 11 3 10 1 7v14l-3 11-6 12-9 10-8 6-11 5-13 3h-18l-12-3-14-7-10-9-7-11-4-12-1-6v-14l3-12 6-12 9-10 12-8 12-4z" fill="#132036"/>
<path transform="translate(510,290)" d="m0 0h1l7 31 4 12 1 2 6-5h2l-1 8-5 16-11 17-6 11-4 17-2 6-4 9-6 9-13 12-4 5-4 7-21 21-10 7-16 5h-5l1-5 3-3 1-12 2-6v-18l6-12 5-8 1-10v-12l-1-7h-2l-4-7-2-3 1-4 3-8 1-9 8-7 14-10 28-24 15-14z" fill="#15325B"/>
<path transform="translate(386,150)" d="m0 0 4 1 13 8 1 1v5l-6 4-8-1 1 5-7 8 1 4 1 2-8 10-1 1-7 1 1 3h9l8-5 15-3 12-1 6 2 3 12v4l7 3 7 4 6 4 8 3v-2h2l1-5 4-1 4 2-9 10-24 24-8 7-16 13-15 11-20 14-21 13-6 4-5-2-1-2v-15l1-2-1-9-1-8-1-1v-7l2-11 3-8 3-5 3-7 8-5 3-5-1-11 8-11 1-7-3-3-7-2-3-7 1-11-2-7 1-5 21 1-2-10-2-3z" fill="#4B868E"/>
<path transform="translate(1042,301)" d="m0 0h55l10 2 12 6 6 8 2 5v11l-3 9-7 8-4 2 11 6 7 8 3 8v8l-3 9-5 7-10 6-12 3-6 1h-56z" fill="#142137"/>
<path transform="translate(433,356)" d="m0 0h1v9l-3 8-1 4 5 7v3h2l2 7v12l-1 10-8 13-3 7-1 12-13 3-20 4-26 2-6 1-24 1-28 12-33 12-2-1 3-1-1-3 11-6 4-4 4-1 1-6 2-1 1-8 2-5v-12l8-10 5-6 9-3 32-14 16-8 17-9 28-17 15-10h2z" fill="#9CC5E2"/>
<path transform="translate(581,106)" d="m0 0h14v28l-1 36-3 37-2 8h-2l-11-18-10-11h-2l-12 20-12 17-10 14-11 13-6 7-2-3 2-2v-24l1-14v-8l4-21-6-1 2-5 7-11 11-18-5-2-25-12-7-3 1-3 24-9 27-8 22-5z" fill="#15325B"/>
<path transform="translate(75,203)" d="m0 0h3l3 6 12 7v2h3v2l4 2 5 5-7 7-4 14v12l3 9 2 2 5-1 5-8h9l-1 5-2 5-2 12h8l5 5-1 7v10l3 5 3 2 8-1 6 4h2l3-7 7-5 5-2h3l-1 4-1 2 3-1 1-2 5 2 4 4 7 1 4 2 3-2 5 1 1 3 11 8 11 11 12 2 11 8 4 7 1 4-9 3-22 5-25 4-24 2h-29v-7l-1-5 2-9 3-5 3-4-1-14-5-8-2 1-2 4-8-6-6-5-4-12-6-5-8-6-5-6-7-2-8-9-5-9v-10l-1-10-1-2-1 5h-2l-1-30 2-10z" fill="#2A5977"/>
<path transform="translate(777,147)" d="m0 0h18v106h-19l-1-73-16 21-12 16-7 9-3-1-12-16-16-21-6-8-1 73h-19v-105h19l8 10 13 18 14 18 3 3 10-14 14-19z" fill="#142136"/>
<path transform="translate(1339,148)" d="m0 0h20l14 19 12 16 10 14 9-11 13-18 14-19 1-1h19v105h-19l-1-74-13 18-13 17-9 12-5-4-12-16-14-18-6-8-1 73h-19z" fill="#132035"/>
<path transform="translate(1080,148)" d="m0 0h18l12 14 13 15 9 11 13 15 11 13 4 5 1-73h19v105h-18l-8-10-12-14-8-10-9-10-9-11-10-11-6-7-1 73h-19z" fill="#142136"/>
<path transform="translate(1197,301)" d="m0 0h18l5 10 7 16 7 15 10 21 8 18 5 10 6 13v3h-20l-9-20-2-4h-54l-10 23-1 1h-20l5-13 8-16 26-56 10-20z" fill="#142035"/>
<path transform="translate(868,148)" d="m0 0h19l5 8 16 36 9 19 8 16 6 14 4 9 1 3h-21l-10-23v-2h-55l-3 9-7 16h-20l2-6 14-30 16-35z" fill="#131F34"/>
<path transform="translate(993,146)" d="m0 0h25l12 3 12 6 6 5-2 4-9 10-16-8-7-2h-17l-10 3-9 6-7 9-3 9-1 5v9l3 12 5 8 9 8 12 4h18l13-4 5-3v-18l-26-1v-15h45v43l-10 7-13 6-16 3h-16l-16-4-13-7-10-9-6-10-4-12-1-6v-11l3-14 6-12 11-12 13-8z" fill="#132035"/>
<path transform="translate(724,300)" d="m0 0h25l12 3 13 7 5 4-2 4-9 10-12-7-9-3-6-1h-9l-12 3-10 6-6 7-4 8-1 3v20l5 12 7 8 9 5 11 3h11l15-4 7-4 1-19h-27v-15h44v43l-8 6-12 6-11 3-6 1h-18l-16-4-12-6-10-9-8-14-3-10v-22l3-11 5-9 9-10 11-8 13-5z" fill="#132035"/>
<path transform="translate(71,223)" d="m0 0h1v23h2v-7l3 4 1 11v9l6 10 6 7 8 3 7 8 9 6 3 3 4 12 12 10 5-5 4 5 2 4 1 14-3 4-4 8-1 8 1 7-1 2-17-1-18-4-14-5-4-4-9-30-6-28-1-7v-27l1-15 1-2z" fill="#9CC5E2"/>
<path transform="translate(945,317)" d="m0 0h20l11 4 9 7 6 9 3 11v13l-4 12-6 8-7 6-13 5h-19l-12-6-8-8-5-10-2-6v-17l4-10 6-8 8-6z" fill="#FAFCFC"/>
<path transform="translate(1211,148)" d="m0 0h19l1 65 4 12 7 8 7 3 5 1h12l11-4 6-5 4-10 1-8 1-62h18v70l-4 13-6 10-7 6-13 6-9 2h-13l-16-3-10-5-9-8-6-10-3-11z" fill="#131F34"/>
<path transform="translate(107,435)" d="m0 0 11 2 25 5 17 2 35 1 3 7 5 8 7 21 9 16 7 10-5 5v1h-13l-10-3-6-2-16-8-15-10-22-18-13-13-7-8-10-12z" fill="#29558D"/>
<path transform="translate(220,56)" d="m0 0 3 1-16 8-6 4h-2v2l6 1 10 6 1 6 7 4-3 5-5 2-5-3 3 5-2 4-5-1 2 4-4 1-10-5-3-2h-7l2-4 3-2 6-2 5-5 1-2-2-1-10-1-2 4-5 7-3 2 2 4-5 2-5 1-3 1-1-2-5 3-2 2 12 4 2 3 6-8-4 2v-3l3-2h13l7 6 2 2-2 5 5-1 3-3 3 1 5 10v4l5 2 6 9-3 6 2 1-2 4 5 2 2 6v6l-5-1-12-2-2-1 2-6 5-7-9 3-6 1v2l-7 1-7-1 1-3-6 1-6-2-6-8-3-11-1-8-3-2-1-3-7-4h-2v-2h2v-2l-9-1-8-3 5-5 12-9 7-1-1-3 19-11 14-8 21-8z" fill="#7AB074"/>
<path transform="translate(282,44)" d="m0 0h24l28 3 20 4v2l-12-2v3l-9-3-10-2 1 1-1 3-4 3-5 1 2 4-6 7 1 4 2 3-3 3-8 3-9 2-11 7-7 2-10 15-3 4h-5l-7-3-6-9-3-6v-9l7-5 1-2-5 2-1-3 4-1-5-2 1-5-3-5-1-1h-13l-2-4 21-9 26-4z" fill="#AFD36B"/>
<path transform="translate(426,445)" d="m0 0h1v9l-2 6-1 12-5 6-5-1-5 2-21 4-27 4h-33l-18-1h-13l-9 1h-13l-5-1 1-11 10-6 3-1h7l-1 3-8 5-5 2v3l5-1 37-14 18-8 24-1 18-2 14-1 31-6h2z" fill="#4E7BAC"/>
<path transform="translate(510,290)" d="m0 0h1l7 31v7l-3 7-5 5h-2v2h-2l-2 4-9 9-13 9-17 10-7 4-13 5-6 1-1 6-1-3h-2l-4-7-2-3 1-4 3-8 1-9 8-7 14-10 28-24 15-14z" fill="#2A568C"/>
<path transform="translate(1286,301)" d="m0 0h19l1 90h56v17h-76z" fill="#152338"/>
<path transform="translate(91,160)" d="m0 0 2 1-1 3 3 5 7 3 8 7 7 4 9 6 3 1 3-1 12 3 2 2 6 2 1 2v7l-8 7h-2l-2 4-4 5v9l1 6v9l-4 2-3-5-3-13-6-2-5-1-3 4-10-2-1-3-7-5v-2h-3v-2l-5-2-9-6-1-5h-3l-1 2 1-7 4-14 9-19z" fill="#4B7F84"/>
<path transform="translate(809,301)" d="m0 0h19l1 89 56 1v16h-76z" fill="#142136"/>
<path transform="translate(145,327)" d="m0 0 6 4 5 1 17 9 27 7 12 1h12l9 5 5-1-1-6-4-4v-2l-6-1v-2h-9l-2-4 10 2 7 3 9 7 4 8-1 3-25 6-30 5-24 2h-29v-7l-1-5 2-9 3-5 3-4v-12z" fill="#2A568D"/>
<path transform="translate(386,150)" d="m0 0 4 1 13 8 1 1v5l-6 4-8-1 1 5-7 8 1 4 1 2-8 10-1 1-7 1 1 3h9l8-5 15-3 12-1 6 2 2 9-2 1-1 9-15-4-7-1v3l-8 1-13 4-2-1 2-4-11 7-3 3h-2v2l-4-1v-6l8-11 1-7-3-3-7-2-3-7 1-11-2-7 1-5 21 1-2-10-2-3z" fill="#6CA093"/>
<path transform="translate(421,204)" d="m0 0h3l-1 6 4 3 8 3 9 6 8 3v-2h2l1-5 4-1 4 2-9 10-12 12-8 2-5 1h-3v-2l-3 1v-2l-6 1-1-1-11 1-10-1-1-1-10-1-7-2h-4v-2l-8 1-5-1v-3l-3-1 2-7h2v-2l14-10h2l-1 4 17-5 5 1v-3h7l11 3h3l1-7z" fill="#538C89"/>
<path transform="translate(75,203)" d="m0 0h3l3 6 12 7v2h3v2l4 2 5 5-7 7-4 14v12l3 9 2 2 5-1 5-8h9l-1 5-2 5-2 12h8l5 5-1 7v10l4 8-1 2-5-1-3-3-4-12-6-5-8-6-5-6-7-2-8-9-5-9v-10l-1-10-1-2-1 5h-2l-1-30 2-10z" fill="#264364"/>
<path transform="translate(403,165)" d="m0 0 5 1 4 6 7 6 9 6 2 2-1 5-8 1v2l5 2 7 5-1-8 2-2-1-8h5l6 5 8 12 1 1 2-4h2l-3-5-5-5v-3l3-2 4 1 2 1 1 5 5 10-1 3-8 4-11 1 1 5 5 2h1v11l-9-3-8-6-9-3-3-3 1-6-2-3v-6h-5l-4-1-21 3-8 4-3 2h-9l-2-4 1-1 7-1 8-10-2-3 1-5 6-7v-4h8z" fill="#FBFCFC"/>
<path transform="translate(374,65)" d="m0 0 9 1 15 6 17 9 2 3v5l-5 3-2 10 3 1v2l-4 4 4-1v2h-3l4 7-1 5-11 2-9-3v-2h3l-5-6-5-5-1-3-5 3-6-2-7-8-2-5 1-5 4-4v-7l-2-5v-3z" fill="#9ECC70"/>
<path transform="translate(496,412)" d="m0 0 1 4-7 9-10 9-5 6-4 7-21 21-10 7-16 5h-5l1-5 3-3 1-12 2-6v-18h2l1-2 4 1 9 1 7-2 16-8 11-4 10-3 4-3h3z" fill="#0C2145"/>
<path transform="translate(473,148)" d="m0 0 7 1 15 8 8 6 1 3-10 14-13 18-9 10-8 10h-7l-2 1-1 4h-2l-1 2-1-10-5-2-2-4 1-2 11-2 8-4-3-16 2-6 2-1 2-5 3-1-5-3 1 4-5-2 2-9 5-6 6-2z" fill="#649C6A"/>
<path transform="translate(517,323)" d="m0 0 2 1 4 11 6-5h2l-1 8-5 16-1-3-8 7-4 7-7 6-10 5-5 5-3 4-2 4-10 2-18-1-9 3h-8l-2 1v-10l7-2h3l1-2 12-4 11-7 13-8 12-9 8-8 1-2h2v-2l5-5h2l1-4z" fill="#243F61"/>
<path transform="translate(434,418)" d="m0 0h2l-2 5-5 8-2 5-1 12-13 3-20 4-26 2-6 1h-24l4-3 22-12 19-12 5-3 22-3 18-4z" fill="#7FAFC2"/>
<path transform="translate(73,309)" d="m0 0 1 2 9 2 4 2 7 9 20 20 8 7 11 10 5 2-1 6-17-1-18-4-14-5-4-4-9-30-2-9z" fill="#80B0C3"/>
<path transform="translate(1423,345)" d="m0 0h10l11 13 11 14 6 7 1-34h10v52l-1 1h-8l-9-10-10-13-10-12-1 34-1 1h-8l-1-1z" fill="#17273E"/>
<path transform="translate(542,253)" d="m0 0h1l3 31v24l-2 18-7 9h-2l-1-18-8 6-3-1-4-23-4-9v-6l7-7 7-8z" fill="#16345C"/>
<path transform="translate(1060,362)" d="m0 0h41l8 3 5 6 1 7-4 8-4 3-6 2h-40l-1-1z" fill="#FAFBFC"/>
<path transform="translate(313,419)" d="m0 0v3l-9 10-2 3v13l-2 4-1 8h-1l-1-6-4 2-21 2-14 3-9-3-5-6-1-7 11-6 1-3 24-6z" fill="#14315A"/>
<path transform="translate(534,316)" d="m0 0h1v19l8-8-1 11-5 21-9 27-6 14h-2l-1 2h-3l-4 6h-10l1-9 4-17 9-16 8-12 5-16 2-8-5 3 2-4 3-5 2-7z" fill="#80B0C3"/>
<path transform="translate(520,399)" d="m0 0 1 2-12 22-15 22-9 11-11 11-10 3h-8l-10 2 2-4 8-7 15-15 5-9 11-11 5-4 7-11 2-6 1 3 10-1 4-6 3 1z" fill="#4C79AA"/>
<path transform="translate(1060,318)" d="m0 0h38l8 5 2 6v7l-4 6-6 3-7 2h-30l-1-1z" fill="#F5F8FA"/>
<path transform="translate(1509,344)" d="m0 0h12l10 3 6 5-2 4-3 3-5-2-7-3h-8l-8 3-5 6-2 6 1 8 4 7 7 4h11l7-3 5-2 5 5-2 4-12 6h-17l-10-5-6-7-4-10v-9l4-10 5-6 8-5z" fill="#16253C"/>
<path transform="translate(366,278)" d="m0 0h9l6 4h8v3l-15 11-30 19-5-2-1-2v-15l2-3 2-7 2-5z" fill="#426E94"/>
<path transform="translate(508,307)" d="m0 0h3l3 16-1 4-5 5-5 11-5 7-7 4-12 3-11 9-7 1-4 2-2-1 15-15 7-8 10-12 9-11 10-12z" fill="#2A5976"/>
<path transform="translate(414,476)" d="m0 0h4v4l-8 4-17 4-13 3-21 3h-23l-21-1-5-1-19 1h-10l-10-2-1-5h18l17-1h13l18 1h25l27-4 21-4z" fill="#406C92"/>
<path transform="translate(249,75)" d="m0 0 11 1 5 1 11 1 2 5v5l1 2-5 3-9 14-3 4h-5l-7-3-6-9-3-6v-9l7-5 1-2-5 2-1-3z" fill="#9FCC6F"/>
<path transform="translate(412,193)" d="m0 0 9 2 2 9-2 1-1 9-15-4-7-1v3l-8 1-13 4-2-1 2-4-11 7-3 3h-2v2l-4-1v-6l8-11 3-8 2 1 1 3h9l8-5 15-3z" fill="#6DA095"/>
<path transform="translate(91,163)" d="m0 0h3l2 5 7 1 5 3v-2h4 3 3 3v2l6-1 5 2 4-1 2 1h9l5 2v2l5-2 2 4 6 3-6 7-4 8-1 7h-1l-1-8-7-2-3-2-12-2-2 1-10-6-5-4-5-3-7-6-7-3z" fill="#5C947E"/>
<path transform="translate(877,169)" d="m0 0 3 4 15 32 3 6v2h-40l1-5 16-35z" fill="#F7FAFB"/>
<path transform="translate(220,56)" d="m0 0 3 1-16 8-6 4h-2v2l6 1 10 6 1 6 7 4-3 5-5 2-5-3 3 5-2 4-5-1 2 4-4 1-10-5-3-2h-7l2-4 3-2 6-2 5-5 1-2-2-1h-13l-9 3 2-6 3-5 5-4 16-8z" fill="#8FC370"/>
<path transform="translate(1204,324)" d="m0 0h2l10 21 7 14 2 7h-39l1-5 15-32z" fill="#F9FBFC"/>
<path transform="translate(301,435)" d="m0 0h1l1 7 29 1 2 3-15 10-4 2-1 2 8 1 1 4-27 11-20 7-2-1 3-1-1-3 11-6 4-4 4-1 1-6 2-1 1-8 2-5z" fill="#7FAFC2"/>
<path transform="translate(180,74)" d="m0 0 3 1-5 8-1 2 4-3 8-1-2 4-5 7-3 2 2 4-5 2-5 1-3 1-1-2-5 3-2 2 12 4 3 8-1 5-2 2h-3l-2-6-2-1-1-3-7-4h-2v-2h2v-2l-9-1-8-3 5-5 12-9 7-1-1-3z" fill="#7BB172"/>
<path transform="translate(344,522)" d="m0 0h23l9 2-1 2-19 5-33 5h-40l-12-2-3-4 15 1 9-1 20-5z" fill="#18365F"/>
<path transform="translate(470,172)" d="m0 0 6 2 2 1-1 2-6-2 2 8 2 4 5 1-1 4 5 1-6 9-8 8-6 8h-7l-2 1-1 4h-2l-1 2-1-10-5-2-2-4 1-2 11-2 8-4-3-16 2-6 2-1 2-5z" fill="#5D947E"/>
<path transform="translate(75,203)" d="m0 0h3l3 6 12 7v2h3v2l4 2 5 5-7 7-5 2-3 1-1 3-6-2-6-1-3 9h-2l-1-30 2-10z" fill="#2B5A77"/>
<path transform="translate(501,299)" d="m0 0h2l-1 7-6 8-8 9-12 16-18 20-1-2-4-1h-7l-1-3 5-5 12-11 7-9 10-9 8-7 10-9z" fill="#2A5977"/>
<path transform="translate(415,81)" d="m0 0 5 1 15 9 8 6v6l1 4-15 2-8 4-3 3h-2l-1 2-4-4-1-4h3v-2l-4 1 2-4h2v-2l-3 1-1-4 2-8 5-3v-5z" fill="#8EC271"/>
<path transform="translate(534,316)" d="m0 0h1v19l8-8-1 11-5 21-3 10-10-1-7 1-4 6-1-2 11-18 4-10 4-15-5 3 2-4 3-5 2-7z" fill="#9AC4E1"/>
<path transform="translate(510,290)" d="m0 0h1l2 13-5 5-7 9-9 11-11 13-7 8-11 12-8 8h-5l2-4 9-10 7-8 9-10 12-16 9-10 4-7v-6z" fill="#4A7F84"/>
<path transform="translate(1395,345)" d="m0 0h10v53h-9l-1-1z" fill="#18273D"/>
<path transform="translate(69,403)" d="m0 0 5 2 16 8 29 11 23 5 15 2 41 1v3h-40l-24-2-12-2-24-8-11-6-16-11z" fill="#346094"/>
<path transform="translate(527,271)" d="m0 0h3l1 4-1 9-1 22-2 9 3 2 2 2-6 4-3-1-4-23-4-9v-6l7-7z" fill="#2B5979"/>
<path transform="translate(353,235)" d="m0 0 2 3-5 15-2 10-4 13 2 1-3 9-2 7h-1l-3-16-1-1v-7l2-11 3-8 3-5 3-7z" fill="#5381AF"/>
<path transform="translate(192,507)" d="m0 0 6 2 10 3h12l3-4 4-1 15 15 7 4 12 3v1l-9 1-24-7-16-6-19-9z" fill="#17365F"/>
<path transform="translate(350,103)" d="m0 0 2 4h6l-1 6 10 11 7 3-1 9-14 2h-5l1-3h2l-1-3-2-1 1-6 1-3-6-3-4-6v-5z" fill="#7AB073"/>
<path transform="translate(430,383)" d="m0 0 5 1 1 5-12 11-14 11-8 6-2-1-5-2-4-1 15-11 12-9z" fill="#FBFCFC"/>
<path transform="translate(413,160)" d="m0 0 13 4 5 4 3 5 6 5 5 2h4v3l2 1h-2l3 5 5 5v3l-2 1-1 5-4-4-7-11-5-4h-5l-2 1-1-7-8-6-9-9z" fill="#6FA292"/>
<path transform="translate(139,350)" d="m0 0 3 3h10l5 3 2 2 1 6h-2l2 3 11 1v1l-5 1h-29v-7l-1-5z" fill="#264366"/>
<path transform="translate(125,293)" d="m0 0 1 4v6h2l1-4 4-1 7 3 8 1 3 5-3 9-3 1-6-4-8 1-5-5-2-3v-10z" fill="#9BC4E1"/>
<path transform="translate(394,90)" d="m0 0 8 10 9 3h2v2l-4 4 4-1v2h-3l4 7-1 5-11 2-9-3v-2l7-3 1-5-2-4 1-6-6-7z" fill="#FCFDFD"/>
<path transform="translate(680,365)" d="m0 0 1 2h2l5 12 6 11 6 5 5 2 12 4 13 2 3 2v2l-12 1-10-3-12-6-10-9-8-14-2-9z" fill="#18345A"/>
<path transform="translate(1530,383)" d="m0 0 4 2 3 3-2 4-12 6h-17l-5-2 1-2h3v-2l5-2h11l-1-2 7-3z" fill="#17345B"/>
<path transform="translate(122,427)" d="m0 0h9l26 4 41 1v3h-40l-24-2-10-3z" fill="#214370"/>
<path transform="translate(515,403)" d="m0 0 1 3-11 18-11 16-4 5-5 2 1-6 8-11 5-10 8-7z" fill="#0E2549"/>
<path transform="translate(458,203)" d="m0 0 2 1-1 5 3 3 5 1-3 5h-7l-2 1-1 4h-2l-1 2-1-10-5-2-2-4 1-2 11-2z" fill="#71A49C"/>
<path transform="translate(384,95)" d="m0 0h2l1 2h3v-2h2v7l1 4h6l3 5-1 5-2 2-4-1-7-6-5-7 1-4-1-3z" fill="#8FC370"/>
<path transform="translate(350,103)" d="m0 0 2 4h6l-1 6 5 6-2 2-2 10h-4l1-6 1-3-6-3-4-6v-5z" fill="#8BBF71"/>
<path transform="translate(109,262)" d="m0 0h9l-1 5-2 5-1 6-2-3h-2l-2 4-6 1-2-1v-7l6-4z" fill="#305D8F"/>
<path transform="translate(270,475)" d="m0 0h1v8l-2 6-5 6-10-1-4-1-1-2 5-5 8-3 7-2z" fill="#14315A"/>
<path transform="translate(870,223)" d="m0 0h11l8 1 1 1 14 1v2h-53l1-2 8-1 3-1z" fill="#14315A"/>
<path transform="translate(167,305)" d="m0 0 5 2 4 4 7 1 2 3-7 2-4 1-12-2v-9h4z" fill="#315D90"/>
<path transform="translate(520,399)" d="m0 0 1 2-12 22-15 22-3 2-1-3 10-14 15-24 1-5 3 1z" fill="#3B689B"/>
<path transform="translate(360,300)" d="m0 0 2 1-2 4-16 10-5-2-1-7 2-1 9-1z" fill="#2E5A90"/>
<path transform="translate(531,267)" d="m0 0 2 1v10l-1 11v26l1 3-7-1 1-7 1-4 1-24 1-11-2-1z" fill="#244061"/>
<path transform="translate(128,256)" d="m0 0h9l13 9 6 4v2h-11l-3-5v-2l-10-4h-7l1-3z" fill="#396983"/>
<path transform="translate(342,118)" d="m0 0h7l3 5v8l-4 1h-7v-7h-2l2-4z" fill="#8EC171"/>
<path transform="translate(159,107)" d="m0 0 10 1 4 2 2 7-1 5-2 2h-3l-2-6-2-1-1-3-6-4z" fill="#8FBD86"/>
<path transform="translate(703,396)" d="m0 0 14 5 13 2 3 2v2l-12 1-10-3-10-5-1-2z" fill="#153055"/>
<path transform="translate(999,157)" d="m0 0 9 1 7 3-2 2-16 1-11 3v-3l5-5z" fill="#18365F"/>
<path transform="translate(320,88)" d="m0 0h7l3 5-4 4-8 1-5-5-1-4z" fill="#AED36B"/>
<path transform="translate(988,247)" d="m0 0 12 1 4 2v3l8 1v1h-16l-10-2 2-2z" fill="#204067"/>
<path transform="translate(161,432)" d="m0 0h37v3h-40z" fill="#376397"/>
<path transform="translate(1530,383)" d="m0 0 4 2 3 3-2 4-9 5h-6l4-2h3v-4h-4l1-4z" fill="#15243C"/>
<path transform="translate(928,240)" d="m0 0 4 2 4 11h-21l-3-9 2-2 4 7 1 2h10z" fill="#1B3656"/>
<path transform="translate(413,160)" d="m0 0 8 6 14 10 3 5-4-1-10-6-11-11z" fill="#FCFDFD"/>
<path transform="translate(159,271)" d="m0 0 6 1 6 3 1 2-4 2h-11l-3-2v-2l3-1z" fill="#50848E"/>
<path transform="translate(464,169)" d="m0 0 5 2v3h-3l-3 5-2 8 1 8-3-4-2-5 1-2-3-1 3-4 1-5 5-1z" fill="#6EA194"/>
<path transform="translate(993,146)" d="m0 0h6v3l-4 3-8 1h-8v-3z" fill="#1B375B"/>
<path transform="translate(501,128)" d="m0 0 9 3 1 2h-2l1 4-4 1-11-5 1-3z" fill="#2D578B"/>
<path transform="translate(214,81)" d="m0 0 4 4 5 3-3 5-5 2-3-2-1-6 1-3h2z" fill="#9DCB70"/>
<path transform="translate(323,46)" d="m0 0 17 2 14 3v2l-12-2v3l-9-3-10-2z" fill="#ABD26C"/>
<path transform="translate(109,262)" d="m0 0h9l-1 5-1 2-6 1v2h-4l1-6z" fill="#356482"/>
<path transform="translate(416,162)" d="m0 0 8 1 7 5 3 5 3 2-1 3-9-7-10-7z" fill="#6EA193"/>
<path transform="translate(374,65)" d="m0 0 4 1 1 5-5 5-4-1-2-3v-3z" fill="#AFD36B"/>
<path transform="translate(1145,223)" d="m0 0 5 4 2 5v2l1 4h-3l-9-11v-2h3z" fill="#163256"/>
<path transform="translate(515,403)" d="m0 0 1 3-11 18-4 4 1-4 3-6-5 5-1-3 8-7z" fill="#12233E"/>
<path transform="translate(1443,366)" d="m0 0 5 3 4 5-2 5h-3l-5-6-1-5z" fill="#0F2346"/>
<path transform="translate(515,287)" d="m0 0 4 2 3 8 2 7v7l-1 5h-1l-4-20-3-6z" fill="#53878E"/>
<path transform="translate(431,189)" d="m0 0 2 4v8l-5-2-5-4-2-1v-2z" fill="#79AE81"/>
<path transform="translate(220,56)" d="m0 0 3 1-16 8-4 3-4-1-3-2 21-8z" fill="#A8D06D"/>
<path transform="translate(447,206)" d="m0 0h5l-2 1 1 6h3l2-5 1 4-4 3-7-1-3-3 1-4z" fill="#97C2CB"/>
<path transform="translate(534,316)" d="m0 0h1v19l-1-3h-3v-2l-5 3 2-4 3-5 2-7z" fill="#8BB8D0"/>
<path transform="translate(949,212)" d="m0 0 1 4 2 1 7 16v3l-5-5-5-11-1-6z" fill="#1A375D"/>
<path transform="translate(703,396)" d="m0 0 11 5 1 5-9-3-6-4z" fill="#183150"/>
<path transform="translate(529,330)" d="m0 0h2l-1 8-2-2-4 7-2-2-1-8 2 2z" fill="#528693"/>
<path transform="translate(407,171)" d="m0 0h2l4 11v6l-4-1-2-5 1-7-2-3z" fill="#71A589"/>
<path transform="translate(451,466)" d="m0 0m-1 1m15-1h7l-2 2-6 2h-8l-10 2 2-4 9-1z" fill="#416D96"/>
<path transform="translate(880,170)" d="m0 0 4 5 5 12-1 3-3-4-6-13z" fill="#1A365A"/>
<path transform="translate(499,431)" d="m0 0h3l-2 5-7 10-2 1-1-3z" fill="#2E5A91"/>
<path transform="translate(825,244)" d="m0 0 4 2-1 4h-2l1 3h-7l2-6z" fill="#17355C"/>
<path transform="translate(524,311)" d="m0 0h1v6l7 1-4 4-4 1-1-1v-10z" fill="#3B6989"/>
<path transform="translate(509,417)" d="m0 0 2 2-8 13h-3l2-5z" fill="#4774A5"/>
<path transform="translate(88,416)" d="m0 0 8 1 9 5-4 1-9-3z" fill="#1B3B65"/>
<path transform="translate(72,226)" d="m0 0h1l3 10v5h-1l-1 5h-2z" fill="#4B7E93"/>
<path transform="translate(167,305)" d="m0 0 3 1-3 7-2 3h-3v-9h4z" fill="#57859E"/>
<path transform="translate(913,242)" d="m0 0 4 4 2 5 9 1v1h-13l-3-9z" fill="#163156"/>
<path transform="translate(320,88)" d="m0 0h7l3 5-4 4-2-3-2-4z" fill="#A0CD70"/>
<path transform="translate(183,432)" d="m0 0h15v3h-19z" fill="#719EC0"/>
<path transform="translate(457,217)" d="m0 0 6 1-4 6h-3-2v-5z" fill="#5F9683"/>
<path transform="translate(313,419)" d="m0 0v3l-3 2v-2l-20 7-4-1z" fill="#30557E"/>
<path transform="translate(166,274)" d="m0 0 5 1 1 2-4 2h-11l-2-1v-2h11z" fill="#42708D"/>
<path transform="translate(69,403)" d="m0 0 5 2 11 6 1 4-5-2-11-8z" fill="#3B6694"/>
<path transform="translate(1197,303)" d="m0 0h5v5l-3 3h-4l-1-2z" fill="#14315A"/>
<path transform="translate(1392,218)" d="m0 0 7 1v3l-4 4-4-4z" fill="#132847"/>
<path transform="translate(182,75)" d="m0 0 2 1-1 4h6l-3 2-9 3 2-6z" fill="#FCFDFD"/>
<path transform="translate(989,309)" d="m0 0 7 4 2 3h-3l-7-2-2-4z" fill="#173258"/>
<path transform="translate(538,221)" d="m0 0 2 2-10 14-2 1 1-4z" fill="#346094"/>
<path transform="translate(493,438)" d="m0 0v3l-5 5-3 1 1-6 6-2z" fill="#10213D"/>
<path transform="translate(114,284)" d="m0 0h7v11l-3-1h2v-4l-4-2z" fill="#2B588C"/>
<path transform="translate(464,169)" d="m0 0 5 2v3h-3l-2 4-4-1v-3l4-1z" fill="#8EB7AB"/>
<path transform="translate(85,412)" d="m0 0 10 3 5 2v2l-4-1-9-1z" fill="#315D91"/>
<path transform="translate(440,378)" d="m0 0 2 1-2 4-2 7-1-3h-2v-5z" fill="#4A7C8B"/>
<path transform="translate(699,311)" d="m0 0m-2 1 2 1-10 12-3-1 9-10z" fill="#1A365B"/>
<path transform="translate(952,175)" d="m0 0 2 1-1 5-3 9-2-1 1-7z" fill="#204166"/>
<path transform="translate(1034,245)" d="m0 0m-3 1h3l1 3-7 3h-3v-3z" fill="#162D50"/>
<path transform="translate(966,158)" d="m0 0 2 1-8 8-3 5-2 3-2-1 6-9z" fill="#203D5D"/>
<path transform="translate(180,74)" d="m0 0 3 1-5 3-4 1v2l-5 4-2-1 5-5z" fill="#75AC6F"/>
<path transform="translate(986,378)" d="m0 0v3l-3 3-2 4-5 1-1-2 8-6z" fill="#152F53"/>
<path transform="translate(1094,314)" d="m0 0 7 2 1 4-8-2v-2l-2-1z" fill="#10284C"/>
<path transform="translate(149,265)" d="m0 0 7 4v2h-9l2-2-2-2z" fill="#4A779B"/>
<path transform="translate(452,206)" d="m0 0h4l-1 5-1 2h-3l-1-6z" fill="#78AF73"/>
<path transform="translate(205,73)" d="m0 0 4 2 1 3-5 2-2-4z" fill="#9FCC70"/>
<path transform="translate(457,158)" d="m0 0 3 2-1 7 1 2-2 2-1-1z" fill="#FCFDFD"/>
<path transform="translate(168,81)" d="m0 0 2 1v1l4-2-5 6-5-1-1-2z" fill="#A7CC9C"/>
<path transform="translate(190,312)" d="m0 0 5 1v2l-3 3h-3l-2-4z" fill="#356193"/>
<path transform="translate(535,319)" d="m0 0h1v11l3 1-2 4h-2z" fill="#315E89"/>
<path transform="translate(431,189)" d="m0 0v3h-4l-2 4-4-2v-2z" fill="#70A488"/>
<path transform="translate(201,63)" d="m0 0 6 1-4 4-4-1-3-2z" fill="#9ECB70"/>
<path transform="translate(410,179)" d="m0 0h2l1 9h-3l-1-6z" fill="#669D7F"/>
</svg>
